<?xml version="1.0" encoding="UTF-8" standalone="no"?>
<!-- Generator: Adobe Illustrator 23.0.3, SVG Export Plug-In . SVG Version: 6.00 Build 0)  -->

<svg
   xmlns:dc="http://purl.org/dc/elements/1.1/"
   xmlns:cc="http://creativecommons.org/ns#"
   xmlns:rdf="http://www.w3.org/1999/02/22-rdf-syntax-ns#"
   xmlns:svg="http://www.w3.org/2000/svg"
   xmlns="http://www.w3.org/2000/svg"
   xmlns:sodipodi="http://sodipodi.sourceforge.net/DTD/sodipodi-0.dtd"
   xmlns:inkscape="http://www.inkscape.org/namespaces/inkscape"
   version="1.1"
   id="Capa_12"
   x="0px"
   y="0px"
   viewBox="0 0 2303.1 1080"
   style="enable-background:new 0 0 2303.1 1080;"
   xml:space="preserve"
   sodipodi:docname="fortress-white.svg"
   inkscape:version="0.92.4 (unknown)"><metadata
   id="metadata1007"><rdf:RDF><cc:Work
       rdf:about=""><dc:format>image/svg+xml</dc:format><dc:type
         rdf:resource="http://purl.org/dc/dcmitype/StillImage" /><dc:title /></cc:Work></rdf:RDF></metadata><defs
   id="defs1005" /><sodipodi:namedview
   pagecolor="#ffffff"
   bordercolor="#666666"
   borderopacity="1"
   objecttolerance="10"
   gridtolerance="10"
   guidetolerance="10"
   inkscape:pageopacity="0"
   inkscape:pageshadow="2"
   inkscape:window-width="1920"
   inkscape:window-height="983"
   id="namedview1003"
   showgrid="false"
   inkscape:zoom="0.38500797"
   inkscape:cx="1407.275"
   inkscape:cy="715.10092"
   inkscape:window-x="0"
   inkscape:window-y="34"
   inkscape:window-maximized="1"
   inkscape:current-layer="text2026" />
<style
   type="text/css"
   id="style948">
	.st0{fill:#1D1D1B;}
</style>

<g
   aria-label="COLECCION DE MAPAS"
   style="font-style:normal;font-weight:normal;font-size:239.03622437px;line-height:1.25;font-family:sans-serif;letter-spacing:0px;word-spacing:0px;fill:#000000;fill-opacity:1;stroke:none;stroke-width:0.22118266"
   id="text1011"
   transform="matrix(4.5211502,0,0,4.5211502,231.39642,920.52364)"><g
   aria-label="#LARUTA"
   style="font-style:normal;font-weight:normal;font-size:89.22472382px;line-height:1.25;font-family:sans-serif;letter-spacing:0px;word-spacing:0px;fill:#000000;fill-opacity:1;stroke:none;stroke-width:0.22118264"
   id="text1901"
   transform="translate(0,-10.340793)"><g
     aria-label="#EUROPA FORTALEZA"
     style="font-style:normal;font-weight:normal;font-size:88.22151947px;line-height:1.25;font-family:sans-serif;letter-spacing:0px;word-spacing:0px;fill:#c83737;fill-opacity:1;stroke:none;stroke-width:0.04892179"
     id="text2026"><g
       id="g2101"
       style="fill:#c9cbc8;stroke-width:0.05185146"
       transform="matrix(0.94349888,0,0,0.94349888,9.5601072,3.0442562)"><g
         id="g2070"
         style="fill:#c9cbc8;stroke-width:0.05185146"><path
           d="m -0.12140064,-136.02396 -1.85265196,11.02769 h -6.1755063 l -0.7939937,5.46973 h 6.3519494 l -1.8526519,11.02769 h -6.1755059 l -1.411545,9.704367 h -10.410139 l 1.499766,-9.704367 h -5.646177 l -1.499766,9.704367 h -10.41014 l 1.499766,-9.704367 h -7.322386 l 1.852652,-11.02769 h 7.145943 l 0.793994,-5.46973 h -7.145943 l 1.76443,-11.02769 h 7.057722 l 1.587987,-10.05726 h 10.410139 l -1.587987,10.05726 h 5.557956 l 1.587987,-10.05726 h 10.4101393 l -1.5879873,10.05726 z m -24.26091736,10.58658 -0.970437,6.35195 h 6.351949 l 0.970437,-6.35195 z"
           style="font-style:normal;font-variant:normal;font-weight:500;font-stretch:normal;font-family:Kievit;-inkscape-font-specification:'Kievit Medium';fill:#c9cbc8;stroke-width:0.05185146"
           id="path2030"
           inkscape:connector-curvature="0" /><path
           d="m 6.7819344,-92.26609 v -58.75553 H 43.65853 v 13.67433 H 23.36758 v 8.82216 h 17.908969 v 12.70389 H 23.36758 v 9.88081 h 20.9085 v 13.67434 z"
           style="font-style:normal;font-variant:normal;font-weight:500;font-stretch:normal;font-family:Kievit;-inkscape-font-specification:'Kievit Medium';fill:#c9cbc8;stroke-width:0.05185146"
           id="path2032"
           inkscape:connector-curvature="0" /><path
           d="m 107.34137,-117.40922 q 0,13.05678 -6.52839,19.673395 -6.440171,6.528393 -18.967627,6.528393 -13.409671,0 -20.202728,-5.910842 -6.704835,-5.999066 -6.704835,-18.526516 v -35.37683 H 71.7881 v 34.22995 q 0,3.08775 0.529329,5.38151 0.529329,2.29376 1.676209,3.79353 1.235101,1.41154 3.175975,2.11731 2.029095,0.70577 5.028626,0.70577 5.469734,0 7.587051,-2.91131 2.117316,-2.99953 2.117316,-8.73393 v -34.58283 h 15.438764 z"
           style="font-style:normal;font-variant:normal;font-weight:500;font-stretch:normal;font-family:Kievit;-inkscape-font-specification:'Kievit Medium';fill:#c9cbc8;stroke-width:0.05185146"
           id="path2034"
           inkscape:connector-curvature="0" /><path
           d="m 152.8947,-92.26609 -9.96903,-16.76209 q -1.05866,-1.67621 -1.76443,-2.64664 -0.70577,-1.05866 -1.32333,-1.58799 -0.61755,-0.52933 -1.14687,-0.70577 -0.52933,-0.17645 -1.23511,-0.17645 h -0.61755 v 21.87894 h -16.85031 v -58.75553 h 22.49649 q 11.29236,0 17.37964,4.4993 6.08728,4.49929 6.08728,13.40967 0,3.61708 -1.05865,6.35195 -0.97044,2.64664 -2.64665,4.58751 -1.58799,1.94088 -3.7053,3.2642 -2.0291,1.2351 -4.05819,1.94087 v 0.17645 q 1.49976,1.05866 3.26419,3.26419 1.85266,2.11732 4.14641,5.99907 l 9.08682,15.26232 z m -3.44064,-39.69968 q 0,-3.35242 -1.85265,-4.94041 -1.76443,-1.67621 -5.99906,-1.67621 h -4.76397 v 13.14501 h 5.29329 q 3.70531,0 5.46974,-1.67621 1.85265,-1.76443 1.85265,-4.85218 z"
           style="font-style:normal;font-variant:normal;font-weight:500;font-stretch:normal;font-family:Kievit;-inkscape-font-specification:'Kievit Medium';fill:#c9cbc8;stroke-width:0.05185146"
           id="path2036"
           inkscape:connector-curvature="0" /><path
           d="m 236.48735,-122.08496 q 0,5.91084 -1.94088,11.46879 -1.85265,5.55796 -5.7344,9.88081 -3.79352,4.322858 -9.61614,6.969504 -5.82262,2.558424 -13.67434,2.558424 -7.85171,0 -13.85078,-2.558424 -5.91084,-2.558424 -9.96903,-6.793054 -3.96997,-4.23464 -5.99906,-9.70437 -2.0291,-5.46973 -2.0291,-11.29235 0,-5.91085 1.94088,-11.38058 2.02909,-5.55796 5.91084,-9.79259 3.96997,-4.23463 9.88081,-6.79306 5.91084,-2.55842 13.76256,-2.55842 7.85171,0 13.67433,2.55842 5.91084,2.47021 9.79259,6.61662 3.96997,4.14641 5.91084,9.61614 1.94088,5.38152 1.94088,11.20414 z m -17.73253,0.52933 q 0,-3.44064 -0.70577,-6.5284 -0.61755,-3.08775 -2.20554,-5.46973 -1.49976,-2.38198 -4.05819,-3.70531 -2.55842,-1.41154 -6.26373,-1.41154 -3.79352,0 -6.52839,1.32332 -2.64664,1.32333 -4.32285,3.61709 -1.67621,2.20553 -2.47021,5.20507 -0.70577,2.99953 -0.70577,6.44017 0,3.44064 0.70577,6.61661 0.794,3.17597 2.38198,5.64618 1.67621,2.38198 4.23464,3.79352 2.64664,1.41155 6.35195,1.41155 3.79352,0 6.35195,-1.32333 2.64664,-1.41154 4.23463,-3.7053 1.58799,-2.38198 2.29376,-5.38151 0.70577,-3.08776 0.70577,-6.52839 z"
           style="font-style:normal;font-variant:normal;font-weight:500;font-stretch:normal;font-family:Kievit;-inkscape-font-specification:'Kievit Medium';fill:#c9cbc8;stroke-width:0.05185146"
           id="path2038"
           inkscape:connector-curvature="0" /><path
           d="m 292.52591,-131.26 q 0,5.20507 -1.85265,8.99859 -1.85265,3.79353 -5.20507,6.35195 -3.35242,2.55843 -8.11638,3.79353 -4.67574,1.2351 -10.41014,1.2351 h -4.32285 v 18.61474 h -16.85031 v -58.75553 h 22.84937 q 5.02863,0 9.35148,1.2351 4.41108,1.14688 7.58705,3.61708 3.2642,2.38198 5.11685,6.08729 1.85265,3.7053 1.85265,8.82215 z m -16.76208,0.17644 q 0,-4.05819 -2.11732,-5.7344 -2.0291,-1.76443 -6.17551,-1.76443 h -4.85218 v 15.35055 h 4.4993 q 4.49929,0 6.52839,-1.85266 2.11732,-1.85265 2.11732,-5.99906 z"
           style="font-style:normal;font-variant:normal;font-weight:500;font-stretch:normal;font-family:Kievit;-inkscape-font-specification:'Kievit Medium';fill:#c9cbc8;stroke-width:0.05185146"
           id="path2040"
           inkscape:connector-curvature="0" /><path
           d="m 307.47121,-92.26609 h -17.02675 l 22.40826,-58.75553 h 16.14454 l 23.29048,58.75553 h -18.35008 l -2.82308,-8.29282 h -20.9085 z m 15.87987,-30.70109 q -0.70577,-1.94087 -1.2351,-3.7053 -0.44111,-1.85265 -0.79399,-3.35242 -0.35289,-1.67621 -0.70577,-3.17598 h -0.17645 q -0.35288,1.58799 -0.70577,3.2642 -0.35289,1.49977 -0.88221,3.35242 -0.52933,1.76443 -1.14688,3.61708 l -3.08776,9.26326 h 11.90991 z"
           style="font-style:normal;font-variant:normal;font-weight:500;font-stretch:normal;font-family:Kievit;-inkscape-font-specification:'Kievit Medium';fill:#c9cbc8;stroke-width:0.05185146"
           id="path2042"
           inkscape:connector-curvature="0" /></g><g
         transform="translate(0,-48.257035)"
         id="g2081"
         style="fill:#c9cbc8;stroke-width:0.05185146"><path
           inkscape:connector-curvature="0"
           d="m -23.235439,-21.139785 v 10.851247 H -6.120464 V 2.4153611 H -23.235439 V 23.941412 h -16.85031 V -34.81412 h 36.0826015 v 13.674335 z"
           style="font-style:normal;font-variant:normal;font-weight:500;font-stretch:normal;font-family:Kievit;-inkscape-font-specification:'Kievit Medium';fill:#c9cbc8;stroke-width:0.05185146"
           id="path2044" /><path
           inkscape:connector-curvature="0"
           d="m 65.471989,-5.8774617 q 0,5.9108418 -1.940874,11.4687975 -1.852652,5.5579562 -5.734398,9.8808102 -3.793526,4.322854 -9.616146,6.9695 -5.82262,2.558424 -13.674336,2.558424 -7.851715,0 -13.850778,-2.558424 Q 14.744615,19.883222 10.686425,15.648589 6.7164568,11.413956 4.6873618,5.9442219 2.6582669,0.47448769 2.6582669,-5.3481326 q 0,-5.9108414 1.9408734,-11.3805764 2.029095,-5.557955 5.9108417,-9.792588 3.969968,-4.234633 9.88081,-6.793057 5.910842,-2.558424 13.762557,-2.558424 7.851716,0 13.674336,2.558424 5.910842,2.470202 9.792589,6.616614 3.969968,4.146411 5.910841,9.616145 1.940874,5.381513 1.940874,11.2041333 z m -17.732526,0.5293291 q 0,-3.4406392 -0.705772,-6.5283924 -0.61755,-3.087753 -2.205538,-5.469734 -1.499766,-2.381981 -4.05819,-3.705304 -2.558424,-1.411544 -6.263728,-1.411544 -3.793525,0 -6.528392,1.323322 -2.646646,1.323323 -4.322854,3.617083 -1.676209,2.205538 -2.470203,5.205069 -0.705772,2.999532 -0.705772,6.4401713 0,3.4406393 0.705772,6.61661395 0.793994,3.17597475 2.381981,5.64617725 1.676209,2.381981 4.234633,3.7935255 2.646646,1.411544 6.351949,1.411544 3.793526,0 6.35195,-1.323323 2.646645,-1.411544 4.234633,-3.7053035 1.587987,-2.381981 2.293759,-5.3815126 0.705772,-3.0877532 0.705772,-6.5283925 z"
           style="font-style:normal;font-variant:normal;font-weight:500;font-stretch:normal;font-family:Kievit;-inkscape-font-specification:'Kievit Medium';fill:#c9cbc8;stroke-width:0.05185146"
           id="path2046" /><path
           inkscape:connector-curvature="0"
           d="M 107.92239,23.941412 97.953363,7.1793232 Q 96.894705,5.5031143 96.188932,4.5326776 95.48316,3.4740194 94.86561,2.9446902 94.248059,2.4153611 93.71873,2.2389181 93.189401,2.062475 92.483629,2.062475 H 91.866078 V 23.941412 H 75.015768 V -34.81412 h 22.496487 q 11.292355,0 17.379635,4.499297 6.08729,4.499298 6.08729,13.409671 0,3.617083 -1.05866,6.35195 -0.97044,2.6466453 -2.64664,4.5875188 -1.58799,1.9408734 -3.70531,3.2641962 -2.02909,1.2351013 -4.05819,1.94087342 v 0.17644304 q 1.49977,1.05865823 3.2642,3.26419624 1.85265,2.1173164 4.14641,5.9990633 l 9.08682,15.262323 z m -3.44063,-39.699684 q 0,-3.352418 -1.85266,-4.940405 -1.76443,-1.676209 -5.99906,-1.676209 h -4.763962 v 13.1450066 h 5.293291 q 3.705301,0 5.469731,-1.6762086 1.85266,-1.764431 1.85266,-4.852184 z"
           style="font-style:normal;font-variant:normal;font-weight:500;font-stretch:normal;font-family:Kievit;-inkscape-font-specification:'Kievit Medium';fill:#c9cbc8;stroke-width:0.05185146"
           id="path2048" /><path
           inkscape:connector-curvature="0"
           d="M 159.30799,-21.139785 V 23.941412 H 142.45768 V -21.139785 H 126.66603 V -34.81412 h 48.43361 v 13.674335 z"
           style="font-style:normal;font-variant:normal;font-weight:500;font-stretch:normal;font-family:Kievit;-inkscape-font-specification:'Kievit Medium';fill:#c9cbc8;stroke-width:0.05185146"
           id="path2050" /><path
           inkscape:connector-curvature="0"
           d="m 189.87122,23.941412 h -17.02676 l 22.40827,-58.755532 h 16.14454 l 23.29048,58.755532 h -18.35008 l -2.82308,-8.292823 h -20.9085 z m 15.87987,-30.7010889 q -0.70577,-1.9408734 -1.2351,-3.7053041 -0.44111,-1.852652 -0.79399,-3.352417 -0.35289,-1.676209 -0.70578,-3.175975 h -0.17644 q -0.35288,1.587987 -0.70577,3.264196 -0.35289,1.499766 -0.88222,3.352418 -0.52932,1.7644302 -1.14688,3.6170821 l -3.08775,9.2632595 h 11.90991 z"
           style="font-style:normal;font-variant:normal;font-weight:500;font-stretch:normal;font-family:Kievit;-inkscape-font-specification:'Kievit Medium';fill:#c9cbc8;stroke-width:0.05185146"
           id="path2052" /><path
           inkscape:connector-curvature="0"
           d="M 242.33476,23.941412 V -34.81412 h 16.93854 v 45.434082 h 20.9085 v 13.32145 z"
           style="font-style:normal;font-variant:normal;font-weight:500;font-stretch:normal;font-family:Kievit;-inkscape-font-specification:'Kievit Medium';fill:#c9cbc8;stroke-width:0.05185146"
           id="path2054" /><path
           inkscape:connector-curvature="0"
           d="M 290.22803,23.941412 V -34.81412 h 36.8766 v 13.674335 h -20.29095 v 8.822152 h 17.90897 V 0.38626617 H 306.81368 V 10.267076 h 20.9085 v 13.674336 z"
           style="font-style:normal;font-variant:normal;font-weight:500;font-stretch:normal;font-family:Kievit;-inkscape-font-specification:'Kievit Medium';fill:#c9cbc8;stroke-width:0.05185146"
           id="path2056" /><path
           inkscape:connector-curvature="0"
           d="M 336.69733,23.941412 V 13.266608 l 22.76116,-34.406393 H 337.49133 V -34.81412 h 42.52277 v 10.586582 l -22.84937,34.494614 h 23.46692 v 13.674336 z"
           style="font-style:normal;font-variant:normal;font-weight:500;font-stretch:normal;font-family:Kievit;-inkscape-font-specification:'Kievit Medium';fill:#c9cbc8;stroke-width:0.05185146"
           id="path2058" /><path
           inkscape:connector-curvature="0"
           d="m 401.55117,23.941412 h -17.02676 l 22.40827,-58.755532 h 16.14454 l 23.29048,58.755532 h -18.35008 l -2.82309,-8.292823 h -20.9085 z m 15.87987,-30.7010889 q -0.70577,-1.9408734 -1.2351,-3.7053041 -0.44111,-1.852652 -0.794,-3.352417 -0.35288,-1.676209 -0.70577,-3.175975 h -0.17644 q -0.35289,1.587987 -0.70577,3.264196 -0.35289,1.499766 -0.88222,3.352418 -0.52933,1.7644302 -1.14688,3.6170821 l -3.08775,9.2632595 h 11.9099 z"
           style="font-style:normal;font-variant:normal;font-weight:500;font-stretch:normal;font-family:Kievit;-inkscape-font-specification:'Kievit Medium';fill:#c9cbc8;stroke-width:0.05185146"
           id="path2060" /></g></g><g
       aria-label="Mapa de migraciones y fronteras"
       style="font-style:normal;font-weight:normal;font-size:31.43765068px;line-height:1.25;font-family:sans-serif;letter-spacing:0px;word-spacing:0px;fill:#c9cbc8;fill-opacity:1;stroke:none;stroke-width:0.01082064"
       id="text962"><path
         d="M -18.451293,11.123649 -20.809116,2.54117 q -0.157189,-0.4715648 -0.282939,-1.0060048 -0.09431,-0.56587773 -0.220064,-1.00600484 -0.12575,-0.53444006 -0.251501,-1.06888012 h -0.06287 q -0.03144,0.50300241 -0.06288,1.06888012 -0.03144,0.47156474 -0.09431,1.03744244 -0.03144,0.5344401 -0.09431,1.0374425 l -1.068881,8.5196037 h -5.3444 l 2.923701,-20.9374757 h 5.847403 l 3.48958,11.8834319 q 0.157188,0.5030025 0.282938,1.1003178 0.157189,0.5658777 0.282939,1.1003178 0.125751,0.5973154 0.282939,1.1946307 h 0.06288 q 0.157189,-0.5973153 0.314377,-1.1946307 0.157188,-0.5344401 0.282939,-1.1003178 0.157188,-0.5973153 0.314376,-1.1003178 l 3.678205,-11.8834319 h 5.8474035 L -1.7893377,11.123649 H -7.9196795 L -8.8942467,2.6040453 Q -8.957122,2.0067299 -9.0199973,1.4408522 -9.0828726,0.87497452 -9.1457479,0.43484741 q -0.062875,-0.53444006 -0.094313,-0.97456717 h -0.062875 Q -9.4286868,-0.068155 -9.5544374,0.43484741 -9.680188,0.87497452 -9.8059386,1.4408522 -9.9316892,1.9752923 -10.088877,2.5097324 l -2.4207,8.6139166 z"
         style="font-style:normal;font-variant:normal;font-weight:normal;font-stretch:normal;font-family:Kievit;-inkscape-font-specification:Kievit;fill:#c9cbc8;fill-opacity:1;stroke-width:0.01082064"
         id="path964" /><path
         d="M 9.0696689,11.123649 Q 8.9439183,10.84071 8.8496053,10.400583 8.78673,9.9604556 8.7552924,9.6146414 8.5037912,9.9290179 8.1265394,10.274832 7.7492876,10.589209 7.2148475,10.872147 6.7118451,11.155086 6.0516544,11.312275 5.4229014,11.5009 4.6369601,11.5009 q -1.0060048,0 -1.886259,-0.282938 Q 1.8704469,10.935023 1.2102562,10.369145 0.55006555,9.8032673 0.17281374,8.9544507 -0.20443807,8.1056342 -0.20443807,6.9738788 q 0,-1.4775696 0.66019067,-2.5464498 Q 1.1473809,3.3585489 2.2791363,2.6983583 3.4108918,2.0067299 4.8884613,1.6923534 6.3974686,1.3779769 8.0322264,1.3779769 H 8.4723535 V 0.90641217 q 0,-0.66019066 -0.4086894,-1.00600482 -0.4086895,-0.34581416 -1.6661955,-0.34581416 -0.6916283,0 -1.3203814,0.15718826 Q 4.4797719,-0.1310303 3.9767695,0.08903325 3.4737671,0.27765916 3.0965153,0.52916036 2.7507011,0.74922392 2.5306375,0.87497452 L 0.26712669,-2.4574165 Q 0.6443785,-2.8032306 1.2731315,-3.1804824 1.9018845,-3.5891719 2.7507011,-3.934986 3.6309553,-4.2808002 4.6998354,-4.5008637 5.8001532,-4.752365 7.1205345,-4.752365 q 3.6782055,0 5.3129635,1.4146943 1.666195,1.3832567 1.666195,4.7785229 v 4.3069582 q 0,1.886259 0.157188,3.2066403 0.157188,1.2889433 0.345814,2.1691983 z M 8.4723535,4.6474926 H 8.0322264 q -1.351819,0 -2.1691979,0.4401271 -0.8173789,0.4401271 -0.8173789,1.351819 0,1.1946307 1.5404449,1.1946307 0.7230659,0 1.1631931,-0.2200635 0.4401271,-0.2515012 0.7230659,-0.5030024 z"
         style="font-style:normal;font-variant:normal;font-weight:normal;font-stretch:normal;font-family:Kievit;-inkscape-font-specification:Kievit;fill:#c9cbc8;fill-opacity:1;stroke-width:0.01082064"
         id="path966" /><path
         d="m 33.131014,3.3585489 q 0,1.8548214 -0.53444,3.3638286 -0.503002,1.5090073 -1.446132,2.5778874 -0.911692,1.0374421 -2.200635,1.6347581 -1.288944,0.565877 -2.829389,0.565877 -1.257506,0 -2.074885,-0.314376 -0.817379,-0.282939 -1.226068,-0.597315 v 7.419285 H 17.160688 V -4.3751131 h 5.533026 v 1.5718825 q 0.660191,-0.8173789 1.634758,-1.3832566 0.974567,-0.5658778 2.515012,-0.5658778 3.018014,0 4.652772,2.1063226 1.634758,2.07488499 1.634758,6.0045913 z M 27.15786,3.3271113 q 0,-1.9176967 -0.597315,-2.82938859 -0.565878,-0.91169187 -1.634758,-0.91169187 -0.440127,0 -0.785941,0.12575061 -0.314377,0.1257506 -0.597315,0.3143765 -0.251502,0.18862591 -0.440128,0.37725181 -0.188625,0.18862591 -0.282938,0.31437651 V 6.502314 q 0.314376,0.2829388 0.754503,0.5344401 0.440127,0.2200635 1.131756,0.2200635 1.19463,0 1.823383,-0.9431295 0.628753,-0.9431295 0.628753,-2.9865768 z"
         style="font-style:normal;font-variant:normal;font-weight:normal;font-stretch:normal;font-family:Kievit;-inkscape-font-specification:Kievit;fill:#c9cbc8;fill-opacity:1;stroke-width:0.01082064"
         id="path968" /><path
         d="m 43.976512,11.123649 q -0.125751,-0.282939 -0.220063,-0.723066 -0.06288,-0.4401274 -0.09431,-0.7859416 -0.251502,0.3143765 -0.628753,0.6601906 -0.377252,0.314377 -0.911692,0.597315 -0.503003,0.282939 -1.163193,0.440128 -0.628753,0.188625 -1.414695,0.188625 -1.006004,0 -1.886259,-0.282938 -0.880254,-0.282939 -1.540445,-0.848817 -0.66019,-0.5658777 -1.037442,-1.4146943 -0.377252,-0.8488165 -0.377252,-1.9805719 0,-1.4775696 0.660191,-2.5464498 0.691628,-1.0688801 1.823384,-1.7290707 1.131755,-0.6916284 2.609325,-1.0060049 1.509007,-0.3143765 3.143765,-0.3143765 h 0.440127 V 0.90641217 q 0,-0.66019066 -0.40869,-1.00600482 -0.408689,-0.34581416 -1.666195,-0.34581416 -0.691629,0 -1.320382,0.15718826 -0.597315,0.15718825 -1.100317,0.3772518 -0.503003,0.18862591 -0.880255,0.44012711 -0.345814,0.22006356 -0.565877,0.34581416 L 35.17397,-2.4574165 q 0.377252,-0.3458141 1.006005,-0.7230659 0.628753,-0.4086895 1.477569,-0.7545036 0.880255,-0.3458142 1.949135,-0.5658777 1.100317,-0.2515013 2.420699,-0.2515013 3.678205,0 5.312963,1.4146943 1.666195,1.3832567 1.666195,4.7785229 v 4.3069582 q 0,1.886259 0.157188,3.2066403 0.157189,1.2889433 0.345815,2.1691983 z M 43.379197,4.6474926 H 42.93907 q -1.351819,0 -2.169198,0.4401271 -0.817379,0.4401271 -0.817379,1.351819 0,1.1946307 1.540445,1.1946307 0.723066,0 1.163193,-0.2200635 0.440127,-0.2515012 0.723066,-0.5030024 z"
         style="font-style:normal;font-variant:normal;font-weight:normal;font-stretch:normal;font-family:Kievit;-inkscape-font-specification:Kievit;fill:#c9cbc8;fill-opacity:1;stroke-width:0.01082064"
         id="path970" /><path
         d="m 56.529957,3.4214242 q 0,-1.8548214 0.503003,-3.3638286 0.53444,-1.5090072 1.477569,-2.5778874 0.94313,-1.0688801 2.232073,-1.6347578 1.288944,-0.5973154 2.797951,-0.5973154 1.257506,0 2.074885,0.3143766 0.817379,0.3143765 1.226069,0.5973153 v -7.4821609 h 5.658777 V 5.7478104 q 0,1.886259 0.157188,3.2066403 0.157188,1.2889433 0.345814,2.1691983 H 67.47026 q -0.125751,-0.314377 -0.220064,-0.785942 -0.09431,-0.503002 -0.125751,-0.8173785 -0.785941,0.9116915 -1.791946,1.4775695 -0.974567,0.53444 -2.483574,0.53444 -3.018014,0 -4.68421,-2.0748848 -1.634758,-2.1063226 -1.634758,-6.036029 z m 5.973154,0.062875 q 0,1.8862591 0.565878,2.7979509 0.597315,0.9116919 1.666195,0.9116919 0.848817,0 1.351819,-0.4086895 0.53444,-0.4401271 0.754504,-0.7230659 V 0.27765916 q -0.314377,-0.28293886 -0.754504,-0.50300241 -0.440127,-0.22006356 -1.131755,-0.22006356 -1.194631,0 -1.823384,0.94312952 -0.628753,0.91169189 -0.628753,2.98657679 z"
         style="font-style:normal;font-variant:normal;font-weight:normal;font-stretch:normal;font-family:Kievit;-inkscape-font-specification:Kievit;fill:#c9cbc8;fill-opacity:1;stroke-width:0.01082064"
         id="path972" /><path
         d="m 80.925086,5.150495 q 0.471565,2.3263862 3.238078,2.3263862 0.785942,0 1.351819,-0.062875 0.597316,-0.094313 1.037443,-0.2200636 0.440127,-0.1257506 0.785941,-0.2515012 0.345814,-0.1571883 0.660191,-0.2829389 l 1.666195,3.3952668 q -0.440127,0.251501 -0.974567,0.503002 -0.53444,0.251501 -1.257506,0.471565 -0.691628,0.188626 -1.634758,0.314376 -0.943129,0.157188 -2.232073,0.157188 -4.118332,0 -6.413281,-2.1377598 Q 74.85762,7.22538 74.85762,3.3271113 q 0,-1.9176967 0.660191,-3.42670395 0.66019,-1.50900725 1.760508,-2.54644975 1.131755,-1.0374424 2.609325,-1.5718825 1.47757,-0.5344401 3.143765,-0.5344401 4.024019,0 5.815965,2.5464498 1.791947,2.51501201 1.351819,7.3564102 h -9.274107 z m 3.898269,-3.6467675 q -0.03144,-1.06888009 -0.440127,-1.72907075 -0.408689,-0.69162832 -1.414694,-0.69162832 -1.854822,0 -2.232073,2.42069907 z"
         style="font-style:normal;font-variant:normal;font-weight:normal;font-stretch:normal;font-family:Kievit;-inkscape-font-specification:Kievit;fill:#c9cbc8;fill-opacity:1;stroke-width:0.01082064"
         id="path974" /><path
         d="m 112.20211,-2.4259788 q 1.03744,-1.1946307 2.13776,-1.7605084 1.13176,-0.5658778 2.79795,-0.5658778 1.25751,0 2.10632,0.4086895 0.88026,0.3772518 1.38326,1.0688801 0.53444,0.6916283 0.7545,1.6347579 0.22007,0.94312949 0.22007,2.04344726 V 11.123649 h -5.65878 V 1.5980405 q 0,-0.94312953 -0.28294,-1.32038134 -0.28294,-0.40868946 -1.006,-0.40868946 -0.66019,0 -1.13176,0.40868946 -0.44013,0.37725181 -0.81738,0.84881654 v 9.9971733 h -5.65877 V 1.5980405 q 0,-0.94312953 -0.34582,-1.32038134 -0.31438,-0.40868946 -0.94313,-0.40868946 -0.81738,0 -1.2575,0.47156476 -0.44013,0.44012711 -0.69163,0.72306594 V 11.123649 H 98.14948 V -4.3751131 h 5.53303 v 1.7290707 q 0.31437,-0.3772518 0.72306,-0.7230659 0.44013,-0.3772518 0.97457,-0.6916283 0.56588,-0.3143765 1.25751,-0.5030024 0.69162,-0.188626 1.60332,-0.188626 1.60332,0 2.54645,0.6287531 0.97456,0.5973153 1.41469,1.6976331 z"
         style="font-style:normal;font-variant:normal;font-weight:normal;font-stretch:normal;font-family:Kievit;-inkscape-font-specification:Kievit;fill:#c9cbc8;fill-opacity:1;stroke-width:0.01082064"
         id="path976" /><path
         d="m 131.14968,-8.8078219 q 0,1.257506 -0.91169,2.2006356 -0.88025,0.9116918 -2.32639,0.9116918 -1.44613,0 -2.35782,-0.9116918 -0.88025,-0.9431296 -0.88025,-2.2006356 0,-1.2575061 0.88025,-2.1691981 0.91169,-0.911692 2.35782,-0.911692 1.44614,0 2.32639,0.911692 0.91169,0.911692 0.91169,2.1691981 z m -6.0989,19.9314709 V -4.3751131 h 5.72165 V 11.123649 Z"
         style="font-style:normal;font-variant:normal;font-weight:normal;font-stretch:normal;font-family:Kievit;-inkscape-font-specification:Kievit;fill:#c9cbc8;fill-opacity:1;stroke-width:0.01082064"
         id="path978" /><path
         d="m 149.75684,-4.3751131 v 3.45814153 h -1.94913 q 0.28294,0.84881657 0.28294,1.76050844 0,2.54644973 -1.76051,4.05545693 -1.72907,1.5090072 -5.31296,1.5090072 -0.50301,0 -1.00601,-0.031438 -0.47156,-0.031438 -0.91169,-0.094313 -0.0943,0.1257506 -0.18863,0.2829389 -0.0629,0.1257506 -0.0629,0.3458142 0,0.2829388 0.15719,0.4715647 0.18862,0.1571883 0.62875,0.2829389 0.44013,0.094313 1.16319,0.1571882 0.75451,0.031438 1.88626,0.094313 1.16319,0.062875 2.32639,0.2200635 1.19463,0.1257506 2.1692,0.5973154 0.97456,0.4715648 1.57188,1.4146938 0.62875,0.94313 0.62875,2.577888 0,1.257506 -0.59731,2.326386 -0.59732,1.100318 -1.76051,1.886259 -1.1632,0.817379 -2.89227,1.257506 -1.69763,0.471565 -3.9297,0.471565 -7.29354,0 -7.29354,-3.961144 0,-1.288944 0.72307,-2.169198 0.72306,-0.848817 1.85482,-1.47757 -1.32038,-0.880254 -1.32038,-2.3892611 0,-1.3203813 0.53444,-2.074885 0.56588,-0.7859412 1.28894,-1.2260683 -1.32038,-0.723066 -2.04345,-1.8548214 -0.69162,-1.1317554 -0.69162,-2.67220033 0,-2.54644967 1.91769,-4.05545697 1.9177,-1.5404449 5.47015,-1.5404449 1.72907,0 3.04946,0.3772519 z m -9.08548,7.3878479 q 0.94313,0 1.50901,-0.5030024 0.56588,-0.5344401 0.56588,-1.66619553 0,-1.13175542 -0.56588,-1.66619549 -0.56588,-0.53444008 -1.50901,-0.53444008 -0.94313,0 -1.50901,0.53444008 -0.53444,0.53444007 -0.53444,1.66619549 0,1.13175543 0.53444,1.66619553 0.56588,0.5030024 1.50901,0.5030024 z m -1.85482,9.1797942 q -0.2515,0.251501 -0.40869,0.53444 -0.12575,0.314376 -0.12575,0.754503 0,0.785942 0.503,1.194631 0.53444,0.440127 1.79195,0.440127 1.66619,0 2.4207,-0.503002 0.78594,-0.471565 0.78594,-1.100318 0,-0.377252 -0.18863,-0.597315 -0.18862,-0.188626 -0.59731,-0.282939 -0.40869,-0.09431 -1.10032,-0.125751 -0.66019,-0.03144 -1.63476,-0.12575 -0.78594,-0.06288 -1.44613,-0.188626 z"
         style="font-style:normal;font-variant:normal;font-weight:normal;font-stretch:normal;font-family:Kievit;-inkscape-font-specification:Kievit;fill:#c9cbc8;fill-opacity:1;stroke-width:0.01082064"
         id="path980" /><path
         d="m 162.31618,0.52916036 q -0.25151,-0.15718825 -0.69163,-0.28293885 -0.44013,-0.15718826 -1.1632,-0.15718826 -1.16319,0 -1.91769,0.56587772 Q 157.82059,1.189351 157.4119,1.818104 v 9.305545 h -5.65877 V -4.3751131 h 5.65877 v 1.8548213 q 0.53444,-0.9116918 1.44613,-1.5718825 0.94313,-0.6601907 2.32639,-0.6601907 0.97457,0 1.54045,0.1571883 0.56587,0.1571883 0.91169,0.3458142 z"
         style="font-style:normal;font-variant:normal;font-weight:normal;font-stretch:normal;font-family:Kievit;-inkscape-font-specification:Kievit;fill:#c9cbc8;fill-opacity:1;stroke-width:0.01082064"
         id="path982" /><path
         d="m 173.44192,11.123649 q -0.12575,-0.282939 -0.22006,-0.723066 -0.0629,-0.4401274 -0.0943,-0.7859416 -0.2515,0.3143765 -0.62876,0.6601906 -0.37725,0.314377 -0.91169,0.597315 -0.503,0.282939 -1.16319,0.440128 -0.62875,0.188625 -1.41469,0.188625 -1.00601,0 -1.88626,-0.282938 -0.88026,-0.282939 -1.54045,-0.848817 -0.66019,-0.5658777 -1.03744,-1.4146943 -0.37725,-0.8488165 -0.37725,-1.9805719 0,-1.4775696 0.66019,-2.5464498 0.69163,-1.0688801 1.82338,-1.7290707 1.13176,-0.6916284 2.60933,-1.0060049 1.509,-0.3143765 3.14376,-0.3143765 h 0.44013 V 0.90641217 q 0,-0.66019066 -0.40869,-1.00600482 -0.40869,-0.34581416 -1.6662,-0.34581416 -0.69162,0 -1.32038,0.15718826 -0.59731,0.15718825 -1.10032,0.3772518 -0.503,0.18862591 -0.88025,0.44012711 -0.34581,0.22006356 -0.56588,0.34581416 l -2.26351,-3.33239102 q 0.37725,-0.3458141 1.00601,-0.7230659 0.62875,-0.4086895 1.47757,-0.7545036 0.88025,-0.3458142 1.94913,-0.5658777 1.10032,-0.2515013 2.4207,-0.2515013 3.6782,0 5.31296,1.4146943 1.6662,1.3832567 1.6662,4.7785229 v 4.3069582 q 0,1.886259 0.15719,3.2066403 0.15718,1.2889433 0.34581,2.1691983 z m -0.59731,-6.4761564 h -0.44013 q -1.35182,0 -2.1692,0.4401271 -0.81738,0.4401271 -0.81738,1.351819 0,1.1946307 1.54045,1.1946307 0.72307,0 1.16319,-0.2200635 0.44013,-0.2515012 0.72307,-0.5030024 z"
         style="font-style:normal;font-variant:normal;font-weight:normal;font-stretch:normal;font-family:Kievit;-inkscape-font-specification:Kievit;fill:#c9cbc8;fill-opacity:1;stroke-width:0.01082064"
         id="path984" /><path
         d="m 194.45382,10.243394 q -0.28294,0.157189 -0.72307,0.377252 -0.40869,0.220064 -1.00601,0.40869 -0.59731,0.188626 -1.41469,0.314376 -0.81738,0.157188 -1.9177,0.157188 -1.98057,0 -3.58389,-0.53444 -1.60332,-0.53444 -2.76651,-1.5404445 -1.13176,-1.0374425 -1.76051,-2.5464497 -0.62875,-1.5090072 -0.62875,-3.4581416 0,-1.9491343 0.62875,-3.45814155 0.66019,-1.54044485 1.82338,-2.57788735 1.1632,-1.0374425 2.79795,-1.5718825 1.63476,-0.5658778 3.61533,-0.5658778 1.88626,0 3.04946,0.3458142 1.16319,0.3458142 1.69763,0.6916283 l -1.54045,3.74108045 q -0.47156,-0.2515012 -1.19463,-0.44012711 -0.72306,-0.1886259 -1.72907,-0.1886259 -1.47757,0 -2.32638,0.97456717 -0.84882,0.97456719 -0.84882,2.86082619 0,1.9176967 0.81738,2.9865768 0.81738,1.0688802 2.48357,1.0688802 1.22607,0 1.9177,-0.2515012 0.69163,-0.2829389 1.06888,-0.4401272 l 1.54045,3.6467671 z"
         style="font-style:normal;font-variant:normal;font-weight:normal;font-stretch:normal;font-family:Kievit;-inkscape-font-specification:Kievit;fill:#c9cbc8;fill-opacity:1;stroke-width:0.01082064"
         id="path986" /><path
         d="m 202.80541,-8.8078219 q 0,1.257506 -0.91169,2.2006356 -0.88025,0.9116918 -2.32638,0.9116918 -1.44614,0 -2.35783,-0.9116918 -0.88025,-0.9431296 -0.88025,-2.2006356 0,-1.2575061 0.88025,-2.1691981 0.91169,-0.911692 2.35783,-0.911692 1.44613,0 2.32638,0.911692 0.91169,0.911692 0.91169,2.1691981 z m -6.0989,19.9314709 V -4.3751131 h 5.72165 V 11.123649 Z"
         style="font-style:normal;font-variant:normal;font-weight:normal;font-stretch:normal;font-family:Kievit;-inkscape-font-specification:Kievit;fill:#c9cbc8;fill-opacity:1;stroke-width:0.01082064"
         id="path988" /><path
         d="m 221.50099,3.264236 q 0,1.5718825 -0.503,3.0494521 -0.503,1.4775696 -1.50901,2.6407626 -1.006,1.1317553 -2.57789,1.8548213 -1.54044,0.691628 -3.61533,0.691628 -2.07488,0 -3.61533,-0.66019 -1.54044,-0.660191 -2.57788,-1.7605087 -1.00601,-1.1317554 -1.50901,-2.5778873 -0.503,-1.4775696 -0.503,-3.0494521 0,-1.6033202 0.503,-3.08088979 0.503,-1.47756961 1.50901,-2.60932501 1.03744,-1.1317554 2.57788,-1.8233837 1.54045,-0.6916284 3.61533,-0.6916284 2.07489,0 3.61533,0.6601907 1.54045,0.6601907 2.54645,1.7605085 1.03745,1.1003177 1.54045,2.54644966 0.503,1.44613194 0.503,3.04945214 z m -6.00459,0.1886259 q 0,-1.9491344 -0.47156,-3.04945214 -0.44013,-1.13175542 -1.79195,-1.13175542 -1.35182,0 -1.76051,1.03744247 -0.40869,1.03744249 -0.40869,2.95513919 0,1.9176967 0.47157,3.0494521 0.503,1.1003178 1.85482,1.1003178 1.35182,0 1.72907,-1.0060049 0.37725,-1.0374424 0.37725,-2.9551391 z"
         style="font-style:normal;font-variant:normal;font-weight:normal;font-stretch:normal;font-family:Kievit;-inkscape-font-specification:Kievit;fill:#c9cbc8;fill-opacity:1;stroke-width:0.01082064"
         id="path990" /><path
         d="M 233.23854,11.123649 V 1.5980405 q 0,-0.94312953 -0.37725,-1.32038134 -0.34582,-0.40868946 -1.1632,-0.40868946 -0.81737,0 -1.38325,0.50300241 -0.56588,0.47156476 -0.81738,0.75450359 v 9.9971733 h -5.65878 V -4.3751131 h 5.53303 v 1.7605084 q 0.34581,-0.3772518 0.78594,-0.7545036 0.44013,-0.3772518 1.03744,-0.6916283 0.59732,-0.3143765 1.32038,-0.5030024 0.75451,-0.188626 1.6662,-0.188626 1.32038,0 2.20063,0.4086895 0.9117,0.3772518 1.44614,1.0688801 0.56587,0.6916283 0.81737,1.6347579 0.25151,0.94312949 0.25151,2.04344726 V 11.123649 Z"
         style="font-style:normal;font-variant:normal;font-weight:normal;font-stretch:normal;font-family:Kievit;-inkscape-font-specification:Kievit;fill:#c9cbc8;fill-opacity:1;stroke-width:0.01082064"
         id="path992" /><path
         d="m 247.20077,5.150495 q 0.47157,2.3263862 3.23808,2.3263862 0.78594,0 1.35182,-0.062875 0.59732,-0.094313 1.03744,-0.2200636 0.44013,-0.1257506 0.78595,-0.2515012 0.34581,-0.1571883 0.66019,-0.2829389 l 1.66619,3.3952668 q -0.44013,0.251501 -0.97457,0.503002 -0.53444,0.251501 -1.2575,0.471565 -0.69163,0.188626 -1.63476,0.314376 -0.94313,0.157188 -2.23207,0.157188 -4.11833,0 -6.41328,-2.1377598 -2.29495,-2.1377602 -2.29495,-6.0360289 0,-1.9176967 0.66019,-3.42670395 0.66019,-1.50900725 1.76051,-2.54644975 1.13175,-1.0374424 2.60932,-1.5718825 1.47757,-0.5344401 3.14377,-0.5344401 4.02402,0 5.81596,2.5464498 1.79195,2.51501201 1.35182,7.3564102 h -9.27411 z m 3.89827,-3.6467675 q -0.0314,-1.06888009 -0.44012,-1.72907075 -0.40869,-0.69162832 -1.4147,-0.69162832 -1.85482,0 -2.23207,2.42069907 z"
         style="font-style:normal;font-variant:normal;font-weight:normal;font-stretch:normal;font-family:Kievit;-inkscape-font-specification:Kievit;fill:#c9cbc8;fill-opacity:1;stroke-width:0.01082064"
         id="path994" /><path
         d="m 270.4951,6.2193751 q 0,2.703638 -1.76051,3.9925819 -1.72907,1.288943 -4.87283,1.288943 -2.35783,0 -3.80396,-0.503002 -1.41469,-0.503002 -2.13776,-0.974567 l 1.72907,-3.8353935 q 0.22007,0.1571882 0.62875,0.3772518 0.40869,0.2200635 0.9117,0.4401271 0.503,0.1886259 1.06888,0.3458142 0.59731,0.1257506 1.19463,0.1257506 2.07488,0 2.07488,-0.7859413 0,-0.2829389 -0.37725,-0.4401271 -0.34581,-0.1886259 -0.97457,-0.3772518 -0.59731,-0.1886259 -1.38325,-0.4086895 -0.75451,-0.2515012 -1.57189,-0.6916283 -1.44613,-0.7545036 -2.13776,-1.7605084 -0.69162,-1.0374425 -0.69162,-2.64076269 0,-1.22606838 0.47156,-2.16919791 0.47157,-0.9745672 1.32038,-1.6033202 0.84882,-0.6601906 2.04345,-1.0060048 1.19463,-0.3458142 2.60932,-0.3458142 2.07489,0 3.33239,0.3772519 1.28895,0.3458141 1.9177,0.6916283 l -1.72907,3.77251805 q -0.47156,-0.2515012 -1.35182,-0.53444006 -0.84881,-0.28293885 -1.85482,-0.28293885 -1.006,0 -1.41469,0.22006355 -0.37726,0.22006356 -0.37726,0.56587771 0,0.28293886 0.25151,0.44012711 0.28293,0.15718826 0.72306,0.31437651 0.47157,0.1257506 1.06888,0.31437648 0.62875,0.1571883 1.28895,0.4086895 0.88025,0.3458141 1.57188,0.7545036 0.72306,0.4086895 1.22607,0.9745672 0.503,0.53444 0.7545,1.257506 0.2515,0.723066 0.2515,1.6976331 z"
         style="font-style:normal;font-variant:normal;font-weight:normal;font-stretch:normal;font-family:Kievit;-inkscape-font-specification:Kievit;fill:#c9cbc8;fill-opacity:1;stroke-width:0.01082064"
         id="path996" /><path
         d="m 276.67604,-4.3751131 h 5.94172 l 2.76651,8.5824786 h 0.12575 l 2.29495,-8.5824786 h 5.75309 L 287.30197,12.44403 q -0.59732,1.60332 -1.28895,2.735076 -0.69163,1.163193 -1.60332,1.917696 -0.91169,0.754504 -2.1692,1.100318 -1.22607,0.345814 -2.9237,0.345814 -1.28894,0 -2.07488,-0.157188 -0.75451,-0.125751 -1.03745,-0.220064 l 0.81738,-4.401271 q 0.15719,0.06288 0.53444,0.125751 0.40869,0.09431 1.22607,0.09431 0.81738,0 1.35182,-0.157188 0.56588,-0.157189 0.91169,-0.440128 0.34582,-0.282938 0.56588,-0.66019 0.22006,-0.377252 0.37725,-0.817379 l 0.47157,-1.288944 z"
         style="font-style:normal;font-variant:normal;font-weight:normal;font-stretch:normal;font-family:Kievit;-inkscape-font-specification:Kievit;fill:#c9cbc8;fill-opacity:1;stroke-width:0.01082064"
         id="path998" /><path
         d="m 307.34692,11.123649 h -5.62734 V -0.2567809 h -2.13776 v -4.1183322 h 2.13776 v -1.0374425 q 0,-1.4461319 0.40869,-2.6407627 0.40869,-1.1946307 1.22607,-2.0434477 0.81738,-0.848816 2.01201,-1.320381 1.19463,-0.471565 2.76651,-0.471565 2.10632,0 3.20664,0.377252 1.10032,0.345814 1.44613,0.565878 l -1.2575,4.0868945 q -0.2515,-0.094313 -0.78594,-0.2829389 -0.50301,-0.1886259 -1.4147,-0.1886259 -1.10032,0 -1.54044,0.5973154 -0.44013,0.5658777 -0.44013,1.7605084 v 0.5973154 h 3.52102 v 4.1183322 h -3.52102 z"
         style="font-style:normal;font-variant:normal;font-weight:normal;font-stretch:normal;font-family:Kievit;-inkscape-font-specification:Kievit;fill:#c9cbc8;fill-opacity:1;stroke-width:0.01082064"
         id="path1000" /><path
         d="m 323.64906,0.52916036 q -0.2515,-0.15718825 -0.69163,-0.28293885 -0.44012,-0.15718826 -1.16319,-0.15718826 -1.16319,0 -1.9177,0.56587772 -0.72306,0.53444003 -1.13175,1.16319303 v 9.305545 h -5.65878 V -4.3751131 h 5.65878 v 1.8548213 q 0.53444,-0.9116918 1.44613,-1.5718825 0.94313,-0.6601907 2.32639,-0.6601907 0.97456,0 1.54044,0.1571883 0.56588,0.1571883 0.91169,0.3458142 z"
         style="font-style:normal;font-variant:normal;font-weight:normal;font-stretch:normal;font-family:Kievit;-inkscape-font-specification:Kievit;fill:#c9cbc8;fill-opacity:1;stroke-width:0.01082064"
         id="path1002" /><path
         d="m 341.69476,3.264236 q 0,1.5718825 -0.503,3.0494521 -0.503,1.4775696 -1.50901,2.6407626 -1.006,1.1317553 -2.57788,1.8548213 -1.54045,0.691628 -3.61533,0.691628 -2.07489,0 -3.61533,-0.66019 -1.54045,-0.660191 -2.57789,-1.7605087 -1.00601,-1.1317554 -1.50901,-2.5778873 -0.503,-1.4775696 -0.503,-3.0494521 0,-1.6033202 0.503,-3.08088979 0.503,-1.47756961 1.50901,-2.60932501 1.03744,-1.1317554 2.57789,-1.8233837 1.54044,-0.6916284 3.61533,-0.6916284 2.07488,0 3.61533,0.6601907 1.54044,0.6601907 2.54645,1.7605085 1.03744,1.1003177 1.54044,2.54644966 0.503,1.44613194 0.503,3.04945214 z m -6.00459,0.1886259 q 0,-1.9491344 -0.47156,-3.04945214 -0.44013,-1.13175542 -1.79195,-1.13175542 -1.35182,0 -1.76051,1.03744247 -0.40869,1.03744249 -0.40869,2.95513919 0,1.9176967 0.47157,3.0494521 0.503,1.1003178 1.85482,1.1003178 1.35182,0 1.72907,-1.0060049 0.37725,-1.0374424 0.37725,-2.9551391 z"
         style="font-style:normal;font-variant:normal;font-weight:normal;font-stretch:normal;font-family:Kievit;-inkscape-font-specification:Kievit;fill:#c9cbc8;fill-opacity:1;stroke-width:0.01082064"
         id="path1004" /><path
         d="M 353.46298,11.123649 V 1.5980405 q 0,-0.94312953 -0.37725,-1.32038134 -0.34582,-0.40868946 -1.16319,-0.40868946 -0.81738,0 -1.38326,0.50300241 -0.56588,0.47156476 -0.81738,0.75450359 v 9.9971733 h -5.65878 V -4.3751131 h 5.53303 v 1.7605084 q 0.34581,-0.3772518 0.78594,-0.7545036 0.44013,-0.3772518 1.03744,-0.6916283 0.59732,-0.3143765 1.32038,-0.5030024 0.75451,-0.188626 1.6662,-0.188626 1.32038,0 2.20064,0.4086895 0.91169,0.3772518 1.44613,1.0688801 0.56588,0.6916283 0.81738,1.6347579 0.2515,0.94312949 0.2515,2.04344726 V 11.123649 Z"
         style="font-style:normal;font-variant:normal;font-weight:normal;font-stretch:normal;font-family:Kievit;-inkscape-font-specification:Kievit;fill:#c9cbc8;fill-opacity:1;stroke-width:0.01082064"
         id="path1006" /><path
         d="m 361.10626,-0.2567809 v -4.1183322 h 2.38927 v -4.4955841 h 5.62733 v 4.4955841 h 3.42671 v 4.1183322 h -3.42671 v 5.0928994 q 0,1.1317554 0.28294,1.6347578 0.31438,0.4715648 1.06888,0.4715648 0.69163,0 1.19463,-0.1571883 0.53444,-0.1886259 0.78595,-0.3143765 l 1.10031,4.1812077 q -0.59731,0.282939 -1.69763,0.565878 -1.06888,0.282938 -2.6722,0.282938 -1.6662,0 -2.76651,-0.377251 -1.10032,-0.40869 -1.76051,-1.100318 -0.62875,-0.7230661 -0.91169,-1.6976333 -0.2515,-1.0060048 -0.2515,-2.2320732 v -6.3504054 z"
         style="font-style:normal;font-variant:normal;font-weight:normal;font-stretch:normal;font-family:Kievit;-inkscape-font-specification:Kievit;fill:#c9cbc8;fill-opacity:1;stroke-width:0.01082064"
         id="path1008" /><path
         d="m 380.41168,5.150495 q 0.47157,2.3263862 3.23808,2.3263862 0.78594,0 1.35182,-0.062875 0.59731,-0.094313 1.03744,-0.2200636 0.44013,-0.1257506 0.78594,-0.2515012 0.34582,-0.1571883 0.66019,-0.2829389 l 1.6662,3.3952668 q -0.44013,0.251501 -0.97457,0.503002 -0.53444,0.251501 -1.2575,0.471565 -0.69163,0.188626 -1.63476,0.314376 -0.94313,0.157188 -2.23208,0.157188 -4.11833,0 -6.41328,-2.1377598 -2.29494,-2.1377602 -2.29494,-6.0360289 0,-1.9176967 0.66019,-3.42670395 0.66019,-1.50900725 1.7605,-2.54644975 1.13176,-1.0374424 2.60933,-1.5718825 1.47757,-0.5344401 3.14376,-0.5344401 4.02402,0 5.81597,2.5464498 1.79195,2.51501201 1.35182,7.3564102 h -9.27411 z m 3.89827,-3.6467675 q -0.0314,-1.06888009 -0.44013,-1.72907075 -0.40869,-0.69162832 -1.41469,-0.69162832 -1.85482,0 -2.23207,2.42069907 z"
         style="font-style:normal;font-variant:normal;font-weight:normal;font-stretch:normal;font-family:Kievit;-inkscape-font-specification:Kievit;fill:#c9cbc8;fill-opacity:1;stroke-width:0.01082064"
         id="path1010" /><path
         d="m 402.88789,0.52916036 q -0.2515,-0.15718825 -0.69163,-0.28293885 -0.44012,-0.15718826 -1.16319,-0.15718826 -1.16319,0 -1.9177,0.56587772 -0.72306,0.53444003 -1.13175,1.16319303 v 9.305545 h -5.65878 V -4.3751131 h 5.65878 v 1.8548213 q 0.53444,-0.9116918 1.44613,-1.5718825 0.94313,-0.6601907 2.32639,-0.6601907 0.97456,0 1.54044,0.1571883 0.56588,0.1571883 0.91169,0.3458142 z"
         style="font-style:normal;font-variant:normal;font-weight:normal;font-stretch:normal;font-family:Kievit;-inkscape-font-specification:Kievit;fill:#c9cbc8;fill-opacity:1;stroke-width:0.01082064"
         id="path1012" /><path
         d="m 414.01363,11.123649 q -0.12576,-0.282939 -0.22007,-0.723066 -0.0629,-0.4401274 -0.0943,-0.7859416 -0.2515,0.3143765 -0.62875,0.6601906 -0.37726,0.314377 -0.9117,0.597315 -0.503,0.282939 -1.16319,0.440128 -0.62875,0.188625 -1.41469,0.188625 -1.00601,0 -1.88626,-0.282938 -0.88026,-0.282939 -1.54045,-0.848817 -0.66019,-0.5658777 -1.03744,-1.4146943 -0.37725,-0.8488165 -0.37725,-1.9805719 0,-1.4775696 0.66019,-2.5464498 0.69163,-1.0688801 1.82338,-1.7290707 1.13176,-0.6916284 2.60933,-1.0060049 1.509,-0.3143765 3.14376,-0.3143765 h 0.44013 V 0.90641217 q 0,-0.66019066 -0.40869,-1.00600482 -0.40869,-0.34581416 -1.6662,-0.34581416 -0.69162,0 -1.32038,0.15718826 -0.59731,0.15718825 -1.10031,0.3772518 -0.50301,0.18862591 -0.88026,0.44012711 -0.34581,0.22006356 -0.56588,0.34581416 l -2.26351,-3.33239102 q 0.37725,-0.3458141 1.00601,-0.7230659 0.62875,-0.4086895 1.47757,-0.7545036 0.88025,-0.3458142 1.94913,-0.5658777 1.10032,-0.2515013 2.4207,-0.2515013 3.67821,0 5.31296,1.4146943 1.6662,1.3832567 1.6662,4.7785229 v 4.3069582 q 0,1.886259 0.15719,3.2066403 0.15719,1.2889433 0.34581,2.1691983 z m -0.59732,-6.4761564 h -0.44013 q -1.35182,0 -2.1692,0.4401271 -0.81737,0.4401271 -0.81737,1.351819 0,1.1946307 1.54044,1.1946307 0.72307,0 1.16319,-0.2200635 0.44013,-0.2515012 0.72307,-0.5030024 z"
         style="font-style:normal;font-variant:normal;font-weight:normal;font-stretch:normal;font-family:Kievit;-inkscape-font-specification:Kievit;fill:#c9cbc8;fill-opacity:1;stroke-width:0.01082064"
         id="path1014" /><path
         d="m 433.51652,6.2193751 q 0,2.703638 -1.7605,3.9925819 -1.72907,1.288943 -4.87284,1.288943 -2.35782,0 -3.80396,-0.503002 -1.41469,-0.503002 -2.13776,-0.974567 l 1.72907,-3.8353935 q 0.22007,0.1571882 0.62876,0.3772518 0.40869,0.2200635 0.91169,0.4401271 0.503,0.1886259 1.06888,0.3458142 0.59732,0.1257506 1.19463,0.1257506 2.07489,0 2.07489,-0.7859413 0,-0.2829389 -0.37726,-0.4401271 -0.34581,-0.1886259 -0.97456,-0.3772518 -0.59732,-0.1886259 -1.38326,-0.4086895 -0.7545,-0.2515012 -1.57188,-0.6916283 -1.44613,-0.7545036 -2.13776,-1.7605084 -0.69163,-1.0374425 -0.69163,-2.64076269 0,-1.22606838 0.47156,-2.16919791 0.47157,-0.9745672 1.32039,-1.6033202 0.84881,-0.6601906 2.04344,-1.0060048 1.19463,-0.3458142 2.60933,-0.3458142 2.07488,0 3.33239,0.3772519 1.28894,0.3458141 1.91769,0.6916283 l -1.72907,3.77251805 q -0.47156,-0.2515012 -1.35181,-0.53444006 -0.84882,-0.28293885 -1.85483,-0.28293885 -1.006,0 -1.41469,0.22006355 -0.37725,0.22006356 -0.37725,0.56587771 0,0.28293886 0.2515,0.44012711 0.28294,0.15718826 0.72306,0.31437651 0.47157,0.1257506 1.06889,0.31437648 0.62875,0.1571883 1.28894,0.4086895 0.88025,0.3458141 1.57188,0.7545036 0.72307,0.4086895 1.22607,0.9745672 0.503,0.53444 0.7545,1.257506 0.2515,0.723066 0.2515,1.6976331 z"
         style="font-style:normal;font-variant:normal;font-weight:normal;font-stretch:normal;font-family:Kievit;-inkscape-font-specification:Kievit;fill:#c9cbc8;fill-opacity:1;stroke-width:0.01082064"
         id="path1016" /></g></g></g>

</g></svg>