<?xml version="1.0" encoding="UTF-8" standalone="no"?>
<!-- Generator: Adobe Illustrator 23.0.3, SVG Export Plug-In . SVG Version: 6.00 Build 0)  -->

<svg
   xmlns:dc="http://purl.org/dc/elements/1.1/"
   xmlns:cc="http://creativecommons.org/ns#"
   xmlns:rdf="http://www.w3.org/1999/02/22-rdf-syntax-ns#"
   xmlns:svg="http://www.w3.org/2000/svg"
   xmlns="http://www.w3.org/2000/svg"
   xmlns:sodipodi="http://sodipodi.sourceforge.net/DTD/sodipodi-0.dtd"
   xmlns:inkscape="http://www.inkscape.org/namespaces/inkscape"
   version="1.1"
   id="Capa_12"
   x="0px"
   y="0px"
   viewBox="0 0 2303.1 1080"
   style="enable-background:new 0 0 2303.1 1080;"
   xml:space="preserve"
   sodipodi:docname="ruta.svg"
   inkscape:version="0.92.4 (unknown)"><metadata
   id="metadata1007"><rdf:RDF><cc:Work
       rdf:about=""><dc:format>image/svg+xml</dc:format><dc:type
         rdf:resource="http://purl.org/dc/dcmitype/StillImage" /><dc:title /></cc:Work></rdf:RDF></metadata><defs
   id="defs1005" /><sodipodi:namedview
   pagecolor="#ffffff"
   bordercolor="#666666"
   borderopacity="1"
   objecttolerance="10"
   gridtolerance="10"
   guidetolerance="10"
   inkscape:pageopacity="0"
   inkscape:pageshadow="2"
   inkscape:window-width="1920"
   inkscape:window-height="983"
   id="namedview1003"
   showgrid="false"
   inkscape:zoom="0.38500797"
   inkscape:cx="1210.9702"
   inkscape:cy="507.26834"
   inkscape:window-x="0"
   inkscape:window-y="34"
   inkscape:window-maximized="1"
   inkscape:current-layer="text1011" />
<style
   type="text/css"
   id="style948">
	.st0{fill:#1D1D1B;}
</style>

<g
   aria-label="COLECCION DE MAPAS"
   style="font-style:normal;font-weight:normal;font-size:239.03622437px;line-height:1.25;font-family:sans-serif;letter-spacing:0px;word-spacing:0px;fill:#000000;fill-opacity:1;stroke:none;stroke-width:0.22118266"
   id="text1011"
   transform="matrix(4.5211502,0,0,4.5211502,231.39642,920.52364)"><g
   aria-label="#LARUTA"
   style="font-style:normal;font-weight:normal;font-size:89.22472382px;line-height:1.25;font-family:sans-serif;letter-spacing:0px;word-spacing:0px;fill:#f5f2c7;fill-opacity:1;stroke:none;stroke-width:0.22118264"
   id="text1901"
   transform="translate(-1.7694612,-5.3083837)"><path
     d="m 0.05828915,-135.05446 -1.87371925,11.15309 h -6.2457306 l -0.8030225,5.53193 h 6.4241801 l -1.8737192,11.15309 h -6.2457307 l -1.427596,9.814724 h -10.528517 l 1.51682,-9.814724 h -5.710382 l -1.51682,9.814724 h -10.528518 l 1.516821,-9.814724 h -7.405652 l 1.873719,-11.15309 h 7.227202 l 0.803023,-5.53193 h -7.227203 l 1.784495,-11.15309 h 7.137978 l 1.606045,-10.17162 h 10.528517 l -1.606045,10.17162 h 5.621158 l 1.606045,-10.17162 h 10.5285171 l -1.6060451,10.17162 z m -24.53679915,10.70697 -0.981472,6.42418 h 6.42418 l 0.981472,-6.42418 z"
     style="font-style:normal;font-variant:normal;font-weight:normal;font-stretch:normal;font-family:Kievit;-inkscape-font-specification:Kievit;fill:#f5f2c7;fill-opacity:1;stroke-width:0.22118264"
     id="path911"
     inkscape:connector-curvature="0" /><path
     d="M 7.3970229,-90.798996 V -150.22266 H 24.52817 v 45.95073 h 21.146259 v 13.472934 z"
     style="font-style:normal;font-variant:normal;font-weight:normal;font-stretch:normal;font-family:Kievit;-inkscape-font-specification:Kievit;fill:#f5f2c7;fill-opacity:1;stroke-width:0.22118264"
     id="path913"
     inkscape:connector-curvature="0" /><path
     d="M 67.523332,-90.798996 H 50.30296 l 22.66308,-59.423664 h 16.328125 l 23.555325,59.423664 H 94.290749 L 91.435558,-99.18612 H 70.289299 Z m 16.06045,-31.050204 q -0.713797,-1.96294 -1.249146,-3.74744 -0.446123,-1.87372 -0.803022,-3.39054 -0.356899,-1.69527 -0.713798,-3.21209 h -0.178449 q -0.356899,1.60605 -0.713798,3.30132 -0.356899,1.51682 -0.892247,3.39054 -0.535349,1.78449 -1.159922,3.65821 l -3.122865,9.3686 h 12.045337 z"
     style="font-style:normal;font-variant:normal;font-weight:normal;font-stretch:normal;font-family:Kievit;-inkscape-font-specification:Kievit;fill:#f5f2c7;fill-opacity:1;stroke-width:0.22118264"
     id="path915"
     inkscape:connector-curvature="0" /><path
     d="m 153.42025,-90.798996 -10.08239,-16.952694 q -1.0707,-1.69527 -1.7845,-2.67675 -0.7138,-1.07069 -1.33837,-1.60604 -0.62457,-0.53535 -1.15992,-0.7138 -0.53535,-0.17845 -1.24915,-0.17845 h -0.62457 v 22.127734 h -17.04192 v -59.423664 h 22.7523 q 11.42077,0 17.57727,4.55046 6.15651,4.55046 6.15651,13.56216 0,3.65821 -1.0707,6.42418 -0.98147,2.67674 -2.67674,4.63968 -1.60604,1.96295 -3.74744,3.30132 -2.05217,1.24914 -4.10433,1.96294 v 0.17845 q 1.51682,1.0707 3.30131,3.30132 1.87372,2.14139 4.19356,6.06728 l 9.19015,15.435874 z m -3.47976,-40.151124 q 0,-3.39054 -1.87372,-4.99659 -1.7845,-1.69527 -6.06728,-1.69527 h -4.81814 v 13.29449 h 5.35348 q 3.74744,0 5.53194,-1.69527 1.87372,-1.7845 1.87372,-4.90736 z"
     style="font-style:normal;font-variant:normal;font-weight:normal;font-stretch:normal;font-family:Kievit;-inkscape-font-specification:Kievit;fill:#f5f2c7;fill-opacity:1;stroke-width:0.22118264"
     id="path917"
     inkscape:connector-curvature="0" /><path
     d="m 230.12006,-116.22804 q 0,13.20526 -6.60263,19.897111 -6.51341,6.60263 -19.18332,6.60263 -13.56216,0 -20.43246,-5.978057 -6.78108,-6.067284 -6.78108,-18.737194 v -35.77911 h 17.04192 v 34.61919 q 0,3.12287 0.53535,5.44271 0.53535,2.31984 1.69527,3.83666 1.24915,1.4276 3.21209,2.1414 2.05217,0.71379 5.08581,0.71379 5.53193,0 7.67333,-2.94441 2.14139,-3.03364 2.14139,-8.83325 v -34.97609 h 15.61433 z"
     style="font-style:normal;font-variant:normal;font-weight:normal;font-stretch:normal;font-family:Kievit;-inkscape-font-specification:Kievit;fill:#f5f2c7;fill-opacity:1;stroke-width:0.22118264"
     id="path919"
     inkscape:connector-curvature="0" /><path
     d="m 270.30463,-136.39283 v 45.593834 h -17.04192 v -45.593834 h -15.97122 v -13.82983 h 48.98437 v 13.82983 z"
     style="font-style:normal;font-variant:normal;font-weight:normal;font-stretch:normal;font-family:Kievit;-inkscape-font-specification:Kievit;fill:#f5f2c7;fill-opacity:1;stroke-width:0.22118264"
     id="path921"
     inkscape:connector-curvature="0" /><path
     d="M 301.30257,-90.798996 H 284.0822 l 22.66308,-59.423664 h 16.32812 l 23.55533,59.423664 h -18.55874 l -2.8552,-8.387124 h -21.14626 z m 16.06045,-31.050204 q -0.7138,-1.96294 -1.24915,-3.74744 -0.44612,-1.87372 -0.80302,-3.39054 -0.3569,-1.69527 -0.7138,-3.21209 h -0.17845 q -0.3569,1.60605 -0.7138,3.30132 -0.35689,1.51682 -0.89224,3.39054 -0.53535,1.78449 -1.15992,3.65821 l -3.12287,9.3686 h 12.04534 z"
     style="font-style:normal;font-variant:normal;font-weight:normal;font-stretch:normal;font-family:Kievit;-inkscape-font-specification:Kievit;fill:#f5f2c7;fill-opacity:1;stroke-width:0.22118264"
     id="path923"
     inkscape:connector-curvature="0" /></g>
<g
   aria-label="DELDINERO"
   style="font-style:normal;font-weight:normal;font-size:89.22472382px;line-height:1.25;font-family:sans-serif;letter-spacing:0px;word-spacing:0px;fill:#f5f2c7;fill-opacity:1;stroke:none;stroke-width:0.22118264"
   id="text1909"
   transform="translate(-1.7694612,-5.3083837)"><path
     d="m 15.048043,-49.71262 q 0,6.42418 -2.141394,12.045338 -2.052168,5.531933 -6.4241797,9.725495 -4.2827868,4.104337 -10.7961916,6.513405 -6.5134047,2.319842 -15.3466527,2.319842 h -20.700136 v -59.423666 h 21.235485 q 8.744022,0 15.1682026,2.141394 6.4241801,2.052168 10.6177421,5.888832 4.2827863,3.747438 6.3349553,9.100921 2.052169,5.264259 2.052169,11.688439 z m -18.0233945,0.535348 q 0,-8.387124 -3.8366631,-12.134562 -3.7474384,-3.747438 -11.9561134,-3.747438 h -4.55046 v 32.477799 h 4.996584 q 7.851776,0 11.5992141,-4.193562 3.7474384,-4.193562 3.7474384,-12.402237 z"
     style="font-style:normal;font-variant:normal;font-weight:normal;font-stretch:normal;font-family:Kievit;-inkscape-font-specification:Kievit;fill:#f5f2c7;fill-opacity:1;stroke-width:0.22118264"
     id="path892"
     inkscape:connector-curvature="0" /><path
     d="m 24.641091,-19.10854 v -59.423666 h 37.295935 v 13.829833 H 41.41534 v 8.922472 h 18.112618 v 12.84836 H 41.41534 v 9.993169 h 21.146259 v 13.829832 z"
     style="font-style:normal;font-variant:normal;font-weight:normal;font-stretch:normal;font-family:Kievit;-inkscape-font-specification:Kievit;fill:#f5f2c7;fill-opacity:1;stroke-width:0.22118264"
     id="path894"
     inkscape:connector-curvature="0" /><path
     d="m 74.315564,-19.10854 v -59.423666 h 17.131147 v 45.950733 h 21.146259 v 13.472933 z"
     style="font-style:normal;font-variant:normal;font-weight:normal;font-stretch:normal;font-family:Kievit;-inkscape-font-specification:Kievit;fill:#f5f2c7;fill-opacity:1;stroke-width:0.22118264"
     id="path896"
     inkscape:connector-curvature="0" /><path
     d="m 178.162,-49.71262 q 0,6.42418 -2.1414,12.045338 -2.05217,5.531933 -6.42418,9.725495 -4.28278,4.104337 -10.79619,6.513405 -6.5134,2.319842 -15.34665,2.319842 h -20.70014 v -59.423666 h 21.23549 q 8.74402,0 15.1682,2.141394 6.42418,2.052168 10.61774,5.888832 4.28279,3.747438 6.33496,9.100921 2.05217,5.264259 2.05217,11.688439 z m -18.0234,0.535348 q 0,-8.387124 -3.83666,-12.134562 -3.74744,-3.747438 -11.95611,-3.747438 h -4.55047 v 32.477799 h 4.99659 q 7.85177,0 11.59921,-4.193562 3.74744,-4.193562 3.74744,-12.402237 z"
     style="font-style:normal;font-variant:normal;font-weight:normal;font-stretch:normal;font-family:Kievit;-inkscape-font-specification:Kievit;fill:#f5f2c7;fill-opacity:1;stroke-width:0.22118264"
     id="path898"
     inkscape:connector-curvature="0" /><path
     d="m 188.29038,-19.10854 v -59.423666 h 17.13114 v 59.423666 z"
     style="font-style:normal;font-variant:normal;font-weight:normal;font-stretch:normal;font-family:Kievit;-inkscape-font-specification:Kievit;fill:#f5f2c7;fill-opacity:1;stroke-width:0.22118264"
     id="path900"
     inkscape:connector-curvature="0" /><path
     d="m 259.61857,-19.10854 -18.20184,-25.607495 q -1.69527,-2.319843 -2.94442,-4.104338 -1.15992,-1.873719 -1.96294,-3.122865 -0.98147,-1.51682 -1.60604,-2.676742 h -0.17845 q 0,1.338371 0.0892,2.855192 0.0892,1.249146 0.0892,2.855191 0.0892,1.606045 0.0892,3.301314 V -19.10854 H 219.6459 v -59.423666 h 17.22037 l 16.2389,23.287653 q 1.51682,2.319843 2.76597,4.282787 1.33837,1.962944 2.23061,3.479764 0.98148,1.69527 1.87372,3.21209 h 0.17845 q -0.0892,-1.695269 -0.17845,-3.390539 -0.0892,-1.516821 -0.17845,-3.301315 0,-1.873719 0,-3.658214 v -23.912226 h 15.34666 v 59.423666 z"
     style="font-style:normal;font-variant:normal;font-weight:normal;font-stretch:normal;font-family:Kievit;-inkscape-font-specification:Kievit;fill:#f5f2c7;fill-opacity:1;stroke-width:0.22118264"
     id="path902"
     inkscape:connector-curvature="0" /><path
     d="m 287.95858,-19.10854 v -59.423666 h 37.29594 v 13.829833 h -20.52169 v 8.922472 h 18.11262 v 12.84836 h -18.11262 v 9.993169 h 21.14626 v 13.829832 z"
     style="font-style:normal;font-variant:normal;font-weight:normal;font-stretch:normal;font-family:Kievit;-inkscape-font-specification:Kievit;fill:#f5f2c7;fill-opacity:1;stroke-width:0.22118264"
     id="path904"
     inkscape:connector-curvature="0" /><path
     d="m 370.55697,-19.10854 -10.08239,-16.952697 q -1.0707,-1.69527 -1.7845,-2.676742 -0.7138,-1.070697 -1.33837,-1.606045 -0.62457,-0.535348 -1.15992,-0.713798 -0.53535,-0.178449 -1.24915,-0.178449 h -0.62457 v 22.127731 h -17.04192 v -59.423666 h 22.7523 q 11.42077,0 17.57727,4.550461 6.15651,4.550461 6.15651,13.562158 0,3.658214 -1.0707,6.42418 -0.98147,2.676742 -2.67674,4.639686 -1.60605,1.962944 -3.74744,3.301315 -2.05217,1.249146 -4.10434,1.962944 v 0.178449 q 1.51682,1.070697 3.30132,3.301315 1.87372,2.141393 4.19356,6.067281 l 9.19015,15.435877 z m -3.47977,-40.151125 q 0,-3.39054 -1.87371,-4.996585 -1.7845,-1.69527 -6.06729,-1.69527 h -4.81813 v 13.294484 h 5.35348 q 3.74744,0 5.53194,-1.695269 1.87371,-1.784495 1.87371,-4.90736 z"
     style="font-style:normal;font-variant:normal;font-weight:normal;font-stretch:normal;font-family:Kievit;-inkscape-font-specification:Kievit;fill:#f5f2c7;fill-opacity:1;stroke-width:0.22118264"
     id="path906"
     inkscape:connector-curvature="0" /><path
     d="m 455.10018,-49.266496 q 0,5.978056 -1.96295,11.599214 -1.87372,5.621157 -5.7996,9.993169 -3.83667,4.372011 -9.7255,7.048753 -5.88883,2.587517 -13.82983,2.587517 -7.941,0 -14.00828,-2.587517 -5.97806,-2.587517 -10.0824,-6.870304 -4.01511,-4.282786 -6.06728,-9.814719 -2.05217,-5.531933 -2.05217,-11.420765 0,-5.978056 1.96295,-11.509989 2.05217,-5.621158 5.97806,-9.903945 4.01511,-4.282786 9.99316,-6.870303 5.97806,-2.587517 13.91906,-2.587517 7.941,0 13.82983,2.587517 5.97806,2.498292 9.90395,6.691854 4.01511,4.193562 5.97805,9.725495 1.96295,5.442708 1.96295,11.33154 z m -17.93417,0.535348 q 0,-3.479764 -0.7138,-6.602629 -0.62457,-3.122866 -2.23062,-5.531933 -1.51682,-2.409068 -4.10433,-3.747439 -2.58752,-1.427595 -6.33496,-1.427595 -3.83666,0 -6.60263,1.338371 -2.67674,1.33837 -4.37201,3.658213 -1.69527,2.230618 -2.49829,5.264259 -0.7138,3.033641 -0.7138,6.513405 0,3.479764 0.7138,6.691854 0.80302,3.21209 2.40906,5.710382 1.69527,2.409068 4.28279,3.836664 2.67674,1.427595 6.42418,1.427595 3.83666,0 6.42418,-1.338371 2.67674,-1.427595 4.28279,-3.747438 1.60604,-2.409068 2.31984,-5.442708 0.7138,-3.122866 0.7138,-6.60263 z"
     style="font-style:normal;font-variant:normal;font-weight:normal;font-stretch:normal;font-family:Kievit;-inkscape-font-specification:Kievit;fill:#f5f2c7;fill-opacity:1;stroke-width:0.22118264"
     id="path908"
     inkscape:connector-curvature="0" /></g>
<g
   aria-label="Mapa de la evasión fiscal en Europa"
   style="font-style:normal;font-weight:normal;font-size:31.40548134px;line-height:1.25;font-family:sans-serif;letter-spacing:0px;word-spacing:0px;fill:#f5f2c7;fill-opacity:1;stroke:none;stroke-width:0.04892178"
   id="text19733"
   transform="translate(-1.7694612,-5.3083837)"><path
     d="m -29.012436,9.0770922 -2.355411,-8.57369643 q -0.157028,-0.47108222 -0.28265,-1.00497541 -0.09422,-0.56529866 -0.219838,-1.00497536 -0.125622,-0.5338932 -0.251244,-1.0677864 h -0.06281 q -0.0314,0.5024877 -0.06281,1.0677864 -0.03141,0.4710822 -0.09422,1.03638084 -0.03141,0.53389319 -0.09422,1.03638089 L -33.50342,9.0770922 h -5.338932 l 2.92071,-20.9160502 h 5.841419 l 3.486009,11.87127155 q 0.157027,0.5024877 0.282649,1.09919185 0.157028,0.5652987 0.28265,1.0991918 0.125621,0.5967042 0.282649,1.1934083 h 0.06281 q 0.157027,-0.5967041 0.314055,-1.1934083 0.157027,-0.5338931 0.282649,-1.0991918 0.157027,-0.59670415 0.314055,-1.09919185 l 3.674441,-11.87127155 h 5.84142 l 2.889304,20.9160502 H -18.4916 l -0.97357,-8.51088547 q -0.06281,-0.59670415 -0.125622,-1.16200281 -0.06281,-0.56529862 -0.125622,-1.00497542 -0.06281,-0.5338932 -0.09422,-0.9735699 h -0.06281 q -0.125622,0.4710822 -0.251244,0.9735699 -0.125622,0.4396768 -0.251244,1.00497542 -0.125622,0.53389318 -0.282649,1.06778636 L -23.0768,9.0770922 Z"
     style="font-style:normal;font-variant:normal;font-weight:normal;font-stretch:normal;font-family:Kievit;-inkscape-font-specification:Kievit;fill:#f5f2c7;fill-opacity:1;stroke-width:0.04892178"
     id="path19735"
     inkscape:connector-curvature="0" /><path
     d="M -1.5196372,9.0770922 Q -1.6452591,8.7944428 -1.7394756,8.3547661 -1.8022866,7.9150894 -1.833692,7.5696291 -2.0849359,7.8836839 -2.4618017,8.2291442 -2.8386674,8.543199 -3.3725606,8.8258483 q -0.5024877,0.2826494 -1.1620028,0.4396768 -0.6281097,0.1884328 -1.4132467,0.1884328 -1.0049754,0 -1.8843289,-0.2826493 Q -8.7114924,8.8886593 -9.3710076,8.3233606 -10.030523,7.758062 -10.407388,6.910114 q -0.376866,-0.847948 -0.376866,-1.9785454 0,-1.4760576 0.659515,-2.543844 0.6909205,-1.0677863 1.8215178,-1.72730143 1.1305973,-0.69092059 2.606655,-1.0049754 1.5074631,-0.31405481 3.1405481,-0.31405481 h 0.4396767 V -1.1296893 q 0,-0.6595151 -0.4082712,-1.0049754 -0.4082713,-0.3454603 -1.6644905,-0.3454603 -0.6909206,0 -1.3190303,0.1570274 -0.5967041,0.1570275 -1.0991918,0.3768658 -0.5024877,0.1884329 -0.8793535,0.4396768 -0.3454603,0.2198383 -0.5652986,0.3454603 l -2.2611947,-3.3289811 q 0.3768658,-0.3454603 1.0049754,-0.722326 0.6281096,-0.4082713 1.4760576,-0.7537316 0.8793535,-0.3454603 1.9471399,-0.5652987 1.0991918,-0.2512438 2.418222,-0.2512438 3.67444135,0 5.3075264,1.4132467 1.6644905,1.3818411 1.6644905,4.77363312 V 3.7067549 q 0,1.8843288 0.1570274,3.2033591 0.1570274,1.2876247 0.3454603,2.1669782 z M -2.1163414,2.607563 h -0.4396767 q -1.3504357,0 -2.1669782,0.4396768 -0.8165425,0.4396767 -0.8165425,1.3504357 0,1.1934082 1.5388686,1.1934082 0.722326,0 1.1620028,-0.2198383 0.4396767,-0.2512439 0.722326,-0.5024877 z"
     style="font-style:normal;font-variant:normal;font-weight:normal;font-stretch:normal;font-family:Kievit;-inkscape-font-specification:Kievit;fill:#f5f2c7;fill-opacity:1;stroke-width:0.04892178"
     id="path19737"
     inkscape:connector-curvature="0" /><path
     d="m 22.517086,1.3199383 q 0,1.8529234 -0.533893,3.3603865 -0.502488,1.5074631 -1.444652,2.5752495 -0.910759,1.0363808 -2.198384,1.633085 -1.287625,0.5652986 -2.826493,0.5652986 -1.25622,0 -2.072762,-0.3140548 Q 12.624359,8.8572538 12.216088,8.543199 v 7.411694 H 6.5631015 V -6.4058101 h 5.5273645 v 1.570274 q 0.659515,-0.8165425 1.633085,-1.3818411 0.97357,-0.5652987 2.512439,-0.5652987 3.014926,0 4.648011,2.1041672 1.633085,2.0727618 1.633085,5.998447 z m -5.967041,-0.031405 q 0,-1.91573436 -0.596705,-2.8264933 -0.565298,-0.910759 -1.633085,-0.910759 -0.439676,0 -0.785137,0.1256219 -0.314054,0.125622 -0.596704,0.3140549 -0.251244,0.1884328 -0.439677,0.3768657 -0.188432,0.1884329 -0.282649,0.3140548 v 5.7786086 q 0.314055,0.2826493 0.753732,0.5338932 0.439676,0.2198384 1.130597,0.2198384 1.193408,0 1.821518,-0.9421645 0.62811,-0.9421644 0.62811,-2.9835207 z"
     style="font-style:normal;font-variant:normal;font-weight:normal;font-stretch:normal;font-family:Kievit;-inkscape-font-specification:Kievit;fill:#f5f2c7;fill-opacity:1;stroke-width:0.04892178"
     id="path19739"
     inkscape:connector-curvature="0" /><path
     d="M 33.351489,9.0770922 Q 33.225867,8.7944428 33.131651,8.3547661 33.06884,7.9150894 33.037434,7.5696291 32.78619,7.8836839 32.409325,8.2291442 32.032459,8.543199 31.498566,8.8258483 q -0.502488,0.2826494 -1.162003,0.4396768 -0.62811,0.1884328 -1.413247,0.1884328 -1.004975,0 -1.884329,-0.2826493 Q 26.159634,8.8886593 25.500119,8.3233606 24.840604,7.758062 24.463738,6.910114 24.086872,6.062166 24.086872,4.9315686 q 0,-1.4760576 0.659515,-2.543844 0.690921,-1.0677863 1.821518,-1.72730143 1.130597,-0.69092059 2.606655,-1.0049754 1.507463,-0.31405481 3.140548,-0.31405481 h 0.439677 V -1.1296893 q 0,-0.6595151 -0.408271,-1.0049754 -0.408272,-0.3454603 -1.664491,-0.3454603 -0.690921,0 -1.31903,0.1570274 -0.596704,0.1570275 -1.099192,0.3768658 -0.502488,0.1884329 -0.879354,0.4396768 -0.34546,0.2198383 -0.565298,0.3454603 l -2.261195,-3.3289811 q 0.376866,-0.3454603 1.004976,-0.722326 0.628109,-0.4082713 1.476057,-0.7537316 0.879354,-0.3454603 1.94714,-0.5652987 1.099192,-0.2512438 2.418222,-0.2512438 3.674441,0 5.307526,1.4132467 1.664491,1.3818411 1.664491,4.77363312 V 3.7067549 q 0,1.8843288 0.157027,3.2033591 0.157028,1.2876247 0.345461,2.1669782 z M 32.754785,2.607563 h -0.439677 q -1.350436,0 -2.166978,0.4396768 -0.816543,0.4396767 -0.816543,1.3504357 0,1.1934082 1.538869,1.1934082 0.722326,0 1.162003,-0.2198383 0.439676,-0.2512439 0.722326,-0.5024877 z"
     style="font-style:normal;font-variant:normal;font-weight:normal;font-stretch:normal;font-family:Kievit;-inkscape-font-specification:Kievit;fill:#f5f2c7;fill-opacity:1;stroke-width:0.04892178"
     id="path19741"
     inkscape:connector-curvature="0" /><path
     d="m 45.892087,1.3827492 q 0,-1.85292336 0.502488,-3.3603865 0.533893,-1.5074631 1.476057,-2.5752494 0.942165,-1.0677864 2.229789,-1.6330851 1.287625,-0.5967041 2.795088,-0.5967041 1.256219,0 2.072762,0.3140548 0.816542,0.3140548 1.224814,0.5967042 v -7.4745051 h 5.652986 V 3.7067549 q 0,1.8843288 0.157028,3.2033591 0.157027,1.2876247 0.34546,2.1669782 H 56.821194 Q 56.695572,8.7630374 56.601356,8.2919551 56.507139,7.7894674 56.475734,7.4754126 q -0.785137,0.910759 -1.790112,1.4760576 -0.97357,0.5338932 -2.481033,0.5338932 -3.014927,0 -4.679417,-2.0727617 -1.633085,-2.1041673 -1.633085,-6.0298525 z m 5.967041,0.062811 q 0,1.8843289 0.565299,2.7950878 0.596704,0.910759 1.66449,0.910759 0.847948,0 1.350436,-0.4082713 0.533893,-0.4396767 0.753732,-0.722326 V -1.7577989 Q 55.87903,-2.0404482 55.439353,-2.2602866 54.999676,-2.480125 54.308756,-2.480125 q -1.193408,0 -1.821518,0.9421645 -0.62811,0.91075894 -0.62811,2.9835207 z"
     style="font-style:normal;font-variant:normal;font-weight:normal;font-stretch:normal;font-family:Kievit;-inkscape-font-specification:Kievit;fill:#f5f2c7;fill-opacity:1;stroke-width:0.04892178"
     id="path19743"
     inkscape:connector-curvature="0" /><path
     d="m 70.262256,3.1100507 q 0.471082,2.3240056 3.234765,2.3240056 0.785137,0 1.350435,-0.062811 0.596704,-0.094216 1.036381,-0.2198384 0.439677,-0.1256219 0.785137,-0.2512438 0.34546,-0.1570275 0.659515,-0.2826494 l 1.664491,3.391792 q -0.439677,0.2512439 -0.97357,0.5024877 -0.533893,0.2512439 -1.256219,0.4710822 -0.690921,0.1884329 -1.633085,0.3140548 -0.942165,0.1570274 -2.22979,0.1570274 -4.114118,0 -6.406718,-2.1355727 -2.2926,-2.1355727 -2.2926,-6.0298524 0,-1.91573436 0.659515,-3.4231975 0.659515,-1.5074631 1.758707,-2.543844 1.130597,-1.0363808 2.606655,-1.570274 1.476058,-0.5338932 3.140548,-0.5338932 4.019902,0 5.810014,2.543844 1.790113,2.5124385 1.350436,7.3488826 z m 3.89428,-3.64303582 q -0.03141,-1.06778638 -0.439677,-1.72730148 -0.408271,-0.6909206 -1.413247,-0.6909206 -1.852923,0 -2.229789,2.41822208 z"
     style="font-style:normal;font-variant:normal;font-weight:normal;font-stretch:normal;font-family:Kievit;-inkscape-font-specification:Kievit;fill:#f5f2c7;fill-opacity:1;stroke-width:0.04892178"
     id="path19745"
     inkscape:connector-curvature="0" /><path
     d="M 87.783078,9.0770922 V -13.534854 h 5.652987 V 9.0770922 Z"
     style="font-style:normal;font-variant:normal;font-weight:normal;font-stretch:normal;font-family:Kievit;-inkscape-font-specification:Kievit;fill:#f5f2c7;fill-opacity:1;stroke-width:0.04892178"
     id="path19747"
     inkscape:connector-curvature="0" /><path
     d="m 105.42461,9.0770922 q -0.12562,-0.2826494 -0.21984,-0.7223261 -0.0628,-0.4396767 -0.0942,-0.785137 -0.25125,0.3140548 -0.62811,0.6595151 -0.37687,0.3140548 -0.91076,0.5967041 -0.50249,0.2826494 -1.162,0.4396768 -0.62811,0.1884328 -1.41325,0.1884328 -1.004975,0 -1.884329,-0.2826493 Q 98.232758,8.8886593 97.573243,8.3233606 96.913727,7.758062 96.536862,6.910114 96.159996,6.062166 96.159996,4.9315686 q 0,-1.4760576 0.659515,-2.543844 0.690921,-1.0677863 1.821518,-1.72730143 1.130597,-0.69092059 2.606651,-1.0049754 1.50747,-0.31405481 3.14055,-0.31405481 h 0.43968 V -1.1296893 q 0,-0.6595151 -0.40827,-1.0049754 -0.40827,-0.3454603 -1.66449,-0.3454603 -0.69092,0 -1.31903,0.1570274 -0.59671,0.1570275 -1.0992,0.3768658 -0.502483,0.1884329 -0.879349,0.4396768 -0.34546,0.2198383 -0.565298,0.3454603 l -2.261195,-3.3289811 q 0.376866,-0.3454603 1.004976,-0.722326 0.628109,-0.4082713 1.476057,-0.7537316 0.879354,-0.3454603 1.947139,-0.5652987 1.09919,-0.2512438 2.41822,-0.2512438 3.67444,0 5.30753,1.4132467 1.66449,1.3818411 1.66449,4.77363312 V 3.7067549 q 0,1.8843288 0.15703,3.2033591 0.15702,1.2876247 0.34546,2.1669782 z m -0.5967,-6.4695292 h -0.43968 q -1.35043,0 -2.16698,0.4396768 -0.81654,0.4396767 -0.81654,1.3504357 0,1.1934082 1.53887,1.1934082 0.72233,0 1.162,-0.2198383 0.43968,-0.2512439 0.72233,-0.5024877 z"
     style="font-style:normal;font-variant:normal;font-weight:normal;font-stretch:normal;font-family:Kievit;-inkscape-font-specification:Kievit;fill:#f5f2c7;fill-opacity:1;stroke-width:0.04892178"
     id="path19749"
     inkscape:connector-curvature="0" /><path
     d="m 123.99507,3.1100507 q 0.47108,2.3240056 3.23476,2.3240056 0.78514,0 1.35044,-0.062811 0.5967,-0.094216 1.03638,-0.2198384 0.43967,-0.1256219 0.78514,-0.2512438 0.34546,-0.1570275 0.65951,-0.2826494 l 1.66449,3.391792 q -0.43968,0.2512439 -0.97357,0.5024877 -0.53389,0.2512439 -1.25622,0.4710822 -0.69092,0.1884329 -1.63308,0.3140548 -0.94217,0.1570274 -2.22979,0.1570274 -4.11412,0 -6.40672,-2.1355727 -2.2926,-2.1355727 -2.2926,-6.0298524 0,-1.91573436 0.65951,-3.4231975 0.65952,-1.5074631 1.75871,-2.543844 1.1306,-1.0363808 2.60666,-1.570274 1.47605,-0.5338932 3.14054,-0.5338932 4.01991,0 5.81002,2.543844 1.79011,2.5124385 1.35043,7.3488826 z m 3.89428,-3.64303582 q -0.0314,-1.06778638 -0.43968,-1.72730148 -0.40827,-0.6909206 -1.41325,-0.6909206 -1.85292,0 -2.22979,2.41822208 z"
     style="font-style:normal;font-variant:normal;font-weight:normal;font-stretch:normal;font-family:Kievit;-inkscape-font-specification:Kievit;fill:#f5f2c7;fill-opacity:1;stroke-width:0.04892178"
     id="path19751"
     inkscape:connector-curvature="0" /><path
     d="m 142.37881,2.1992918 2.48104,-8.6051019 h 5.7472 l -5.7472,15.4829023 h -5.30753 l -5.62158,-15.4829023 h 6.06126 l 2.324,8.6051019 z"
     style="font-style:normal;font-variant:normal;font-weight:normal;font-stretch:normal;font-family:Kievit;-inkscape-font-specification:Kievit;fill:#f5f2c7;fill-opacity:1;stroke-width:0.04892178"
     id="path19753"
     inkscape:connector-curvature="0" /><path
     d="m 160.53756,9.0770922 q -0.12562,-0.2826494 -0.21984,-0.7223261 -0.0628,-0.4396767 -0.0942,-0.785137 -0.25124,0.3140548 -0.62811,0.6595151 -0.37686,0.3140548 -0.91075,0.5967041 -0.50249,0.2826494 -1.16201,0.4396768 -0.62811,0.1884328 -1.41324,0.1884328 -1.00498,0 -1.88433,-0.2826493 -0.87936,-0.2826493 -1.53887,-0.847948 -0.65952,-0.5652986 -1.03638,-1.4132466 -0.37687,-0.847948 -0.37687,-1.9785454 0,-1.4760576 0.65952,-2.543844 0.69092,-1.0677863 1.82151,-1.72730143 1.1306,-0.69092059 2.60666,-1.0049754 1.50746,-0.31405481 3.14055,-0.31405481 h 0.43967 V -1.1296893 q 0,-0.6595151 -0.40827,-1.0049754 -0.40827,-0.3454603 -1.66449,-0.3454603 -0.69092,0 -1.31903,0.1570274 -0.5967,0.1570275 -1.09919,0.3768658 -0.50249,0.1884329 -0.87935,0.4396768 -0.34546,0.2198383 -0.5653,0.3454603 l -2.2612,-3.3289811 q 0.37687,-0.3454603 1.00498,-0.722326 0.62811,-0.4082713 1.47606,-0.7537316 0.87935,-0.3454603 1.94714,-0.5652987 1.09919,-0.2512438 2.41822,-0.2512438 3.67444,0 5.30752,1.4132467 1.6645,1.3818411 1.6645,4.77363312 V 3.7067549 q 0,1.8843288 0.15702,3.2033591 0.15703,1.2876247 0.34546,2.1669782 z M 159.94085,2.607563 h -0.43967 q -1.35044,0 -2.16698,0.4396768 -0.81654,0.4396767 -0.81654,1.3504357 0,1.1934082 1.53887,1.1934082 0.72232,0 1.162,-0.2198383 0.43967,-0.2512439 0.72232,-0.5024877 z"
     style="font-style:normal;font-variant:normal;font-weight:normal;font-stretch:normal;font-family:Kievit;-inkscape-font-specification:Kievit;fill:#f5f2c7;fill-opacity:1;stroke-width:0.04892178"
     id="path19755"
     inkscape:connector-curvature="0" /><path
     d="m 180.02048,4.1778371 q 0,2.7008714 -1.75871,3.9884961 -1.7273,1.2876247 -4.86785,1.2876247 -2.35541,0 -3.80006,-0.5024877 -1.41325,-0.5024877 -2.13557,-0.9735699 l 1.7273,-3.8314687 q 0.21984,0.1570274 0.62811,0.3768658 0.40827,0.2198383 0.91076,0.4396767 0.50249,0.1884329 1.06779,0.3454603 0.5967,0.1256219 1.1934,0.1256219 2.07277,0 2.07277,-0.785137 0,-0.2826493 -0.37687,-0.4396767 -0.34546,-0.1884329 -0.97357,-0.3768658 -0.5967,-0.1884329 -1.38184,-0.4082713 -0.75373,-0.2512438 -1.57028,-0.6909206 -1.44465,-0.7537315 -2.13557,-1.75870691 -0.69092,-1.03638089 -0.69092,-2.63806039 0,-1.2248138 0.47108,-2.1669783 0.47109,-0.9735699 1.31903,-1.6016795 0.84795,-0.6595151 2.04136,-1.0049754 1.19341,-0.3454603 2.60665,-0.3454603 2.07277,0 3.32899,0.3768658 1.28762,0.3454603 1.91573,0.6909206 l -1.7273,3.7686577 q -0.47108,-0.2512438 -1.35044,-0.5338932 -0.84795,-0.2826493 -1.85292,-0.2826493 -1.00498,0 -1.41325,0.2198384 -0.37686,0.2198383 -0.37686,0.5652986 0,0.2826494 0.25124,0.4396768 0.28265,0.1570274 0.72233,0.3140548 0.47108,0.1256219 1.06778,0.31405481 0.62811,0.1570274 1.28763,0.40827125 0.87935,0.3454603 1.57027,0.75373155 0.72233,0.40827126 1.22482,0.97356989 0.50248,0.5338932 0.75373,1.2562193 0.25124,0.7223261 0.25124,1.695896 z"
     style="font-style:normal;font-variant:normal;font-weight:normal;font-stretch:normal;font-family:Kievit;-inkscape-font-specification:Kievit;fill:#f5f2c7;fill-opacity:1;stroke-width:0.04892178"
     id="path19757"
     inkscape:connector-curvature="0" /><path
     d="m 188.52156,-10.833983 q 0,1.2562193 -0.91076,2.1983837 -0.87935,0.910759 -2.324,0.910759 -1.44465,0 -2.35541,-0.910759 -0.87936,-0.9421644 -0.87936,-2.1983837 0,-1.256219 0.87936,-2.166978 0.91076,-0.910759 2.35541,-0.910759 1.44465,0 2.324,0.910759 0.91076,0.910759 0.91076,2.166978 z M 182.4289,9.0770922 V -6.4058101 h 5.7158 V 9.0770922 Z"
     style="font-style:normal;font-variant:normal;font-weight:normal;font-stretch:normal;font-family:Kievit;-inkscape-font-specification:Kievit;fill:#f5f2c7;fill-opacity:1;stroke-width:0.04892178"
     id="path19759"
     inkscape:connector-curvature="0" /><path
     d="m 207.198,1.2257218 q 0,1.5702741 -0.50249,3.0463317 -0.50249,1.4760576 -1.50746,2.6380605 -1.00498,1.1305973 -2.57525,1.8529234 -1.53887,0.6909205 -3.61163,0.6909205 -2.07276,0 -3.61163,-0.6595151 -1.53887,-0.6595151 -2.57525,-1.7587069 -1.00498,-1.1305973 -1.50746,-2.5752495 -0.50249,-1.4760576 -0.50249,-3.0463317 0,-1.60167952 0.50249,-3.0777371 0.50248,-1.4760577 1.50746,-2.606655 1.03638,-1.1305973 2.57525,-1.8215179 1.53887,-0.6909206 3.61163,-0.6909206 2.07276,0 3.61163,0.6595151 1.53887,0.6595151 2.54384,1.758707 1.03638,1.0991918 1.53887,2.5438439 0.50249,1.44465219 0.50249,3.0463317 z m -5.99845,0.1884329 q 0,-1.94713982 -0.47108,-3.0463317 -0.43968,-1.1305973 -1.79011,-1.1305973 -1.35044,0 -1.75871,1.0363809 -0.40827,1.03638087 -0.40827,2.9521152 0,1.9157344 0.47108,3.0463317 0.50249,1.0991919 1.85293,1.0991919 1.35043,0 1.7273,-1.0049754 0.37686,-1.0363809 0.37686,-2.9521153 z m -3.20336,-13.8184117 h 6.94061 l -4.52238,4.4595783 h -4.80504 z"
     style="font-style:normal;font-variant:normal;font-weight:normal;font-stretch:normal;font-family:Kievit;-inkscape-font-specification:Kievit;fill:#f5f2c7;fill-opacity:1;stroke-width:0.04892178"
     id="path19761"
     inkscape:connector-curvature="0" /><path
     d="m 218.92354,9.0770922 v -9.51586087 q 0,-0.94216443 -0.37687,-1.31903023 -0.34546,-0.4082712 -1.162,-0.4082712 -0.81654,0 -1.38184,0.5024877 -0.5653,0.4710822 -0.81654,0.75373151 V 9.0770922 H 209.5333 V -6.4058101 h 5.52737 v 1.7587069 q 0.34546,-0.3768658 0.78513,-0.7537315 0.43968,-0.3768658 1.03638,-0.6909206 0.59671,-0.3140548 1.31903,-0.5024877 0.75374,-0.1884329 1.66449,-0.1884329 1.31903,0 2.19839,0.4082713 0.91076,0.3768657 1.44465,1.0677863 0.5653,0.6909206 0.81654,1.633085 0.25125,0.9421645 0.25125,2.0413563 V 9.0770922 Z"
     style="font-style:normal;font-variant:normal;font-weight:normal;font-stretch:normal;font-family:Kievit;-inkscape-font-specification:Kievit;fill:#f5f2c7;fill-opacity:1;stroke-width:0.04892178"
     id="path19763"
     inkscape:connector-curvature="0" /><path
     d="m 239.65261,9.0770922 h -5.62158 V -2.2916921 h -2.13557 v -4.114118 h 2.13557 V -7.442191 q 0,-1.4446522 0.40827,-2.63806 0.40827,-1.193409 1.22481,-2.041357 0.81655,-0.847948 2.00995,-1.31903 1.19341,-0.471082 2.76369,-0.471082 2.10416,0 3.20336,0.376866 1.09919,0.34546 1.44465,0.565298 l -1.25622,4.0827128 q -0.25125,-0.094216 -0.78514,-0.2826493 -0.50249,-0.1884329 -1.41324,-0.1884329 -1.0992,0 -1.53887,0.5967042 -0.43968,0.5652986 -0.43968,1.7587069 v 0.5967042 h 3.51741 v 4.114118 h -3.51741 z"
     style="font-style:normal;font-variant:normal;font-weight:normal;font-stretch:normal;font-family:Kievit;-inkscape-font-specification:Kievit;fill:#f5f2c7;fill-opacity:1;stroke-width:0.04892178"
     id="path19765"
     inkscape:connector-curvature="0" /><path
     d="m 251.79257,-10.833983 q 0,1.2562193 -0.91076,2.1983837 -0.87935,0.910759 -2.324,0.910759 -1.44465,0 -2.35541,-0.910759 -0.87936,-0.9421644 -0.87936,-2.1983837 0,-1.256219 0.87936,-2.166978 0.91076,-0.910759 2.35541,-0.910759 1.44465,0 2.324,0.910759 0.91076,0.910759 0.91076,2.166978 z M 245.69991,9.0770922 V -6.4058101 h 5.7158 V 9.0770922 Z"
     style="font-style:normal;font-variant:normal;font-weight:normal;font-stretch:normal;font-family:Kievit;-inkscape-font-specification:Kievit;fill:#f5f2c7;fill-opacity:1;stroke-width:0.04892178"
     id="path19767"
     inkscape:connector-curvature="0" /><path
     d="m 266.38556,4.1778371 q 0,2.7008714 -1.7587,3.9884961 -1.72731,1.2876247 -4.86785,1.2876247 -2.35541,0 -3.80007,-0.5024877 -1.41324,-0.5024877 -2.13557,-0.9735699 l 1.7273,-3.8314687 q 0.21984,0.1570274 0.62811,0.3768658 0.40827,0.2198383 0.91076,0.4396767 0.50249,0.1884329 1.06779,0.3454603 0.5967,0.1256219 1.19341,0.1256219 2.07276,0 2.07276,-0.785137 0,-0.2826493 -0.37687,-0.4396767 -0.34546,-0.1884329 -0.97357,-0.3768658 -0.5967,-0.1884329 -1.38184,-0.4082713 -0.75373,-0.2512438 -1.57027,-0.6909206 -1.44466,-0.7537315 -2.13558,-1.75870691 -0.69092,-1.03638089 -0.69092,-2.63806039 0,-1.2248138 0.47108,-2.1669783 0.47109,-0.9735699 1.31904,-1.6016795 0.84794,-0.6595151 2.04135,-1.0049754 1.19341,-0.3454603 2.60666,-0.3454603 2.07276,0 3.32898,0.3768658 1.28762,0.3454603 1.91573,0.6909206 l -1.7273,3.7686577 q -0.47108,-0.2512438 -1.35044,-0.5338932 -0.84794,-0.2826493 -1.85292,-0.2826493 -1.00497,0 -1.41325,0.2198384 -0.37686,0.2198383 -0.37686,0.5652986 0,0.2826494 0.25124,0.4396768 0.28265,0.1570274 0.72233,0.3140548 0.47108,0.1256219 1.06778,0.31405481 0.62811,0.1570274 1.28763,0.40827125 0.87935,0.3454603 1.57027,0.75373155 0.72233,0.40827126 1.22482,0.97356989 0.50249,0.5338932 0.75373,1.2562193 0.25124,0.7223261 0.25124,1.695896 z"
     style="font-style:normal;font-variant:normal;font-weight:normal;font-stretch:normal;font-family:Kievit;-inkscape-font-specification:Kievit;fill:#f5f2c7;fill-opacity:1;stroke-width:0.04892178"
     id="path19769"
     inkscape:connector-curvature="0" /><path
     d="m 281.60225,8.1977387 q -0.28264,0.1570274 -0.72232,0.3768658 -0.40827,0.2198383 -1.00498,0.4082712 -0.5967,0.1884329 -1.41324,0.3140548 -0.81655,0.1570274 -1.91574,0.1570274 -1.97854,0 -3.58022,-0.5338931 -1.60168,-0.5338932 -2.76369,-1.5388686 -1.13059,-1.0363809 -1.7587,-2.543844 -0.62811,-1.5074631 -0.62811,-3.454603 0,-1.9471398 0.62811,-3.4546029 0.65951,-1.5388686 1.82152,-2.5752495 1.162,-1.0363809 2.79508,-1.570274 1.63309,-0.5652987 3.61163,-0.5652987 1.88433,0 3.04634,0.3454603 1.162,0.3454603 1.69589,0.6909206 l -1.53887,3.7372523 q -0.47108,-0.2512439 -1.19341,-0.4396768 -0.72232,-0.1884329 -1.7273,-0.1884329 -1.47605,0 -2.324,0.97357 -0.84795,0.97356987 -0.84795,2.8578988 0,1.9157343 0.81654,2.9835207 0.81654,1.0677863 2.48104,1.0677863 1.22481,0 1.91573,-0.2512438 0.69092,-0.2826493 1.06779,-0.4396767 z"
     style="font-style:normal;font-variant:normal;font-weight:normal;font-stretch:normal;font-family:Kievit;-inkscape-font-specification:Kievit;fill:#f5f2c7;fill-opacity:1;stroke-width:0.04892178"
     id="path19771"
     inkscape:connector-curvature="0" /><path
     d="m 292.17069,9.0770922 q -0.12562,-0.2826494 -0.21984,-0.7223261 -0.0628,-0.4396767 -0.0942,-0.785137 -0.25125,0.3140548 -0.62811,0.6595151 -0.37687,0.3140548 -0.91076,0.5967041 -0.50249,0.2826494 -1.162,0.4396768 -0.62811,0.1884328 -1.41325,0.1884328 -1.00498,0 -1.88433,-0.2826493 -0.87935,-0.2826493 -1.53887,-0.847948 -0.65951,-0.5652986 -1.03638,-1.4132466 -0.37687,-0.847948 -0.37687,-1.9785454 0,-1.4760576 0.65952,-2.543844 0.69092,-1.0677863 1.82152,-1.72730143 1.13059,-0.69092059 2.60665,-1.0049754 1.50747,-0.31405481 3.14055,-0.31405481 H 291.574 V -1.1296893 q 0,-0.6595151 -0.40827,-1.0049754 -0.40828,-0.3454603 -1.66449,-0.3454603 -0.69093,0 -1.31903,0.1570274 -0.59671,0.1570275 -1.0992,0.3768658 -0.50248,0.1884329 -0.87935,0.4396768 -0.34546,0.2198383 -0.5653,0.3454603 l -2.26119,-3.3289811 q 0.37686,-0.3454603 1.00497,-0.722326 0.62811,-0.4082713 1.47606,-0.7537316 0.87935,-0.3454603 1.94714,-0.5652987 1.09919,-0.2512438 2.41822,-0.2512438 3.67444,0 5.30753,1.4132467 1.66449,1.3818411 1.66449,4.77363312 V 3.7067549 q 0,1.8843288 0.15703,3.2033591 0.15702,1.2876247 0.34546,2.1669782 z m -0.5967,-6.4695292 h -0.43968 q -1.35044,0 -2.16698,0.4396768 -0.81654,0.4396767 -0.81654,1.3504357 0,1.1934082 1.53887,1.1934082 0.72232,0 1.162,-0.2198383 0.43968,-0.2512439 0.72233,-0.5024877 z"
     style="font-style:normal;font-variant:normal;font-weight:normal;font-stretch:normal;font-family:Kievit;-inkscape-font-specification:Kievit;fill:#f5f2c7;fill-opacity:1;stroke-width:0.04892178"
     id="path19773"
     inkscape:connector-curvature="0" /><path
     d="M 300.56749,9.0770922 V -13.534854 h 5.65299 V 9.0770922 Z"
     style="font-style:normal;font-variant:normal;font-weight:normal;font-stretch:normal;font-family:Kievit;-inkscape-font-specification:Kievit;fill:#f5f2c7;fill-opacity:1;stroke-width:0.04892178"
     id="path19775"
     inkscape:connector-curvature="0" /><path
     d="m 320.27934,3.1100507 q 0.47108,2.3240056 3.23476,2.3240056 0.78514,0 1.35044,-0.062811 0.5967,-0.094216 1.03638,-0.2198384 0.43968,-0.1256219 0.78514,-0.2512438 0.34546,-0.1570275 0.65951,-0.2826494 l 1.66449,3.391792 q -0.43967,0.2512439 -0.97357,0.5024877 -0.53389,0.2512439 -1.25622,0.4710822 -0.69092,0.1884329 -1.63308,0.3140548 -0.94217,0.1570274 -2.22979,0.1570274 -4.11412,0 -6.40672,-2.1355727 -2.2926,-2.1355727 -2.2926,-6.0298524 0,-1.91573436 0.65952,-3.4231975 0.65951,-1.5074631 1.7587,-2.543844 1.1306,-1.0363808 2.60666,-1.570274 1.47605,-0.5338932 3.14055,-0.5338932 4.0199,0 5.81001,2.543844 1.79011,2.5124385 1.35044,7.3488826 z m 3.89428,-3.64303582 q -0.0314,-1.06778638 -0.43968,-1.72730148 -0.40827,-0.6909206 -1.41325,-0.6909206 -1.85292,0 -2.22978,2.41822208 z"
     style="font-style:normal;font-variant:normal;font-weight:normal;font-stretch:normal;font-family:Kievit;-inkscape-font-specification:Kievit;fill:#f5f2c7;fill-opacity:1;stroke-width:0.04892178"
     id="path19777"
     inkscape:connector-curvature="0" /><path
     d="m 341.53986,9.0770922 v -9.51586087 q 0,-0.94216443 -0.37687,-1.31903023 -0.34546,-0.4082712 -1.162,-0.4082712 -0.81654,0 -1.38184,0.5024877 -0.5653,0.4710822 -0.81654,0.75373151 V 9.0770922 h -5.65299 V -6.4058101 h 5.52736 v 1.7587069 q 0.34546,-0.3768658 0.78514,-0.7537315 0.43968,-0.3768658 1.03638,-0.6909206 0.59671,-0.3140548 1.31903,-0.5024877 0.75373,-0.1884329 1.66449,-0.1884329 1.31903,0 2.19839,0.4082713 0.91075,0.3768657 1.44465,1.0677863 0.5653,0.6909206 0.81654,1.633085 0.25124,0.9421645 0.25124,2.0413563 V 9.0770922 Z"
     style="font-style:normal;font-variant:normal;font-weight:normal;font-stretch:normal;font-family:Kievit;-inkscape-font-specification:Kievit;fill:#f5f2c7;fill-opacity:1;stroke-width:0.04892178"
     id="path19779"
     inkscape:connector-curvature="0" /><path
     d="M 356.3019,9.0770922 V -11.838958 h 13.12749 v 4.8678492 h -7.22326 v 3.1405481 h 6.37531 v 4.52238935 h -6.37531 V 4.2092426 h 7.4431 v 4.8678496 z"
     style="font-style:normal;font-variant:normal;font-weight:normal;font-stretch:normal;font-family:Kievit;-inkscape-font-specification:Kievit;fill:#f5f2c7;fill-opacity:1;stroke-width:0.04892178"
     id="path19781"
     inkscape:connector-curvature="0" /><path
     d="m 377.97808,-6.4058101 v 9.5158608 q 0,0.9421645 0.34546,1.3504357 0.37686,0.3768658 1.1934,0.3768658 0.81655,0 1.38185,-0.4710822 0.56529,-0.5024877 0.81654,-0.7851371 v -9.986943 h 5.65298 v 10.112565 q 0,1.8843288 0.15703,3.2033591 0.15703,1.2876247 0.34546,2.1669782 h -5.52736 q -0.12562,-0.3140548 -0.25125,-0.910759 -0.0942,-0.5967041 -0.12562,-1.0049754 -0.69092,0.847948 -1.88433,1.5702741 -1.19341,0.722326 -3.04633,0.722326 -1.31903,0 -2.22979,-0.3768657 -0.87935,-0.4082713 -1.44465,-1.0991919 -0.53389,-0.6909206 -0.78514,-1.633085 -0.25124,-0.9421644 -0.25124,-2.0413563 V -6.4058101 Z"
     style="font-style:normal;font-variant:normal;font-weight:normal;font-stretch:normal;font-family:Kievit;-inkscape-font-specification:Kievit;fill:#f5f2c7;fill-opacity:1;stroke-width:0.04892178"
     id="path19783"
     inkscape:connector-curvature="0" /><path
     d="m 401.09642,-1.506555 q -0.25124,-0.1570274 -0.69092,-0.2826494 -0.43967,-0.1570274 -1.162,-0.1570274 -1.162,0 -1.91574,0.5652987 -0.72232,0.53389317 -1.13059,1.16200279 V 9.0770922 h -5.65299 V -6.4058101 h 5.65299 v 1.8529234 q 0.53389,-0.910759 1.44465,-1.5702741 0.94216,-0.6595151 2.32401,-0.6595151 0.97356,0 1.53886,0.1570274 0.5653,0.1570274 0.91076,0.3454603 z"
     style="font-style:normal;font-variant:normal;font-weight:normal;font-stretch:normal;font-family:Kievit;-inkscape-font-specification:Kievit;fill:#f5f2c7;fill-opacity:1;stroke-width:0.04892178"
     id="path19785"
     inkscape:connector-curvature="0" /><path
     d="m 419.15434,1.2257218 q 0,1.5702741 -0.50248,3.0463317 -0.50249,1.4760576 -1.50747,2.6380605 -1.00497,1.1305973 -2.57525,1.8529234 -1.53886,0.6909205 -3.61163,0.6909205 -2.07276,0 -3.61163,-0.6595151 -1.53887,-0.6595151 -2.57525,-1.7587069 -1.00497,-1.1305973 -1.50746,-2.5752495 -0.50249,-1.4760576 -0.50249,-3.0463317 0,-1.60167952 0.50249,-3.0777371 0.50249,-1.4760577 1.50746,-2.606655 1.03638,-1.1305973 2.57525,-1.8215179 1.53887,-0.6909206 3.61163,-0.6909206 2.07277,0 3.61163,0.6595151 1.53887,0.6595151 2.54385,1.758707 1.03638,1.0991918 1.53887,2.5438439 0.50248,1.44465219 0.50248,3.0463317 z m -5.99844,0.1884329 q 0,-1.94713982 -0.47109,-3.0463317 -0.43967,-1.1305973 -1.79011,-1.1305973 -1.35043,0 -1.7587,1.0363809 -0.40828,1.03638087 -0.40828,2.9521152 0,1.9157344 0.47109,3.0463317 0.50248,1.0991919 1.85292,1.0991919 1.35044,0 1.7273,-1.0049754 0.37687,-1.0363809 0.37687,-2.9521153 z"
     style="font-style:normal;font-variant:normal;font-weight:normal;font-stretch:normal;font-family:Kievit;-inkscape-font-specification:Kievit;fill:#f5f2c7;fill-opacity:1;stroke-width:0.04892178"
     id="path19787"
     inkscape:connector-curvature="0" /><path
     d="m 437.47427,1.3199383 q 0,1.8529234 -0.53389,3.3603865 -0.50249,1.5074631 -1.44466,2.5752495 -0.91075,1.0363808 -2.19838,1.633085 -1.28762,0.5652986 -2.82649,0.5652986 -1.25622,0 -2.07276,-0.3140548 -0.81655,-0.2826493 -1.22482,-0.5967041 v 7.411694 h -5.65298 V -6.4058101 h 5.52736 v 1.570274 q 0.65952,-0.8165425 1.63309,-1.3818411 0.97357,-0.5652987 2.51243,-0.5652987 3.01493,0 4.64801,2.1041672 1.63309,2.0727618 1.63309,5.998447 z m -5.96704,-0.031405 q 0,-1.91573436 -0.59671,-2.8264933 -0.56529,-0.910759 -1.63308,-0.910759 -0.43968,0 -0.78514,0.1256219 -0.31405,0.125622 -0.5967,0.3140549 -0.25125,0.1884328 -0.43968,0.3768657 -0.18843,0.1884329 -0.28265,0.3140548 v 5.7786086 q 0.31406,0.2826493 0.75373,0.5338932 0.43968,0.2198384 1.1306,0.2198384 1.19341,0 1.82152,-0.9421645 0.62811,-0.9421644 0.62811,-2.9835207 z"
     style="font-style:normal;font-variant:normal;font-weight:normal;font-stretch:normal;font-family:Kievit;-inkscape-font-specification:Kievit;fill:#f5f2c7;fill-opacity:1;stroke-width:0.04892178"
     id="path19789"
     inkscape:connector-curvature="0" /><path
     d="m 448.30869,9.0770922 q -0.12562,-0.2826494 -0.21984,-0.7223261 -0.0628,-0.4396767 -0.0942,-0.785137 -0.25125,0.3140548 -0.62811,0.6595151 -0.37687,0.3140548 -0.91076,0.5967041 -0.50249,0.2826494 -1.162,0.4396768 -0.62811,0.1884328 -1.41325,0.1884328 -1.00498,0 -1.88433,-0.2826493 -0.87935,-0.2826493 -1.53887,-0.847948 -0.65951,-0.5652986 -1.03638,-1.4132466 -0.37687,-0.847948 -0.37687,-1.9785454 0,-1.4760576 0.65952,-2.543844 0.69092,-1.0677863 1.82152,-1.72730143 1.1306,-0.69092059 2.60665,-1.0049754 1.50747,-0.31405481 3.14055,-0.31405481 H 447.712 V -1.1296893 q 0,-0.6595151 -0.40827,-1.0049754 -0.40827,-0.3454603 -1.66449,-0.3454603 -0.69092,0 -1.31903,0.1570274 -0.59671,0.1570275 -1.0992,0.3768658 -0.50248,0.1884329 -0.87935,0.4396768 -0.34546,0.2198383 -0.5653,0.3454603 l -2.26119,-3.3289811 q 0.37686,-0.3454603 1.00497,-0.722326 0.62811,-0.4082713 1.47606,-0.7537316 0.87935,-0.3454603 1.94714,-0.5652987 1.09919,-0.2512438 2.41822,-0.2512438 3.67444,0 5.30753,1.4132467 1.66449,1.3818411 1.66449,4.77363312 V 3.7067549 q 0,1.8843288 0.15703,3.2033591 0.15702,1.2876247 0.34546,2.1669782 z m -0.5967,-6.4695292 h -0.43968 q -1.35043,0 -2.16698,0.4396768 -0.81654,0.4396767 -0.81654,1.3504357 0,1.1934082 1.53887,1.1934082 0.72232,0 1.162,-0.2198383 0.43968,-0.2512439 0.72233,-0.5024877 z"
     style="font-style:normal;font-variant:normal;font-weight:normal;font-stretch:normal;font-family:Kievit;-inkscape-font-specification:Kievit;fill:#f5f2c7;fill-opacity:1;stroke-width:0.04892178"
     id="path19791"
     inkscape:connector-curvature="0" /></g></g></svg>