<?xml version="1.0" encoding="UTF-8" standalone="no"?>
<!-- Generator: Adobe Illustrator 23.0.3, SVG Export Plug-In . SVG Version: 6.00 Build 0)  -->

<svg
   xmlns:dc="http://purl.org/dc/elements/1.1/"
   xmlns:cc="http://creativecommons.org/ns#"
   xmlns:rdf="http://www.w3.org/1999/02/22-rdf-syntax-ns#"
   xmlns:svg="http://www.w3.org/2000/svg"
   xmlns="http://www.w3.org/2000/svg"
   xmlns:sodipodi="http://sodipodi.sourceforge.net/DTD/sodipodi-0.dtd"
   xmlns:inkscape="http://www.inkscape.org/namespaces/inkscape"
   version="1.1"
   id="Layer_1"
   x="0px"
   y="0px"
   viewBox="0 0 595.28 432"
   style="enable-background:new 0 0 595.28 432;"
   xml:space="preserve"
   sodipodi:docname="GUE.svg"
   inkscape:version="0.92.4 (unknown)"><metadata
   id="metadata207"><rdf:RDF><cc:Work
       rdf:about=""><dc:format>image/svg+xml</dc:format><dc:type
         rdf:resource="http://purl.org/dc/dcmitype/StillImage" /></cc:Work></rdf:RDF></metadata><defs
   id="defs205" /><sodipodi:namedview
   pagecolor="#ffffff"
   bordercolor="#666666"
   borderopacity="1"
   objecttolerance="10"
   gridtolerance="10"
   guidetolerance="10"
   inkscape:pageopacity="0"
   inkscape:pageshadow="2"
   inkscape:window-width="1920"
   inkscape:window-height="983"
   id="namedview203"
   showgrid="false"
   inkscape:zoom="1.5451593"
   inkscape:cx="366.33353"
   inkscape:cy="221.9305"
   inkscape:window-x="0"
   inkscape:window-y="34"
   inkscape:window-maximized="1"
   inkscape:current-layer="g200" />
<style
   type="text/css"
   id="style2">
	.st0{fill:#00984E;}
	.st1{fill:#C6262C;}
	.st2{enable-background:new    ;}
</style>
<g
   id="g200">
	<g
   id="g8"
   transform="matrix(1.1177114,0,0,1.1177114,-11.161934,-27.337299)"
   style="stroke-width:0.89468533">
		<path
   class="st0"
   d="m 201.04,220.48 c -28.54,7.03 -53.94,22.02 -53.94,22.02 -25.47,14.24 -32.91,25.45 -32.91,25.45 0,0 -7.67,-21.36 -30.69,-24.63 -23.02,-3.26 -36.76,17.65 -36.76,17.65 l 7.88,16.69 c 0,0 8.07,-22.86 31.03,-19.21 26.09,4.15 23.94,39.16 23.94,39.16 0,0 17.34,-22.19 43.74,-37.47 0,0 25.17,-15.28 55.09,-23.65 z"
   id="path4"
   inkscape:connector-curvature="0"
   style="fill:#00984e;stroke-width:0.81255376" />
		<path
   class="st1"
   d="m 197.36,166.87 c -31.88,3.43 -65.52,23.88 -65.52,23.88 -17.65,9.35 -26.09,17.95 -26.09,17.95 0,0 -15.35,-15.13 -40.28,-16.32 -23.24,-1.11 -42.12,19.58 -42.12,19.58 l 21.22,44.86 c 0,0 13.18,-18.58 33.57,-17.71 27.51,1.17 36.83,22.25 36.83,22.25 0,0 11.05,-12 33.61,-24.31 0,0 39.33,-21.51 67.37,-23.01 z"
   id="path6"
   inkscape:connector-curvature="0"
   style="fill:#c6262c;stroke-width:0.81255376" />
	</g>
	<g
   id="g24"
   transform="matrix(1.1177114,0,0,1.1177114,-11.161934,-27.337299)"
   style="stroke-width:0.89468533">
		<path
   d="m 271.71,233.61 v -8.45 h 19.39 v 17.31 c -3.71,2.53 -6.99,4.25 -9.85,5.17 -2.85,0.91 -6.24,1.37 -10.15,1.37 -4.82,0 -8.75,-0.82 -11.79,-2.47 -3.04,-1.64 -5.39,-4.09 -7.06,-7.34 -1.67,-3.25 -2.51,-6.98 -2.51,-11.19 0,-4.43 0.91,-8.29 2.74,-11.56 1.83,-3.28 4.5,-5.77 8.03,-7.47 2.75,-1.31 6.46,-1.97 11.11,-1.97 4.49,0 7.84,0.41 10.07,1.22 2.22,0.81 4.07,2.07 5.54,3.78 1.47,1.71 2.57,3.87 3.31,6.5 l -12.1,2.16 c -0.5,-1.53 -1.34,-2.71 -2.54,-3.52 -1.19,-0.81 -2.71,-1.22 -4.56,-1.22 -2.75,0 -4.94,0.96 -6.58,2.87 -1.63,1.91 -2.45,4.93 -2.45,9.07 0,4.39 0.83,7.53 2.48,9.42 1.65,1.88 3.96,2.83 6.91,2.83 1.4,0 2.74,-0.2 4.02,-0.61 1.28,-0.41 2.73,-1.1 4.38,-2.08 v -3.82 z"
   id="path10"
   inkscape:connector-curvature="0"
   style="stroke-width:0.89468533" />
		<path
   d="m 324.97,207.71 h 12.52 v 24.19 c 0,2.4 -0.37,4.66 -1.12,6.79 -0.75,2.13 -1.92,4 -3.52,5.59 -1.6,1.6 -3.27,2.72 -5.03,3.36 -2.44,0.9 -5.37,1.36 -8.78,1.36 -1.98,0 -4.13,-0.14 -6.47,-0.42 -2.34,-0.28 -4.29,-0.82 -5.86,-1.65 -1.57,-0.82 -3.01,-1.99 -4.31,-3.5 -1.3,-1.51 -2.19,-3.07 -2.67,-4.68 -0.78,-2.58 -1.16,-4.87 -1.16,-6.87 v -24.19 h 12.52 v 24.77 c 0,2.21 0.61,3.94 1.84,5.19 1.23,1.25 2.93,1.87 5.11,1.87 2.16,0 3.85,-0.61 5.08,-1.84 1.23,-1.23 1.84,-2.97 1.84,-5.22 v -24.75 z"
   id="path12"
   inkscape:connector-curvature="0"
   style="stroke-width:0.89468533" />
		<path
   d="m 345.78,207.71 h 33.62 v 8.67 h -21.05 v 6.46 h 19.53 v 8.28 h -19.53 v 8.01 h 21.66 v 9.2 h -34.24 z"
   id="path14"
   inkscape:connector-curvature="0"
   style="stroke-width:0.89468533" />
		<path
   d="m 392.79,207.01 h 5.76 L 388.35,249 h -5.7 z"
   id="path16"
   inkscape:connector-curvature="0"
   style="stroke-width:0.89468533" />
		<path
   d="m 402.62,207.71 h 11.72 l 15.29,22.47 v -22.47 h 11.83 v 40.61 h -11.83 l -15.21,-22.3 v 22.3 h -11.8 z"
   id="path18"
   inkscape:connector-curvature="0"
   style="stroke-width:0.89468533" />
		<path
   d="m 470.2,233.61 v -8.45 h 19.39 v 17.31 c -3.71,2.53 -7,4.25 -9.85,5.17 -2.85,0.91 -6.24,1.37 -10.15,1.37 -4.82,0 -8.75,-0.82 -11.78,-2.47 -3.04,-1.64 -5.39,-4.09 -7.06,-7.34 -1.67,-3.25 -2.51,-6.98 -2.51,-11.19 0,-4.43 0.92,-8.29 2.74,-11.56 1.83,-3.28 4.51,-5.77 8.04,-7.47 2.75,-1.31 6.45,-1.97 11.11,-1.97 4.49,0 7.84,0.41 10.07,1.22 2.22,0.81 4.07,2.07 5.54,3.78 1.47,1.71 2.57,3.87 3.31,6.5 l -12.11,2.16 c -0.5,-1.53 -1.34,-2.71 -2.53,-3.52 -1.19,-0.81 -2.71,-1.22 -4.56,-1.22 -2.75,0 -4.94,0.96 -6.58,2.87 -1.63,1.91 -2.45,4.93 -2.45,9.07 0,4.39 0.83,7.53 2.48,9.42 1.65,1.88 3.96,2.83 6.91,2.83 1.4,0 2.74,-0.2 4.02,-0.61 1.27,-0.41 2.73,-1.1 4.38,-2.08 v -3.82 z"
   id="path20"
   inkscape:connector-curvature="0"
   style="stroke-width:0.89468533" />
		<path
   d="m 497.04,207.71 h 12.55 v 30.61 h 19.58 v 10 h -32.13 z"
   id="path22"
   inkscape:connector-curvature="0"
   style="stroke-width:0.89468533" />
	</g>
	
	
	
</g>
</svg>