<?xml version="1.0" encoding="utf-8"?>
<!-- Generator: Adobe Illustrator 23.0.3, SVG Export Plug-In . SVG Version: 6.00 Build 0)  -->
<svg version="1.1" id="Layer_1" xmlns="http://www.w3.org/2000/svg" xmlns:xlink="http://www.w3.org/1999/xlink" x="0px" y="0px"
	 viewBox="0 0 595.28 432" style="enable-background:new 0 0 595.28 432;" xml:space="preserve">
<style type="text/css">
	.st0{fill:#54075B;}
</style>
<g>
	<path class="st0" d="M68.93,185.18c1.19,0,5.36,0,12.51,0h12.51c7.44,0.3,13.25,2.31,17.42,6.03c4.17,3.73,6.25,8.86,6.25,15.41
		c-0.3,7.15-2.76,12.51-7.37,16.08c-4.62,3.57-10.5,5.36-17.64,5.36H82.34v18.76h-13.4V185.18z M93.06,216.45
		c3.57-0.29,6.25-1.26,8.04-2.9c1.79-1.63,2.68-3.8,2.68-6.48v-0.45c-0.3-5.95-3.88-8.93-10.72-8.93H82.34v18.76H93.06z
		 M131.02,193.67c5.95-5.95,13.77-8.93,23.45-8.93c9.67,0,17.49,2.98,23.45,8.93c5.95,5.96,8.93,13.4,8.93,22.33
		s-3.06,16.38-9.16,22.33c-6.11,5.96-13.93,8.93-23.45,8.93c-9.53,0-17.28-2.97-23.23-8.93c-5.96-5.95-9.09-13.4-9.38-22.33
		C121.94,207.07,125.06,199.63,131.02,193.67z M167.65,202.38c-3.28-3.72-7.75-5.58-13.4-5.58c-5.66,0-10.13,1.79-13.4,5.36
		c-3.28,3.57-4.91,8.19-4.91,13.85c0,5.36,1.71,9.9,5.14,13.62c3.42,3.73,7.89,5.58,13.4,5.58c5.51,0,9.9-1.86,13.18-5.58
		c3.27-3.72,5.06-8.26,5.36-13.62C172.71,210.64,170.93,206.1,167.65,202.38z M195.79,185.18c1.19,0,5.21,0,12.06,0h12.06
		c9.83,0.3,17.64,3.28,23.45,8.93c5.81,5.66,8.86,12.95,9.16,21.89c-0.3,8.93-3.35,16.23-9.16,21.89
		c-5.81,5.66-13.62,8.64-23.45,8.93h-24.12V185.18z M209.2,197.69c0,1.49,0,7.59,0,18.31v18.31h10.72c5.65,0,10.12-1.63,13.4-4.91
		c3.27-3.27,4.91-7.74,4.91-13.4c0-5.65-1.64-10.12-4.91-13.4c-3.28-3.27-7.75-4.91-13.4-4.91H209.2z M261.46,185.18
		c1.79,0,9.53,0,23.23,0h22.78v12.06h-32.61v12.51h29.03v12.06h-29.03v12.95h33.06v12.06h-46.46V185.18z M316.85,185.18
		c0.59,0,3.13,0,7.59,0h7.15l16.08,25.91l16.08-25.91h14.74v61.64h-13.4v-40.2l-17.42,26.35h-0.45l-16.97-25.91v39.76h-13.4V185.18z
		 M396.58,193.67c6.1-5.95,13.92-8.93,23.45-8.93c9.53,0,17.27,2.98,23.23,8.93c5.95,5.96,9.08,13.4,9.38,22.33
		c-0.3,8.93-3.43,16.38-9.38,22.33c-5.96,5.96-13.78,8.93-23.45,8.93c-9.68,0-17.5-2.97-23.45-8.93c-5.96-5.95-8.93-13.4-8.93-22.33
		S390.47,199.63,396.58,193.67z M433.21,202.38c-3.43-3.72-7.9-5.58-13.4-5.58c-5.51,0-9.91,1.79-13.18,5.36
		c-3.28,3.57-5.07,8.19-5.36,13.85c0.29,5.36,2.08,9.9,5.36,13.62c3.27,3.73,7.74,5.58,13.4,5.58c5.65,0,10.12-1.86,13.4-5.58
		c3.27-3.72,4.91-8.26,4.91-13.62S436.63,206.1,433.21,202.38z M460.68,232.97l4.02-4.91c5.36,4.77,11.46,7.3,18.31,7.59
		c5.65-0.29,8.63-2.23,8.93-5.81c0.29-1.79-0.45-3.27-2.23-4.47c-1.79-1.19-5.22-2.38-10.27-3.57c-6.25-1.49-11.17-3.5-14.74-6.03
		c-3.57-2.53-5.36-6.77-5.36-12.73c0-5.65,2.01-10.12,6.03-13.4c4.02-3.27,9.16-5.06,15.41-5.36c8.93,0.3,16.53,2.98,22.78,8.04
		l-7.15,10.27c-5.36-4.17-10.65-6.18-15.86-6.03c-5.22,0.15-7.82,1.86-7.82,5.14c0,2.09,0.89,3.65,2.68,4.69
		c1.79,1.05,5.36,2.16,10.72,3.35c6.25,1.79,11.01,4.02,14.29,6.7c3.27,2.68,4.91,6.7,4.91,12.06c0,6.25-2.09,11.02-6.25,14.29
		c-4.17,3.28-9.53,4.91-16.08,4.91c-10.13-0.29-18.91-3.57-26.35-9.83C457.25,237.29,458.59,235.65,460.68,232.97z M512.05,232.53
		c0.59,0,2.97,0,7.15,0h7.15v14.29h-14.29V232.53z"/>
</g>
</svg>
