<?xml version="1.0" encoding="UTF-8" standalone="no"?>
<!-- Generator: Adobe Illustrator 23.0.3, SVG Export Plug-In . SVG Version: 6.00 Build 0)  -->

<svg
   xmlns:dc="http://purl.org/dc/elements/1.1/"
   xmlns:cc="http://creativecommons.org/ns#"
   xmlns:rdf="http://www.w3.org/1999/02/22-rdf-syntax-ns#"
   xmlns:svg="http://www.w3.org/2000/svg"
   xmlns="http://www.w3.org/2000/svg"
   xmlns:sodipodi="http://sodipodi.sourceforge.net/DTD/sodipodi-0.dtd"
   xmlns:inkscape="http://www.inkscape.org/namespaces/inkscape"
   version="1.1"
   id="Capa_12"
   x="0px"
   y="0px"
   viewBox="0 0 2303.1 1080"
   style="enable-background:new 0 0 2303.1 1080;"
   xml:space="preserve"
   sodipodi:docname="europa.svg"
   inkscape:version="0.92.4 (unknown)"><metadata
   id="metadata1007"><rdf:RDF><cc:Work
       rdf:about=""><dc:format>image/svg+xml</dc:format><dc:type
         rdf:resource="http://purl.org/dc/dcmitype/StillImage" /><dc:title></dc:title></cc:Work></rdf:RDF></metadata><defs
   id="defs1005" /><sodipodi:namedview
   pagecolor="#ffffff"
   bordercolor="#666666"
   borderopacity="1"
   objecttolerance="10"
   gridtolerance="10"
   guidetolerance="10"
   inkscape:pageopacity="0"
   inkscape:pageshadow="2"
   inkscape:window-width="1920"
   inkscape:window-height="983"
   id="namedview1003"
   showgrid="false"
   inkscape:zoom="0.27224175"
   inkscape:cx="1467.5252"
   inkscape:cy="744.75181"
   inkscape:window-x="0"
   inkscape:window-y="34"
   inkscape:window-maximized="1"
   inkscape:current-layer="text1011" />
<style
   type="text/css"
   id="style948">
	.st0{fill:#1D1D1B;}
</style>

<g
   aria-label="COLECCION DE MAPAS"
   style="font-style:normal;font-weight:normal;font-size:239.03622437px;line-height:1.25;font-family:sans-serif;letter-spacing:0px;word-spacing:0px;fill:#000000;fill-opacity:1;stroke:none;stroke-width:0.22118266"
   id="text1011"
   transform="matrix(4.5211502,0,0,4.5211502,231.39642,920.52364)">

<g
   aria-label="#EUROPA
ENMAPAS"
   style="font-style:normal;font-weight:normal;font-size:56.35824203px;line-height:1.25;font-family:sans-serif;letter-spacing:0px;word-spacing:0px;fill:#000000;fill-opacity:1;stroke:none;stroke-width:0.05080638"
   id="text20363"
   transform="matrix(0.96290565,0,0,0.96290565,7.4892852,141.25862)"><path
     d="m 4.2684359,-292.07164 -2.2430812,13.35167 h -7.476938 l -0.9613194,6.62243 h 7.6905629 l -2.24308113,13.35167 H -8.4423589 l -1.7090141,11.74948 h -12.603979 l 1.815828,-11.74948 h -6.836058 l -1.815827,11.74948 H -42.19539 l 1.815828,-11.74948 h -8.865512 l 2.243082,-13.35167 h 8.651884 l 0.961321,-6.62243 h -8.651885 l 2.136268,-13.35167 h 8.545071 l 1.922641,-12.17673 h 12.603981 l -1.922641,12.17673 h 6.729243 l 1.92264,-12.17673 h 12.6039819 l -1.9226411,12.17673 z m -29.3736829,12.81761 -1.174947,7.69058 h 7.690564 l 1.174947,-7.69058 z"
     style="font-style:normal;font-variant:normal;font-weight:normal;font-stretch:normal;font-family:Kievit;-inkscape-font-specification:Kievit;stroke-width:0.05080637"
     id="path20367"
     inkscape:connector-curvature="0" /><path
     d="m 12.626583,-239.09219 v -71.13773 h 44.647998 v 16.55608 H 32.7075 v 10.68134 h 21.683118 v 15.38113 H 32.7075 v 11.9631 h 25.314775 v 16.55608 z"
     style="font-style:normal;font-variant:normal;font-weight:normal;font-stretch:normal;font-family:Kievit;-inkscape-font-specification:Kievit;stroke-width:0.05080637"
     id="path20369"
     inkscape:connector-curvature="0" /><path
     d="m 134.37799,-269.53401 q 0,15.80838 -7.90419,23.81938 -7.79738,7.9042 -22.96488,7.9042 -16.235629,0 -24.460266,-7.1565 -8.11782,-7.26331 -8.11782,-22.43081 v -42.83218 H 91.33219 v 41.4436 q 0,3.73847 0.640887,6.51561 0.640876,2.77716 2.029455,4.59299 1.495385,1.70901 3.845278,2.56353 2.45671,0.8545 6.08837,0.8545 6.62242,0 9.18595,-3.52484 2.56352,-3.63166 2.56352,-10.57453 v -41.87086 h 18.69234 z"
     style="font-style:normal;font-variant:normal;font-weight:normal;font-stretch:normal;font-family:Kievit;-inkscape-font-specification:Kievit;stroke-width:0.05080637"
     id="path20371"
     inkscape:connector-curvature="0" /><path
     d="m 189.53125,-239.09219 -12.06992,-20.29454 q -1.28176,-2.02946 -2.13626,-3.20441 -0.85451,-1.28176 -1.60221,-1.92265 -0.74768,-0.64087 -1.38856,-0.8545 -0.64088,-0.21361 -1.49539,-0.21361 h -0.7477 v 26.48971 h -20.40135 v -71.13773 h 27.2374 q 13.67213,0 21.04224,5.44748 7.37012,5.44749 7.37012,16.23565 0,4.37934 -1.28176,7.69056 -1.17495,3.20441 -3.20439,5.5543 -1.92264,2.3499 -4.48616,3.95209 -2.45671,1.49539 -4.91342,2.34989 v 0.21363 q 1.81583,1.28177 3.9521,3.95211 2.24308,2.5635 5.02022,7.26331 l 11.00178,18.47871 z m -4.16573,-48.06604 q 0,-4.0589 -2.24308,-5.98154 -2.13627,-2.02946 -7.2633,-2.02946 h -5.76793 v 15.9152 h 6.40881 q 4.48615,0 6.62242,-2.02945 2.24308,-2.13628 2.24308,-5.87475 z"
     style="font-style:normal;font-variant:normal;font-weight:normal;font-stretch:normal;font-family:Kievit;-inkscape-font-specification:Kievit;stroke-width:0.05080637"
     id="path20373"
     inkscape:connector-curvature="0" /><path
     d="m 290.74028,-275.19511 q 0,7.1565 -2.34991,13.88574 -2.24307,6.72924 -6.94286,11.9631 -4.59299,5.23384 -11.64266,8.43824 -7.04968,3.0976 -16.55608,3.0976 -9.50639,0 -16.7697,-3.0976 -7.1565,-3.09758 -12.06991,-8.22461 -4.8066,-5.12705 -7.26331,-11.74949 -2.45671,-6.62242 -2.45671,-13.6721 0,-7.15651 2.3499,-13.77894 2.45671,-6.72925 7.15648,-11.85628 4.8066,-5.12705 11.9631,-8.22463 7.15651,-3.0976 16.6629,-3.0976 9.50638,0 16.55607,3.0976 7.1565,2.99077 11.85629,8.011 4.8066,5.02024 7.15649,11.64266 2.34991,6.51561 2.34991,13.56531 z m -21.4695,0.64088 q 0,-4.16574 -0.85451,-7.90419 -0.74768,-3.73847 -2.67033,-6.62245 -1.81582,-2.88395 -4.91342,-4.48615 -3.09759,-1.70901 -7.58375,-1.70901 -4.59297,0 -7.9042,1.60219 -3.20438,1.6022 -5.23384,4.37936 -2.02947,2.67032 -2.99077,6.30198 -0.85452,3.63165 -0.85452,7.79739 0,4.16572 0.85452,8.01098 0.9613,3.84529 2.88395,6.83607 2.02945,2.88395 5.12705,4.59298 3.20439,1.70902 7.69056,1.70902 4.59297,0 7.69055,-1.60221 3.20441,-1.70902 5.12705,-4.48616 1.92265,-2.88395 2.77715,-6.51563 0.85451,-3.73845 0.85451,-7.90417 z"
     style="font-style:normal;font-variant:normal;font-weight:normal;font-stretch:normal;font-family:Kievit;-inkscape-font-specification:Kievit;stroke-width:0.05080637"
     id="path20375"
     inkscape:connector-curvature="0" /><path
     d="m 358.58848,-286.30371 q 0,6.30198 -2.24308,10.89497 -2.2431,4.59297 -6.302,7.69055 -4.0589,3.09759 -9.82683,4.59299 -5.66109,1.49538 -12.60398,1.49538 h -5.23384 v 22.53763 h -20.40137 v -71.13773 h 27.66468 q 6.08836,0 11.32221,1.4954 5.34066,1.38856 9.18595,4.37936 3.95208,2.88395 6.19518,7.3701 2.24308,4.48617 2.24308,10.68135 z m -20.29455,0.21361 q 0,-4.9134 -2.56351,-6.94285 -2.45671,-2.13628 -7.47694,-2.13628 h -5.87473 v 18.58554 h 5.44747 q 5.44749,0 7.9042,-2.24308 2.56351,-2.24309 2.56351,-7.26333 z"
     style="font-style:normal;font-variant:normal;font-weight:normal;font-stretch:normal;font-family:Kievit;-inkscape-font-specification:Kievit;stroke-width:0.05080637"
     id="path20377"
     inkscape:connector-curvature="0" /><path
     d="m 376.68334,-239.09219 h -20.61498 l 27.13058,-71.13773 h 19.54686 l 28.19874,71.13773 h -22.21719 l -3.41802,-10.04045 h -25.31479 z m 19.22639,-37.17107 q -0.85448,-2.34989 -1.49537,-4.48616 -0.53406,-2.24308 -0.96132,-4.05892 -0.42726,-2.02943 -0.8545,-3.84526 h -0.21363 q -0.42726,1.92265 -0.85452,3.95208 -0.42725,1.81583 -1.06813,4.05893 -0.64088,2.13625 -1.38856,4.37933 l -3.73847,11.21541 h 14.41979 z"
     style="font-style:normal;font-variant:normal;font-weight:normal;font-stretch:normal;font-family:Kievit;-inkscape-font-specification:Kievit;stroke-width:0.05080637"
     id="path20379"
     inkscape:connector-curvature="0" /><path
     d="m -44.118031,-157.92122 v -71.13773 H 0.52996797 v 16.55608 H -24.037113 v 10.68134 h 21.6831184 v 15.38113 H -24.037113 v 11.9631 H 1.2776602 v 16.55608 z"
     style="font-style:normal;font-variant:normal;font-weight:normal;font-stretch:normal;font-family:Kievit;-inkscape-font-specification:Kievit;stroke-width:0.05080637"
     id="path20381"
     inkscape:connector-curvature="0" /><path
     d="m 62.773803,-157.92122 -21.789931,-30.65546 q -2.029455,-2.77714 -3.524842,-4.9134 -1.388574,-2.24309 -2.349896,-3.73847 -1.174946,-1.81583 -1.92264,-3.20441 h -0.213626 q 0,1.60219 0.106816,3.41803 0.106816,1.49539 0.106816,3.41803 0.106817,1.92265 0.106817,3.9521 v 31.72358 H 14.921415 v -71.13773 h 20.614983 l 19.440039,27.87829 q 1.815828,2.77716 3.311215,5.12705 1.602201,2.3499 2.670334,4.16573 1.174948,2.02945 2.243081,3.84529 h 0.213627 q -0.106816,-2.02947 -0.213627,-4.05892 -0.106816,-1.81584 -0.213626,-3.9521 0,-2.24308 0,-4.37935 v -28.62599 h 18.371908 v 71.13773 z"
     style="font-style:normal;font-variant:normal;font-weight:normal;font-stretch:normal;font-family:Kievit;-inkscape-font-specification:Kievit;stroke-width:0.05080637"
     id="path20383"
     inkscape:connector-curvature="0" /><path
     d="m 125.75365,-157.92122 -8.01101,-29.16007 q -0.53407,-1.60219 -0.96132,-3.41801 -0.32044,-1.92265 -0.74769,-3.41805 -0.42726,-1.81582 -0.85451,-3.63165 h -0.21362 q -0.1068,1.70901 -0.21364,3.63165 -0.10679,1.60222 -0.32043,3.52484 -0.1068,1.81583 -0.32044,3.52486 l -3.63166,28.94643 H 92.321053 l 9.933647,-71.13773 h 19.86729 l 11.85628,40.37547 q 0.53408,1.70902 0.96133,3.73845 0.53406,1.92265 0.96131,3.73847 0.42726,2.02947 0.96133,4.05893 h 0.21362 q 0.53407,-2.02946 1.06814,-4.05893 0.53407,-1.81582 0.96132,-3.73847 0.53407,-2.02943 1.06814,-3.73845 l 12.49715,-40.37547 h 19.8673 l 9.82684,71.13773 h -20.82862 l -3.31121,-28.94643 q -0.21363,-2.02946 -0.42727,-3.9521 -0.21361,-1.92265 -0.42724,-3.41802 -0.21363,-1.81584 -0.32044,-3.31123 h -0.21363 q -0.42724,1.60221 -0.85451,3.31123 -0.42725,1.49537 -0.85451,3.41802 -0.42724,1.81582 -0.96131,3.63165 l -8.22464,29.26688 z"
     style="font-style:normal;font-variant:normal;font-weight:normal;font-stretch:normal;font-family:Kievit;-inkscape-font-specification:Kievit;stroke-width:0.05080637"
     id="path20385"
     inkscape:connector-curvature="0" /><path
     d="m 207.28397,-157.92122 h -20.61498 l 27.13061,-71.13773 h 19.54684 l 28.19874,71.13773 H 239.328 l -3.41804,-10.04045 H 210.5952 Z m 19.22642,-37.17107 q -0.85451,-2.3499 -1.49539,-4.48616 -0.53406,-2.24308 -0.96132,-4.05892 -0.42726,-2.02943 -0.85451,-3.84526 h -0.21362 q -0.42726,1.92262 -0.85451,3.95208 -0.42725,1.81583 -1.06813,4.05891 -0.64088,2.13627 -1.38858,4.37935 l -3.73847,11.21541 h 14.4198 z"
     style="font-style:normal;font-variant:normal;font-weight:normal;font-stretch:normal;font-family:Kievit;-inkscape-font-specification:Kievit;stroke-width:0.05080637"
     id="path20387"
     inkscape:connector-curvature="0" /><path
     d="m 326.66965,-205.13274 q 0,6.30197 -2.24308,10.89497 -2.24307,4.59297 -6.30198,7.69055 -4.05892,3.09759 -9.82683,4.59298 -5.66112,1.49539 -12.604,1.49539 h -5.23384 v 22.53763 h -20.40136 v -71.13773 h 27.66466 q 6.08837,0 11.32221,1.4954 5.3407,1.38855 9.18596,4.37933 3.95211,2.88398 6.19518,7.37013 2.24308,4.48617 2.24308,10.68135 z m -20.29454,0.21361 q 0,-4.91342 -2.56352,-6.94285 -2.45671,-2.13628 -7.47695,-2.13628 h -5.87472 v 18.58554 h 5.44748 q 5.44748,0 7.90419,-2.2431 2.56352,-2.24308 2.56352,-7.26331 z"
     style="font-style:normal;font-variant:normal;font-weight:normal;font-stretch:normal;font-family:Kievit;-inkscape-font-specification:Kievit;stroke-width:0.05080637"
     id="path20389"
     inkscape:connector-curvature="0" /><path
     d="m 344.76449,-157.92122 h -20.61498 l 27.13059,-71.13773 h 19.54685 l 28.19874,71.13773 H 376.8085 l -3.41802,-10.04045 h -25.31479 z m 19.2264,-37.17107 q -0.85449,-2.3499 -1.49538,-4.48616 -0.53406,-2.24308 -0.96133,-4.05892 -0.42725,-2.02943 -0.85449,-3.84526 h -0.21363 q -0.42726,1.92262 -0.85452,3.95208 -0.42725,1.81583 -1.06813,4.05891 -0.64088,2.13627 -1.38858,4.37935 l -3.73845,11.21541 h 14.41979 z"
     style="font-style:normal;font-variant:normal;font-weight:normal;font-stretch:normal;font-family:Kievit;-inkscape-font-specification:Kievit;stroke-width:0.05080637"
     id="path20391"
     inkscape:connector-curvature="0" /><path
     d="m 453.04157,-179.39072 q 0,10.78816 -7.1565,16.76971 -7.04968,5.98155 -20.18773,5.98155 -4.48616,0 -8.22463,-0.7477 -3.73847,-0.64088 -6.72924,-1.70901 -2.88396,-1.06813 -5.02024,-2.24308 -2.13626,-1.17494 -3.41802,-2.13628 l 8.011,-14.09937 q 0.64089,0.32045 1.92263,1.17495 1.28177,0.7477 3.20442,1.60221 1.92263,0.7477 4.27253,1.38857 2.34989,0.53408 5.12705,0.53408 8.75868,0 8.75868,-5.23387 0,-1.70902 -1.28176,-2.67033 -1.17495,-1.06814 -3.31121,-1.92264 -2.13627,-0.85452 -4.91341,-1.81583 -2.77716,-1.06812 -5.98154,-2.67034 -3.31123,-1.60219 -5.98155,-3.63165 -2.56353,-2.02947 -4.48618,-4.59297 -1.81582,-2.67034 -2.77713,-6.08837 -0.96134,-3.41804 -0.96134,-7.79737 0,-4.80662 1.81583,-8.65189 1.92264,-3.84529 5.12706,-6.62242 3.3112,-2.77717 7.79737,-4.27255 4.59297,-1.49539 9.93365,-1.49539 4.69979,0 8.22463,0.64089 3.63165,0.64087 6.30199,1.60221 2.77714,0.85448 4.69978,1.92261 1.92265,1.06816 3.20441,2.02947 l -7.58376,14.09937 q -0.96131,-0.53406 -2.45671,-1.17495 -1.38858,-0.74769 -3.20441,-1.38858 -1.81582,-0.64087 -3.73845,-1.06813 -1.92264,-0.42726 -3.84529,-0.42726 -3.63165,0 -5.44748,1.06815 -1.709,1.06813 -1.709,3.73847 0,1.60219 0.9613,2.67032 0.96131,0.96134 2.67034,1.92264 1.81583,0.85452 4.27254,1.70902 2.45671,0.85451 5.34067,2.13627 3.52484,1.6022 6.51561,3.41802 3.09759,1.70902 5.34067,4.16573 2.34989,2.45671 3.63165,5.87474 1.28177,3.31121 1.28177,8.011 z"
     style="font-style:normal;font-variant:normal;font-weight:normal;font-stretch:normal;font-family:Kievit;-inkscape-font-specification:Kievit;stroke-width:0.05080637"
     id="path20393"
     inkscape:connector-curvature="0" /></g></g></svg>