<?xml version="1.0" encoding="UTF-8" standalone="no"?>
<!-- Generator: Adobe Illustrator 23.0.3, SVG Export Plug-In . SVG Version: 6.00 Build 0)  -->

<svg
   xmlns:dc="http://purl.org/dc/elements/1.1/"
   xmlns:cc="http://creativecommons.org/ns#"
   xmlns:rdf="http://www.w3.org/1999/02/22-rdf-syntax-ns#"
   xmlns:svg="http://www.w3.org/2000/svg"
   xmlns="http://www.w3.org/2000/svg"
   xmlns:xlink="http://www.w3.org/1999/xlink"
   xmlns:sodipodi="http://sodipodi.sourceforge.net/DTD/sodipodi-0.dtd"
   xmlns:inkscape="http://www.inkscape.org/namespaces/inkscape"
   version="1.1"
   id="Layer_1"
   x="0px"
   y="0px"
   viewBox="0 0 595.28 432"
   style="enable-background:new 0 0 595.28 432;"
   xml:space="preserve"
   sodipodi:docname="i25m.svg"
   inkscape:version="0.92.4 (unknown)"><metadata
   id="metadata8157"><rdf:RDF><cc:Work
       rdf:about=""><dc:format>image/svg+xml</dc:format><dc:type
         rdf:resource="http://purl.org/dc/dcmitype/StillImage" /></cc:Work></rdf:RDF></metadata><defs
   id="defs8155" /><sodipodi:namedview
   pagecolor="#ffffff"
   bordercolor="#666666"
   borderopacity="1"
   objecttolerance="10"
   gridtolerance="10"
   guidetolerance="10"
   inkscape:pageopacity="0"
   inkscape:pageshadow="2"
   inkscape:window-width="1920"
   inkscape:window-height="785"
   id="namedview8153"
   showgrid="false"
   inkscape:zoom="1.5451593"
   inkscape:cx="211.69305"
   inkscape:cy="204.75289"
   inkscape:window-x="0"
   inkscape:window-y="34"
   inkscape:window-maximized="0"
   inkscape:current-layer="g8104" />
<style
   type="text/css"
   id="style2">
	.st0{clip-path:url(#SVGID_2_);}
	.st1{fill:#54075B;}
</style>
<g
   id="g8150"
   transform="matrix(0.69498214,0,0,0.69498214,90.785515,65.883857)"
   style="stroke-width:1.43888593">
	<g
   id="g8104"
   style="stroke-width:1.43888593">
		<defs
   id="defs5">
			<path
   id="SVGID_1_"
   d="m 69.59,262.46 62.01,-47.34 c 15.39,-12.07 21.54,-19.88 21.54,-29.82 0,-10.65 -7.34,-17.04 -18.7,-17.04 -11.13,0 -19.88,6.63 -32.9,21.54 L 70.53,164 c 17.75,-22.96 35.5,-35.5 67.46,-35.5 36.22,0 61.07,21.54 61.07,52.78 v 0.47 c 0,26.51 -13.73,40.24 -38.35,57.99 l -28.4,19.88 h 68.41 v 37.4 H 69.59 Z m 132.78,11.59 26.27,-30.77 c 13.25,11.36 26.04,17.99 40.24,17.99 15.15,0 24.14,-7.57 24.14,-19.41 v -0.47 c 0,-12.07 -9.94,-19.17 -24.38,-19.17 -10.18,0 -18.7,3.55 -26.51,8.28 l -27.22,-15.38 4.73,-83.79 h 110.77 v 37.87 h -74.56 l -1.42,25.09 c 7.57,-3.55 15.39,-5.92 26.51,-5.92 29.82,0 56.81,16.57 56.81,52.54 v 0.47 c 0,36.69 -28.17,58.94 -68.41,58.94 -29.34,0.01 -49.69,-10.17 -66.97,-26.27 z M 349.59,131.33 h 48.52 l 39.53,64.14 39.53,-64.14 h 48.52 v 165.69 h -45.68 v -95.15 l -42.37,64.85 h -0.95 L 394.56,202.1 v 94.91 h -44.97 z"
   inkscape:connector-curvature="0" />
		</defs>
		<use
   xlink:href="#SVGID_1_"
   style="overflow:visible;fill:#54075b;stroke-width:1.43888593"
   id="use7"
   x="0"
   y="0"
   width="100%"
   height="100%" />
		<clipPath
   id="SVGID_2_">
			<use
   xlink:href="#SVGID_1_"
   style="overflow:visible"
   id="use9"
   x="0"
   y="0"
   width="100%"
   height="100%" />
		</clipPath>
		
	</g>
	<g
   id="g8126"
   style="stroke-width:1.43888593">
		<g
   id="g8124"
   style="stroke-width:1.43888593">
			<path
   class="st1"
   d="m 69.87,70.33 h 4.39 v 38.93 h -4.39 z"
   id="path8106"
   inkscape:connector-curvature="0"
   style="fill:#54075b;stroke-width:1.43888593" />
			<path
   class="st1"
   d="m 105.44,70.33 h 4.12 l 24.53,31.2 v -31.2 h 4.28 v 38.93 h -3.5 L 109.73,77.34 v 31.92 h -4.28 V 70.33 Z"
   id="path8108"
   inkscape:connector-curvature="0"
   style="fill:#54075b;stroke-width:1.43888593" />
			<path
   class="st1"
   d="m 166.59,103.59 2.73,-3.23 c 4.06,3.67 7.95,5.51 13.35,5.51 5.23,0 8.68,-2.78 8.68,-6.62 v -0.11 c 0,-3.62 -1.95,-5.67 -10.12,-7.4 -8.95,-1.95 -13.07,-4.84 -13.07,-11.23 V 80.4 c 0,-6.12 5.39,-10.62 12.79,-10.62 5.67,0 9.73,1.61 13.68,4.78 l -2.56,3.39 c -3.61,-2.95 -7.23,-4.23 -11.23,-4.23 -5.06,0 -8.29,2.78 -8.29,6.28 v 0.11 c 0,3.67 2,5.73 10.57,7.56 8.68,1.89 12.68,5.06 12.68,11.01 v 0.11 c 0,6.67 -5.56,11.01 -13.29,11.01 -6.19,0.01 -11.25,-2.04 -15.92,-6.21 z"
   id="path8110"
   inkscape:connector-curvature="0"
   style="fill:#54075b;stroke-width:1.43888593" />
			<path
   class="st1"
   d="M 233.97,74.39 H 220.9 v -4.06 h 30.59 v 4.06 h -13.07 v 34.87 h -4.45 V 74.39 Z"
   id="path8112"
   inkscape:connector-curvature="0"
   style="fill:#54075b;stroke-width:1.43888593" />
			<path
   class="st1"
   d="m 279.89,70.33 h 4.39 v 38.93 h -4.39 z"
   id="path8114"
   inkscape:connector-curvature="0"
   style="fill:#54075b;stroke-width:1.43888593" />
			<path
   class="st1"
   d="m 325.74,74.39 h -13.07 v -4.06 h 30.59 v 4.06 h -13.07 v 34.87 h -4.45 z"
   id="path8116"
   inkscape:connector-curvature="0"
   style="fill:#54075b;stroke-width:1.43888593" />
			<path
   class="st1"
   d="M 370.66,92.96 V 70.33 h 4.39 v 22.36 c 0,8.4 4.5,13.13 11.9,13.13 7.17,0 11.74,-4.34 11.74,-12.85 V 70.33 h 4.39 v 22.3 c 0,11.35 -6.51,17.24 -16.24,17.24 -9.62,0 -16.18,-5.89 -16.18,-16.91 z"
   id="path8118"
   inkscape:connector-curvature="0"
   style="fill:#54075b;stroke-width:1.43888593" />
			<path
   class="st1"
   d="m 443.55,74.39 h -13.07 v -4.06 h 30.59 v 4.06 H 448 v 34.87 h -4.45 z"
   id="path8120"
   inkscape:connector-curvature="0"
   style="fill:#54075b;stroke-width:1.43888593" />
			<path
   class="st1"
   d="m 484.68,89.9 v -0.11 c 0,-10.73 8.06,-20.13 19.91,-20.13 11.85,0 19.8,9.29 19.8,20.02 v 0.11 c 0,10.73 -8.06,20.13 -19.91,20.13 -11.85,0.01 -19.8,-9.28 -19.8,-20.02 z m 35.15,0 v -0.11 c 0,-8.84 -6.45,-16.07 -15.35,-16.07 -8.9,0 -15.24,7.12 -15.24,15.96 v 0.11 c 0,8.84 6.45,16.07 15.35,16.07 8.9,0.01 15.24,-7.11 15.24,-15.96 z"
   id="path8122"
   inkscape:connector-curvature="0"
   style="fill:#54075b;stroke-width:1.43888593" />
		</g>
	</g>
	<g
   id="g8148"
   style="stroke-width:1.43888593">
		<path
   class="st1"
   d="M 72.89,324.37 H 87.3 c 13.24,0 20.95,7.66 20.95,18.4 v 0.11 c 0,10.74 -7.82,18.72 -21.16,18.72 h -14.2 z m 10.31,9.1 v 18.98 h 4.2 c 6.22,0 10.32,-3.4 10.32,-9.41 v -0.11 c 0,-5.95 -4.09,-9.47 -10.32,-9.47 h -4.2 z"
   id="path8128"
   inkscape:connector-curvature="0"
   style="fill:#54075b;stroke-width:1.43888593" />
		<path
   class="st1"
   d="m 121.63,324.37 h 29.94 v 8.72 h -19.73 v 5.69 h 17.87 v 8.13 h -17.87 v 5.9 h 19.99 v 8.77 h -30.2 z"
   id="path8130"
   inkscape:connector-curvature="0"
   style="fill:#54075b;stroke-width:1.43888593" />
		<path
   class="st1"
   d="m 165.16,324.37 h 10.9 l 8.88,14.41 8.88,-14.41 h 10.9 v 37.22 h -10.26 v -21.38 l -9.52,14.57 h -0.21 l -9.46,-14.52 v 21.32 h -10.1 v -37.21 z"
   id="path8132"
   inkscape:connector-curvature="0"
   style="fill:#54075b;stroke-width:1.43888593" />
		<path
   class="st1"
   d="m 218.1,343.09 v -0.11 c 0,-10.69 8.61,-19.36 20.1,-19.36 11.48,0 19.99,8.56 19.99,19.25 v 0.11 c 0,10.69 -8.61,19.36 -20.1,19.36 -11.48,0 -19.99,-8.56 -19.99,-19.25 z m 29.51,0 v -0.11 c 0,-5.42 -3.83,-10.05 -9.52,-10.05 -5.69,0 -9.46,4.57 -9.46,9.94 v 0.11 c 0,5.37 3.88,10.05 9.57,10.05 5.64,0 9.41,-4.57 9.41,-9.94 z"
   id="path8134"
   inkscape:connector-curvature="0"
   style="fill:#54075b;stroke-width:1.43888593" />
		<path
   class="st1"
   d="m 270.3,343.09 v -0.11 c 0,-10.85 8.29,-19.36 19.57,-19.36 7.6,0 12.5,3.19 15.79,7.71 l -7.76,6.01 c -2.13,-2.61 -4.57,-4.36 -8.14,-4.36 -5.21,0 -8.88,4.47 -8.88,9.89 v 0.11 c 0,5.58 3.67,9.94 8.88,9.94 3.88,0 6.17,-1.81 8.4,-4.52 l 7.76,5.53 c -3.51,4.84 -8.24,8.4 -16.43,8.4 -10.63,0.01 -19.19,-8.13 -19.19,-19.24 z"
   id="path8136"
   inkscape:connector-curvature="0"
   style="fill:#54075b;stroke-width:1.43888593" />
		<path
   class="st1"
   d="M 318.4,324.37 H 336 c 5.69,0 9.62,1.49 12.12,3.99 2.18,2.18 3.3,5 3.3,8.67 v 0.11 c 0,5.74 -3.03,9.52 -7.66,11.49 l 8.88,12.97 h -11.86 l -7.5,-11.27 h -4.57 V 361.6 H 318.4 Z m 17.18,17.87 c 3.46,0 5.53,-1.7 5.53,-4.41 v -0.11 c 0,-2.98 -2.18,-4.47 -5.58,-4.47 h -6.81 v 8.99 z"
   id="path8138"
   inkscape:connector-curvature="0"
   style="fill:#54075b;stroke-width:1.43888593" />
		<path
   class="st1"
   d="m 376.82,324.11 h 9.94 l 15.84,37.49 h -11.06 l -2.66,-6.7 h -14.41 l -2.66,6.7 h -10.79 z m 9.04,22.76 -4.15,-10.53 -4.2,10.53 z"
   id="path8140"
   inkscape:connector-curvature="0"
   style="fill:#54075b;stroke-width:1.43888593" />
		<path
   class="st1"
   d="m 410.62,343.09 v -0.11 c 0,-10.85 8.29,-19.36 19.57,-19.36 7.6,0 12.5,3.19 15.79,7.71 l -7.76,6.01 c -2.13,-2.61 -4.57,-4.36 -8.14,-4.36 -5.21,0 -8.88,4.47 -8.88,9.89 v 0.11 c 0,5.58 3.67,9.94 8.88,9.94 3.88,0 6.17,-1.81 8.4,-4.52 l 7.76,5.53 c -3.51,4.84 -8.24,8.4 -16.43,8.4 -10.63,0.01 -19.19,-8.13 -19.19,-19.24 z"
   id="path8142"
   inkscape:connector-curvature="0"
   style="fill:#54075b;stroke-width:1.43888593" />
		<path
   class="st1"
   d="m 458.99,324.37 h 10.32 v 37.22 h -10.32 z"
   id="path8144"
   inkscape:connector-curvature="0"
   style="fill:#54075b;stroke-width:1.43888593" />
		<path
   class="st1"
   d="m 496.99,324.11 h 9.94 l 15.84,37.49 h -11.06 l -2.66,-6.7 h -14.41 l -2.66,6.7 H 481.2 Z m 9.04,22.76 -4.15,-10.53 -4.2,10.53 z"
   id="path8146"
   inkscape:connector-curvature="0"
   style="fill:#54075b;stroke-width:1.43888593" />
	</g>
</g>
</svg>