<?xml version="1.0" encoding="UTF-8" standalone="no"?>
<!-- Generator: Adobe Illustrator 23.0.3, SVG Export Plug-In . SVG Version: 6.00 Build 0)  -->

<svg
   xmlns:dc="http://purl.org/dc/elements/1.1/"
   xmlns:cc="http://creativecommons.org/ns#"
   xmlns:rdf="http://www.w3.org/1999/02/22-rdf-syntax-ns#"
   xmlns:svg="http://www.w3.org/2000/svg"
   xmlns="http://www.w3.org/2000/svg"
   xmlns:sodipodi="http://sodipodi.sourceforge.net/DTD/sodipodi-0.dtd"
   xmlns:inkscape="http://www.inkscape.org/namespaces/inkscape"
   version="1.1"
   id="Capa_12"
   x="0px"
   y="0px"
   viewBox="0 0 2303.1 1080"
   style="enable-background:new 0 0 2303.1 1080;"
   xml:space="preserve"
   sodipodi:docname="ruta.svg"
   inkscape:version="0.92.4 (unknown)"><metadata
   id="metadata1007"><rdf:RDF><cc:Work
       rdf:about=""><dc:format>image/svg+xml</dc:format><dc:type
         rdf:resource="http://purl.org/dc/dcmitype/StillImage" /><dc:title></dc:title></cc:Work></rdf:RDF></metadata><defs
   id="defs1005" /><sodipodi:namedview
   pagecolor="#ffffff"
   bordercolor="#666666"
   borderopacity="1"
   objecttolerance="10"
   gridtolerance="10"
   guidetolerance="10"
   inkscape:pageopacity="0"
   inkscape:pageshadow="2"
   inkscape:window-width="1920"
   inkscape:window-height="983"
   id="namedview1003"
   showgrid="false"
   inkscape:zoom="0.38500797"
   inkscape:cx="743.69666"
   inkscape:cy="620.74588"
   inkscape:window-x="0"
   inkscape:window-y="34"
   inkscape:window-maximized="1"
   inkscape:current-layer="text1011" />
<style
   type="text/css"
   id="style948">
	.st0{fill:#1D1D1B;}
</style>

<g
   aria-label="COLECCION DE MAPAS"
   style="font-style:normal;font-weight:normal;font-size:239.03622437px;line-height:1.25;font-family:sans-serif;letter-spacing:0px;word-spacing:0px;fill:#000000;fill-opacity:1;stroke:none;stroke-width:0.22118266"
   id="text1011"
   transform="matrix(4.5211502,0,0,4.5211502,231.39642,920.52364)"><g
   aria-label="#LARUTA"
   style="font-style:normal;font-weight:normal;font-size:89.22472382px;line-height:1.25;font-family:sans-serif;letter-spacing:0px;word-spacing:0px;fill:#000000;fill-opacity:1;stroke:none;stroke-width:0.22118264"
   id="text1901"><path
     d="m 0.05828915,-135.05446 -1.87371925,11.15309 h -6.2457306 l -0.8030225,5.53193 h 6.4241801 l -1.8737192,11.15309 h -6.2457307 l -1.427596,9.814724 h -10.528517 l 1.51682,-9.814724 h -5.710382 l -1.51682,9.814724 h -10.528518 l 1.516821,-9.814724 h -7.405652 l 1.873719,-11.15309 h 7.227202 l 0.803023,-5.53193 h -7.227203 l 1.784495,-11.15309 h 7.137978 l 1.606045,-10.17162 h 10.528517 l -1.606045,10.17162 h 5.621158 l 1.606045,-10.17162 h 10.5285171 l -1.6060451,10.17162 z m -24.53679915,10.70697 -0.981472,6.42418 h 6.42418 l 0.981472,-6.42418 z"
     style="font-style:normal;font-variant:normal;font-weight:normal;font-stretch:normal;font-family:Kievit;-inkscape-font-specification:Kievit;stroke-width:0.22118264"
     id="path911" /><path
     d="M 7.3970229,-90.798996 V -150.22266 H 24.52817 v 45.95073 h 21.146259 v 13.472934 z"
     style="font-style:normal;font-variant:normal;font-weight:normal;font-stretch:normal;font-family:Kievit;-inkscape-font-specification:Kievit;stroke-width:0.22118264"
     id="path913" /><path
     d="M 67.523332,-90.798996 H 50.30296 l 22.66308,-59.423664 h 16.328125 l 23.555325,59.423664 H 94.290749 L 91.435558,-99.18612 H 70.289299 Z m 16.06045,-31.050204 q -0.713797,-1.96294 -1.249146,-3.74744 -0.446123,-1.87372 -0.803022,-3.39054 -0.356899,-1.69527 -0.713798,-3.21209 h -0.178449 q -0.356899,1.60605 -0.713798,3.30132 -0.356899,1.51682 -0.892247,3.39054 -0.535349,1.78449 -1.159922,3.65821 l -3.122865,9.3686 h 12.045337 z"
     style="font-style:normal;font-variant:normal;font-weight:normal;font-stretch:normal;font-family:Kievit;-inkscape-font-specification:Kievit;stroke-width:0.22118264"
     id="path915" /><path
     d="m 153.42025,-90.798996 -10.08239,-16.952694 q -1.0707,-1.69527 -1.7845,-2.67675 -0.7138,-1.07069 -1.33837,-1.60604 -0.62457,-0.53535 -1.15992,-0.7138 -0.53535,-0.17845 -1.24915,-0.17845 h -0.62457 v 22.127734 h -17.04192 v -59.423664 h 22.7523 q 11.42077,0 17.57727,4.55046 6.15651,4.55046 6.15651,13.56216 0,3.65821 -1.0707,6.42418 -0.98147,2.67674 -2.67674,4.63968 -1.60604,1.96295 -3.74744,3.30132 -2.05217,1.24914 -4.10433,1.96294 v 0.17845 q 1.51682,1.0707 3.30131,3.30132 1.87372,2.14139 4.19356,6.06728 l 9.19015,15.435874 z m -3.47976,-40.151124 q 0,-3.39054 -1.87372,-4.99659 -1.7845,-1.69527 -6.06728,-1.69527 h -4.81814 v 13.29449 h 5.35348 q 3.74744,0 5.53194,-1.69527 1.87372,-1.7845 1.87372,-4.90736 z"
     style="font-style:normal;font-variant:normal;font-weight:normal;font-stretch:normal;font-family:Kievit;-inkscape-font-specification:Kievit;stroke-width:0.22118264"
     id="path917" /><path
     d="m 230.12006,-116.22804 q 0,13.20526 -6.60263,19.897111 -6.51341,6.60263 -19.18332,6.60263 -13.56216,0 -20.43246,-5.978057 -6.78108,-6.067284 -6.78108,-18.737194 v -35.77911 h 17.04192 v 34.61919 q 0,3.12287 0.53535,5.44271 0.53535,2.31984 1.69527,3.83666 1.24915,1.4276 3.21209,2.1414 2.05217,0.71379 5.08581,0.71379 5.53193,0 7.67333,-2.94441 2.14139,-3.03364 2.14139,-8.83325 v -34.97609 h 15.61433 v 33.99462 z"
     style="font-style:normal;font-variant:normal;font-weight:normal;font-stretch:normal;font-family:Kievit;-inkscape-font-specification:Kievit;stroke-width:0.22118264"
     id="path919" /><path
     d="m 270.30463,-136.39283 v 45.593834 h -17.04192 v -45.593834 h -15.97122 v -13.82983 h 48.98437 v 13.82983 z"
     style="font-style:normal;font-variant:normal;font-weight:normal;font-stretch:normal;font-family:Kievit;-inkscape-font-specification:Kievit;stroke-width:0.22118264"
     id="path921" /><path
     d="M 301.30257,-90.798996 H 284.0822 l 22.66308,-59.423664 h 16.32812 l 23.55533,59.423664 h -18.55874 l -2.8552,-8.387124 h -21.14626 z m 16.06045,-31.050204 q -0.7138,-1.96294 -1.24915,-3.74744 -0.44612,-1.87372 -0.80302,-3.39054 -0.3569,-1.69527 -0.7138,-3.21209 h -0.17845 q -0.3569,1.60605 -0.7138,3.30132 -0.35689,1.51682 -0.89224,3.39054 -0.53535,1.78449 -1.15992,3.65821 l -3.12287,9.3686 h 12.04534 z"
     style="font-style:normal;font-variant:normal;font-weight:normal;font-stretch:normal;font-family:Kievit;-inkscape-font-specification:Kievit;stroke-width:0.22118264"
     id="path923" /></g>
<g
   aria-label="DELDINERO"
   style="font-style:normal;font-weight:normal;font-size:89.22472382px;line-height:1.25;font-family:sans-serif;letter-spacing:0px;word-spacing:0px;fill:#000000;fill-opacity:1;stroke:none;stroke-width:0.22118264"
   id="text1909"><path
     d="m 15.048043,-49.71262 q 0,6.42418 -2.141394,12.045338 -2.052168,5.531933 -6.4241797,9.725495 -4.2827868,4.104337 -10.7961916,6.513405 -6.5134047,2.319842 -15.3466527,2.319842 h -20.700136 v -59.423666 h 21.235485 q 8.744022,0 15.1682026,2.141394 6.4241801,2.052168 10.6177421,5.888832 4.2827863,3.747438 6.3349553,9.100921 2.052169,5.264259 2.052169,11.688439 z m -18.0233945,0.535348 q 0,-8.387124 -3.8366631,-12.134562 -3.7474384,-3.747438 -11.9561134,-3.747438 h -4.55046 v 32.477799 h 4.996584 q 7.851776,0 11.5992141,-4.193562 3.7474384,-4.193562 3.7474384,-12.402237 z"
     style="font-style:normal;font-variant:normal;font-weight:normal;font-stretch:normal;font-family:Kievit;-inkscape-font-specification:Kievit;stroke-width:0.22118264"
     id="path892" /><path
     d="m 24.641091,-19.10854 v -59.423666 h 37.295935 v 13.829833 H 41.41534 v 8.922472 h 18.112618 v 12.84836 H 41.41534 v 9.993169 h 21.146259 v 13.829832 z"
     style="font-style:normal;font-variant:normal;font-weight:normal;font-stretch:normal;font-family:Kievit;-inkscape-font-specification:Kievit;stroke-width:0.22118264"
     id="path894" /><path
     d="m 74.315564,-19.10854 v -59.423666 h 17.131147 v 45.950733 h 21.146259 v 13.472933 z"
     style="font-style:normal;font-variant:normal;font-weight:normal;font-stretch:normal;font-family:Kievit;-inkscape-font-specification:Kievit;stroke-width:0.22118264"
     id="path896" /><path
     d="m 178.162,-49.71262 q 0,6.42418 -2.1414,12.045338 -2.05217,5.531933 -6.42418,9.725495 -4.28278,4.104337 -10.79619,6.513405 -6.5134,2.319842 -15.34665,2.319842 h -20.70014 v -59.423666 h 21.23549 q 8.74402,0 15.1682,2.141394 6.42418,2.052168 10.61774,5.888832 4.28279,3.747438 6.33496,9.100921 2.05217,5.264259 2.05217,11.688439 z m -18.0234,0.535348 q 0,-8.387124 -3.83666,-12.134562 -3.74744,-3.747438 -11.95611,-3.747438 h -4.55047 v 32.477799 h 4.99659 q 7.85177,0 11.59921,-4.193562 3.74744,-4.193562 3.74744,-12.402237 z"
     style="font-style:normal;font-variant:normal;font-weight:normal;font-stretch:normal;font-family:Kievit;-inkscape-font-specification:Kievit;stroke-width:0.22118264"
     id="path898" /><path
     d="m 188.29038,-19.10854 v -59.423666 h 17.13114 v 59.423666 z"
     style="font-style:normal;font-variant:normal;font-weight:normal;font-stretch:normal;font-family:Kievit;-inkscape-font-specification:Kievit;stroke-width:0.22118264"
     id="path900" /><path
     d="m 259.61857,-19.10854 -18.20184,-25.607495 q -1.69527,-2.319843 -2.94442,-4.104338 -1.15992,-1.873719 -1.96294,-3.122865 -0.98147,-1.51682 -1.60604,-2.676742 h -0.17845 q 0,1.338371 0.0892,2.855192 0.0892,1.249146 0.0892,2.855191 0.0892,1.606045 0.0892,3.301314 V -19.10854 H 219.6459 v -59.423666 h 17.22037 l 16.2389,23.287653 q 1.51682,2.319843 2.76597,4.282787 1.33837,1.962944 2.23061,3.479764 0.98148,1.69527 1.87372,3.21209 h 0.17845 q -0.0892,-1.695269 -0.17845,-3.390539 -0.0892,-1.516821 -0.17845,-3.301315 0,-1.873719 0,-3.658214 v -23.912226 h 15.34666 v 59.423666 z"
     style="font-style:normal;font-variant:normal;font-weight:normal;font-stretch:normal;font-family:Kievit;-inkscape-font-specification:Kievit;stroke-width:0.22118264"
     id="path902" /><path
     d="m 287.95858,-19.10854 v -59.423666 h 37.29594 v 13.829833 h -20.52169 v 8.922472 h 18.11262 v 12.84836 h -18.11262 v 9.993169 h 21.14626 v 13.829832 z"
     style="font-style:normal;font-variant:normal;font-weight:normal;font-stretch:normal;font-family:Kievit;-inkscape-font-specification:Kievit;stroke-width:0.22118264"
     id="path904" /><path
     d="m 370.55697,-19.10854 -10.08239,-16.952697 q -1.0707,-1.69527 -1.7845,-2.676742 -0.7138,-1.070697 -1.33837,-1.606045 -0.62457,-0.535348 -1.15992,-0.713798 -0.53535,-0.178449 -1.24915,-0.178449 h -0.62457 v 22.127731 h -17.04192 v -59.423666 h 22.7523 q 11.42077,0 17.57727,4.550461 6.15651,4.550461 6.15651,13.562158 0,3.658214 -1.0707,6.42418 -0.98147,2.676742 -2.67674,4.639686 -1.60605,1.962944 -3.74744,3.301315 -2.05217,1.249146 -4.10434,1.962944 v 0.178449 q 1.51682,1.070697 3.30132,3.301315 1.87372,2.141393 4.19356,6.067281 l 9.19015,15.435877 z m -3.47977,-40.151125 q 0,-3.39054 -1.87371,-4.996585 -1.7845,-1.69527 -6.06729,-1.69527 h -4.81813 v 13.294484 h 5.35348 q 3.74744,0 5.53194,-1.695269 1.87371,-1.784495 1.87371,-4.90736 z"
     style="font-style:normal;font-variant:normal;font-weight:normal;font-stretch:normal;font-family:Kievit;-inkscape-font-specification:Kievit;stroke-width:0.22118264"
     id="path906" /><path
     d="m 455.10018,-49.266496 q 0,5.978056 -1.96295,11.599214 -1.87372,5.621157 -5.7996,9.993169 -3.83667,4.372011 -9.7255,7.048753 -5.88883,2.587517 -13.82983,2.587517 -7.941,0 -14.00828,-2.587517 -5.97806,-2.587517 -10.0824,-6.870304 -4.01511,-4.282786 -6.06728,-9.814719 -2.05217,-5.531933 -2.05217,-11.420765 0,-5.978056 1.96295,-11.509989 2.05217,-5.621158 5.97806,-9.903945 4.01511,-4.282786 9.99316,-6.870303 5.97806,-2.587517 13.91906,-2.587517 7.941,0 13.82983,2.587517 5.97806,2.498292 9.90395,6.691854 4.01511,4.193562 5.97805,9.725495 1.96295,5.442708 1.96295,11.33154 z m -17.93417,0.535348 q 0,-3.479764 -0.7138,-6.602629 -0.62457,-3.122866 -2.23062,-5.531933 -1.51682,-2.409068 -4.10433,-3.747439 -2.58752,-1.427595 -6.33496,-1.427595 -3.83666,0 -6.60263,1.338371 -2.67674,1.33837 -4.37201,3.658213 -1.69527,2.230618 -2.49829,5.264259 -0.7138,3.033641 -0.7138,6.513405 0,3.479764 0.7138,6.691854 0.80302,3.21209 2.40906,5.710382 1.69527,2.409068 4.28279,3.836664 2.67674,1.427595 6.42418,1.427595 3.83666,0 6.42418,-1.338371 2.67674,-1.427595 4.28279,-3.747438 1.60604,-2.409068 2.31984,-5.442708 0.7138,-3.122866 0.7138,-6.60263 z"
     style="font-style:normal;font-variant:normal;font-weight:normal;font-stretch:normal;font-family:Kievit;-inkscape-font-specification:Kievit;stroke-width:0.22118264"
     id="path908" /></g>
</g></svg>