<?xml version="1.0" encoding="utf-8"?>
<!-- Generator: Adobe Illustrator 23.0.3, SVG Export Plug-In . SVG Version: 6.00 Build 0)  -->
<svg version="1.1" id="Layer_1" xmlns="http://www.w3.org/2000/svg" xmlns:xlink="http://www.w3.org/1999/xlink" x="0px" y="0px"
	 viewBox="0 0 595.28 432" style="enable-background:new 0 0 595.28 432;" xml:space="preserve">
<style type="text/css">
	.st0{fill:#00984E;}
	.st1{fill:#C6262C;}
	.st2{enable-background:new    ;}
</style>
<g>
	<g>
		<path class="st0" d="M201.04,220.48c-28.54,7.03-53.94,22.02-53.94,22.02c-25.47,14.24-32.91,25.45-32.91,25.45
			s-7.67-21.36-30.69-24.63c-23.02-3.26-36.76,17.65-36.76,17.65l7.88,16.69c0,0,8.07-22.86,31.03-19.21
			c26.09,4.15,23.94,39.16,23.94,39.16s17.34-22.19,43.74-37.47c0,0,25.17-15.28,55.09-23.65L201.04,220.48z"/>
		<path class="st1" d="M197.36,166.87c-31.88,3.43-65.52,23.88-65.52,23.88c-17.65,9.35-26.09,17.95-26.09,17.95
			s-15.35-15.13-40.28-16.32c-23.24-1.11-42.12,19.58-42.12,19.58l21.22,44.86c0,0,13.18-18.58,33.57-17.71
			c27.51,1.17,36.83,22.25,36.83,22.25s11.05-12,33.61-24.31c0,0,39.33-21.51,67.37-23.01L197.36,166.87z"/>
	</g>
	<g>
		<path d="M271.71,233.61v-8.45h19.39v17.31c-3.71,2.53-6.99,4.25-9.85,5.17c-2.85,0.91-6.24,1.37-10.15,1.37
			c-4.82,0-8.75-0.82-11.79-2.47c-3.04-1.64-5.39-4.09-7.06-7.34c-1.67-3.25-2.51-6.98-2.51-11.19c0-4.43,0.91-8.29,2.74-11.56
			c1.83-3.28,4.5-5.77,8.03-7.47c2.75-1.31,6.46-1.97,11.11-1.97c4.49,0,7.84,0.41,10.07,1.22c2.22,0.81,4.07,2.07,5.54,3.78
			c1.47,1.71,2.57,3.87,3.31,6.5l-12.1,2.16c-0.5-1.53-1.34-2.71-2.54-3.52c-1.19-0.81-2.71-1.22-4.56-1.22
			c-2.75,0-4.94,0.96-6.58,2.87c-1.63,1.91-2.45,4.93-2.45,9.07c0,4.39,0.83,7.53,2.48,9.42c1.65,1.88,3.96,2.83,6.91,2.83
			c1.4,0,2.74-0.2,4.02-0.61s2.73-1.1,4.38-2.08v-3.82L271.71,233.61L271.71,233.61z"/>
		<path d="M324.97,207.71h12.52v24.19c0,2.4-0.37,4.66-1.12,6.79c-0.75,2.13-1.92,4-3.52,5.59c-1.6,1.6-3.27,2.72-5.03,3.36
			c-2.44,0.9-5.37,1.36-8.78,1.36c-1.98,0-4.13-0.14-6.47-0.42s-4.29-0.82-5.86-1.65c-1.57-0.82-3.01-1.99-4.31-3.5
			s-2.19-3.07-2.67-4.68c-0.78-2.58-1.16-4.87-1.16-6.87v-24.19h12.52v24.77c0,2.21,0.61,3.94,1.84,5.19s2.93,1.87,5.11,1.87
			c2.16,0,3.85-0.61,5.08-1.84c1.23-1.23,1.84-2.97,1.84-5.22v-24.75H324.97z"/>
		<path d="M345.78,207.71h33.62v8.67h-21.05v6.46h19.53v8.28h-19.53v8.01h21.66v9.2h-34.24L345.78,207.71L345.78,207.71z"/>
		<path d="M392.79,207.01h5.76L388.35,249h-5.7L392.79,207.01z"/>
		<path d="M402.62,207.71h11.72l15.29,22.47v-22.47h11.83v40.61h-11.83l-15.21-22.3v22.3h-11.8L402.62,207.71L402.62,207.71z"/>
		<path d="M470.2,233.61v-8.45h19.39v17.31c-3.71,2.53-7,4.25-9.85,5.17c-2.85,0.91-6.24,1.37-10.15,1.37
			c-4.82,0-8.75-0.82-11.78-2.47c-3.04-1.64-5.39-4.09-7.06-7.34c-1.67-3.25-2.51-6.98-2.51-11.19c0-4.43,0.92-8.29,2.74-11.56
			c1.83-3.28,4.51-5.77,8.04-7.47c2.75-1.31,6.45-1.97,11.11-1.97c4.49,0,7.84,0.41,10.07,1.22c2.22,0.81,4.07,2.07,5.54,3.78
			c1.47,1.71,2.57,3.87,3.31,6.5l-12.11,2.16c-0.5-1.53-1.34-2.71-2.53-3.52s-2.71-1.22-4.56-1.22c-2.75,0-4.94,0.96-6.58,2.87
			c-1.63,1.91-2.45,4.93-2.45,9.07c0,4.39,0.83,7.53,2.48,9.42c1.65,1.88,3.96,2.83,6.91,2.83c1.4,0,2.74-0.2,4.02-0.61
			c1.27-0.41,2.73-1.1,4.38-2.08v-3.82L470.2,233.61L470.2,233.61z"/>
		<path d="M497.04,207.71h12.55v30.61h19.58v10h-32.13V207.71z"/>
	</g>
	<g class="st2">
		<path d="M23.25,146.59v-16h2.22v16H23.25z"/>
		<path d="M28.04,146.59V145l7.74-8.47c-0.88,0.04-1.65,0.07-2.33,0.07H28.5V135h9.94v1.3l-6.59,7.36L30.58,145
			c0.92-0.07,1.79-0.1,2.6-0.1h5.62v1.69H28.04z"/>
		<path d="M48.61,151.04v-5.68c-0.32,0.43-0.77,0.79-1.35,1.07c-0.58,0.28-1.19,0.43-1.84,0.43c-1.44,0-2.69-0.55-3.73-1.65
			c-1.04-1.1-1.56-2.6-1.56-4.52c0-1.16,0.21-2.21,0.64-3.13s1.04-1.62,1.84-2.1c0.81-0.48,1.69-0.71,2.65-0.71
			c1.5,0,2.69,0.6,3.55,1.81V135h1.86v16.04H48.61z M42.25,140.77c0,1.49,0.33,2.61,0.98,3.36c0.66,0.75,1.44,1.12,2.36,1.12
			c0.88,0,1.63-0.35,2.27-1.06c0.63-0.71,0.95-1.79,0.95-3.24c0-1.54-0.33-2.7-1-3.48s-1.45-1.17-2.35-1.17
			c-0.89,0-1.65,0.36-2.27,1.09C42.57,138.1,42.25,139.23,42.25,140.77z"/>
		<path d="M61.87,146.59v-1.7c-0.95,1.31-2.23,1.96-3.86,1.96c-0.72,0-1.39-0.13-2.01-0.39c-0.62-0.26-1.08-0.59-1.39-0.99
			c-0.3-0.4-0.51-0.88-0.64-1.46c-0.08-0.39-0.13-1-0.13-1.83V135h2.06v6.43c0,1.03,0.04,1.72,0.13,2.07
			c0.13,0.52,0.4,0.92,0.82,1.22s0.94,0.44,1.56,0.44c0.62,0,1.2-0.15,1.74-0.45c0.54-0.3,0.93-0.71,1.15-1.23
			c0.23-0.52,0.34-1.28,0.34-2.27V135h2.06v11.59H61.87z"/>
		<path d="M66.96,132.85v-2.26h2.06v2.26H66.96z M66.96,146.59V135h2.06v11.59H66.96z"/>
		<path d="M80.49,142.86l2.13,0.25c-0.34,1.19-0.96,2.11-1.87,2.76c-0.91,0.65-2.07,0.98-3.48,0.98c-1.78,0-3.19-0.52-4.23-1.57
			c-1.04-1.04-1.56-2.51-1.56-4.39c0-1.95,0.53-3.46,1.58-4.54c1.05-1.08,2.42-1.62,4.1-1.62c1.63,0,2.96,0.53,3.99,1.58
			c1.03,1.06,1.55,2.54,1.55,4.45c0,0.12,0,0.29-0.01,0.52H73.6c0.08,1.27,0.45,2.25,1.13,2.93c0.68,0.68,1.53,1.02,2.54,1.02
			c0.76,0,1.4-0.19,1.94-0.57C79.75,144.3,80.17,143.69,80.49,142.86z M73.72,139.68h6.79c-0.09-0.98-0.35-1.71-0.78-2.19
			c-0.66-0.76-1.51-1.14-2.55-1.14c-0.95,0-1.74,0.3-2.39,0.91C74.14,137.87,73.79,138.67,73.72,139.68z"/>
		<path d="M85.18,146.59V135h1.86v1.76c0.47-0.82,0.91-1.36,1.31-1.63c0.4-0.26,0.84-0.39,1.32-0.39c0.69,0,1.4,0.21,2.12,0.63
			l-0.71,1.82c-0.5-0.28-1.01-0.43-1.51-0.43c-0.45,0-0.86,0.13-1.21,0.39c-0.36,0.26-0.61,0.62-0.77,1.08
			c-0.23,0.7-0.34,1.46-0.34,2.29v6.07H85.18z"/>
		<path d="M100.91,146.59v-1.46c-0.77,1.15-1.91,1.73-3.4,1.73c-0.97,0-1.86-0.25-2.67-0.76c-0.81-0.51-1.44-1.22-1.89-2.13
			c-0.45-0.91-0.67-1.96-0.67-3.15c0-1.16,0.2-2.21,0.61-3.15s1.01-1.66,1.82-2.17c0.81-0.5,1.71-0.75,2.71-0.75
			c0.73,0,1.39,0.15,1.96,0.44c0.57,0.29,1.04,0.68,1.4,1.15v-5.74h2.05v16H100.91z M94.39,140.81c0,1.48,0.33,2.59,0.98,3.33
			c0.66,0.74,1.43,1.1,2.33,1.1c0.9,0,1.67-0.35,2.3-1.05s0.94-1.77,0.94-3.21c0-1.59-0.32-2.75-0.96-3.49
			c-0.64-0.74-1.43-1.11-2.37-1.11c-0.92,0-1.68,0.36-2.3,1.07S94.39,139.27,94.39,140.81z"/>
		<path d="M114,145.16c-0.76,0.62-1.5,1.06-2.21,1.31c-0.71,0.25-1.46,0.38-2.27,0.38c-1.34,0-2.36-0.31-3.08-0.93
			s-1.08-1.42-1.08-2.38c0-0.57,0.14-1.09,0.41-1.56c0.27-0.47,0.63-0.85,1.06-1.13s0.93-0.5,1.48-0.64c0.4-0.1,1.02-0.2,1.83-0.29
			c1.66-0.19,2.89-0.42,3.68-0.68c0.01-0.27,0.01-0.44,0.01-0.51c0-0.8-0.19-1.36-0.58-1.69c-0.53-0.44-1.31-0.67-2.35-0.67
			c-0.97,0-1.69,0.16-2.15,0.49s-0.8,0.9-1.02,1.72l-2.02-0.26c0.18-0.82,0.48-1.49,0.9-1.99c0.42-0.51,1.03-0.9,1.82-1.17
			c0.79-0.27,1.71-0.41,2.76-0.41c1.04,0,1.88,0.12,2.53,0.35s1.13,0.53,1.43,0.88c0.31,0.35,0.52,0.8,0.64,1.34
			c0.07,0.33,0.1,0.94,0.1,1.81v2.62c0,1.83,0.04,2.98,0.13,3.47c0.09,0.48,0.26,0.95,0.52,1.39h-2.15
			C114.2,146.19,114.06,145.71,114,145.16z M113.83,140.78c-0.75,0.29-1.87,0.54-3.37,0.74c-0.85,0.12-1.45,0.25-1.8,0.39
			c-0.35,0.15-0.62,0.36-0.81,0.64c-0.19,0.28-0.29,0.59-0.29,0.93c0,0.52,0.21,0.96,0.62,1.31c0.42,0.35,1.03,0.52,1.83,0.52
			c0.79,0,1.5-0.17,2.12-0.5c0.62-0.33,1.07-0.78,1.36-1.36c0.22-0.44,0.33-1.1,0.33-1.96V140.78z"/>
		<path d="M136.91,130.59h2.22v9.25c0,1.61-0.19,2.89-0.57,3.83s-1.07,1.72-2.07,2.31s-2.3,0.89-3.92,0.89
			c-1.57,0-2.86-0.26-3.86-0.77c-1-0.52-1.71-1.26-2.14-2.24c-0.43-0.98-0.64-2.32-0.64-4.01v-9.25h2.22v9.23
			c0,1.39,0.14,2.41,0.41,3.07s0.74,1.17,1.4,1.52c0.66,0.36,1.47,0.54,2.42,0.54c1.63,0,2.8-0.35,3.49-1.06
			c0.69-0.71,1.04-2.06,1.04-4.07V130.59z"/>
		<path d="M142.57,146.59V135h1.86v1.65c0.89-1.27,2.18-1.91,3.87-1.91c0.73,0,1.41,0.13,2.02,0.38c0.61,0.25,1.07,0.58,1.38,0.99
			c0.31,0.41,0.52,0.89,0.64,1.45c0.08,0.36,0.11,1,0.11,1.91v7.13h-2.06v-7.05c0-0.8-0.08-1.4-0.24-1.8
			c-0.16-0.4-0.45-0.71-0.85-0.95c-0.41-0.24-0.89-0.35-1.44-0.35c-0.88,0-1.64,0.27-2.27,0.8c-0.64,0.53-0.96,1.54-0.96,3.02v6.33
			H142.57z"/>
		<path d="M155.62,132.85v-2.26h2.06v2.26H155.62z M155.62,146.59V135h2.06v11.59H155.62z"/>
		<path d="M165.33,144.84l0.3,1.74c-0.58,0.12-1.1,0.17-1.56,0.17c-0.75,0-1.33-0.11-1.74-0.34c-0.41-0.23-0.7-0.52-0.87-0.89
			c-0.17-0.37-0.25-1.14-0.25-2.32v-6.67h-1.51V135h1.51v-2.87l2.05-1.18V135h2.07v1.53h-2.07v6.78c0,0.56,0.04,0.92,0.11,1.08
			c0.07,0.16,0.19,0.29,0.35,0.38c0.16,0.09,0.4,0.14,0.7,0.14C164.65,144.91,164.95,144.89,165.33,144.84z"/>
		<path d="M175.28,145.16c-0.76,0.62-1.5,1.06-2.21,1.31c-0.71,0.25-1.46,0.38-2.27,0.38c-1.34,0-2.36-0.31-3.08-0.93
			s-1.08-1.42-1.08-2.38c0-0.57,0.14-1.09,0.41-1.56c0.27-0.47,0.63-0.85,1.06-1.13s0.93-0.5,1.48-0.64c0.4-0.1,1.02-0.2,1.83-0.29
			c1.66-0.19,2.89-0.42,3.68-0.68c0.01-0.27,0.01-0.44,0.01-0.51c0-0.8-0.19-1.36-0.58-1.69c-0.53-0.44-1.31-0.67-2.35-0.67
			c-0.97,0-1.69,0.16-2.15,0.49s-0.8,0.9-1.02,1.72l-2.02-0.26c0.18-0.82,0.48-1.49,0.9-1.99c0.42-0.51,1.03-0.9,1.82-1.17
			c0.79-0.27,1.71-0.41,2.76-0.41c1.04,0,1.88,0.12,2.53,0.35s1.13,0.53,1.43,0.88c0.31,0.35,0.52,0.8,0.64,1.34
			c0.07,0.33,0.1,0.94,0.1,1.81v2.62c0,1.83,0.04,2.98,0.13,3.47c0.09,0.48,0.26,0.95,0.52,1.39h-2.15
			C175.48,146.19,175.34,145.71,175.28,145.16z M175.11,140.78c-0.75,0.29-1.87,0.54-3.37,0.74c-0.85,0.12-1.45,0.25-1.8,0.39
			c-0.35,0.15-0.62,0.36-0.81,0.64c-0.19,0.28-0.29,0.59-0.29,0.93c0,0.52,0.21,0.96,0.62,1.31c0.42,0.35,1.03,0.52,1.83,0.52
			c0.79,0,1.5-0.17,2.12-0.5c0.62-0.33,1.07-0.78,1.36-1.36c0.22-0.44,0.33-1.1,0.33-1.96V140.78z"/>
		<path d="M180.36,146.59V135h1.86v1.76c0.47-0.82,0.91-1.36,1.31-1.63c0.4-0.26,0.84-0.39,1.32-0.39c0.69,0,1.4,0.21,2.12,0.63
			l-0.71,1.82c-0.5-0.28-1.01-0.43-1.51-0.43c-0.45,0-0.86,0.13-1.21,0.39c-0.36,0.26-0.61,0.62-0.77,1.08
			c-0.23,0.7-0.34,1.46-0.34,2.29v6.07H180.36z"/>
		<path d="M188.21,132.85v-2.26h2.06v2.26H188.21z M188.21,146.59V135h2.06v11.59H188.21z"/>
		<path d="M201.35,145.16c-0.76,0.62-1.5,1.06-2.21,1.31c-0.71,0.25-1.46,0.38-2.27,0.38c-1.34,0-2.36-0.31-3.08-0.93
			s-1.08-1.42-1.08-2.38c0-0.57,0.14-1.09,0.41-1.56c0.27-0.47,0.63-0.85,1.06-1.13s0.93-0.5,1.48-0.64c0.4-0.1,1.02-0.2,1.83-0.29
			c1.66-0.19,2.89-0.42,3.68-0.68c0.01-0.27,0.01-0.44,0.01-0.51c0-0.8-0.19-1.36-0.58-1.69c-0.53-0.44-1.31-0.67-2.35-0.67
			c-0.97,0-1.69,0.16-2.15,0.49s-0.8,0.9-1.02,1.72l-2.02-0.26c0.18-0.82,0.48-1.49,0.9-1.99c0.42-0.51,1.03-0.9,1.82-1.17
			c0.79-0.27,1.71-0.41,2.76-0.41c1.04,0,1.88,0.12,2.53,0.35s1.13,0.53,1.43,0.88c0.31,0.35,0.52,0.8,0.64,1.34
			c0.07,0.33,0.1,0.94,0.1,1.81v2.62c0,1.83,0.04,2.98,0.13,3.47c0.09,0.48,0.26,0.95,0.52,1.39h-2.15
			C201.55,146.19,201.41,145.71,201.35,145.16z M201.18,140.78c-0.75,0.29-1.87,0.54-3.37,0.74c-0.85,0.12-1.45,0.25-1.8,0.39
			c-0.35,0.15-0.62,0.36-0.81,0.64c-0.19,0.28-0.29,0.59-0.29,0.93c0,0.52,0.21,0.96,0.62,1.31c0.42,0.35,1.03,0.52,1.83,0.52
			c0.79,0,1.5-0.17,2.12-0.5c0.62-0.33,1.07-0.78,1.36-1.36c0.22-0.44,0.33-1.1,0.33-1.96V140.78z"/>
		<path d="M213.28,146.59v-16h12.14v1.89h-9.92v4.9h9.29v1.88h-9.29v5.45h10.31v1.89H213.28z"/>
		<path d="M236.59,146.59v-1.7c-0.95,1.31-2.23,1.96-3.86,1.96c-0.72,0-1.39-0.13-2.01-0.39c-0.62-0.26-1.08-0.59-1.39-0.99
			c-0.3-0.4-0.51-0.88-0.64-1.46c-0.08-0.39-0.13-1-0.13-1.83V135h2.06v6.43c0,1.03,0.04,1.72,0.13,2.07
			c0.13,0.52,0.4,0.92,0.82,1.22s0.94,0.44,1.56,0.44c0.62,0,1.2-0.15,1.74-0.45c0.54-0.3,0.93-0.71,1.15-1.23
			c0.23-0.52,0.34-1.28,0.34-2.27V135h2.06v11.59H236.59z"/>
		<path d="M241.64,146.59V135h1.86v1.76c0.47-0.82,0.91-1.36,1.31-1.63c0.4-0.26,0.84-0.39,1.32-0.39c0.69,0,1.4,0.21,2.12,0.63
			l-0.71,1.82c-0.5-0.28-1.01-0.43-1.51-0.43c-0.45,0-0.86,0.13-1.21,0.39c-0.36,0.26-0.61,0.62-0.77,1.08
			c-0.23,0.7-0.34,1.46-0.34,2.29v6.07H241.64z"/>
		<path d="M248.71,140.8c0-2.15,0.63-3.74,1.88-4.77c1.05-0.86,2.32-1.29,3.83-1.29c1.67,0,3.04,0.52,4.1,1.57
			c1.06,1.04,1.59,2.49,1.59,4.33c0,1.49-0.23,2.67-0.7,3.52c-0.47,0.85-1.15,1.52-2.05,1.99c-0.9,0.47-1.88,0.71-2.94,0.71
			c-1.7,0-3.08-0.52-4.13-1.56C249.23,144.26,248.71,142.76,248.71,140.8z M250.83,140.8c0,1.48,0.34,2.6,1.02,3.33
			s1.54,1.11,2.57,1.11c1.02,0,1.87-0.37,2.55-1.11s1.02-1.87,1.02-3.4c0-1.43-0.34-2.52-1.03-3.26c-0.68-0.74-1.53-1.11-2.55-1.11
			c-1.03,0-1.89,0.37-2.57,1.1S250.83,139.31,250.83,140.8z"/>
		<path d="M262.52,151.04V135h1.88v1.51c0.44-0.59,0.94-1.03,1.5-1.33c0.56-0.29,1.23-0.44,2.03-0.44c1.04,0,1.95,0.25,2.75,0.76
			c0.79,0.51,1.39,1.23,1.8,2.16s0.61,1.94,0.61,3.05c0,1.19-0.22,2.25-0.67,3.2s-1.1,1.68-1.95,2.18
			c-0.85,0.51-1.75,0.76-2.69,0.76c-0.69,0-1.3-0.14-1.85-0.42s-0.99-0.63-1.35-1.05v5.64H262.52z M264.39,140.86
			c0,1.49,0.32,2.59,0.95,3.31c0.63,0.71,1.4,1.07,2.3,1.07c0.92,0,1.7-0.37,2.35-1.11s0.98-1.88,0.98-3.43
			c0-1.48-0.32-2.58-0.96-3.32c-0.64-0.73-1.4-1.1-2.29-1.1c-0.88,0-1.66,0.39-2.33,1.17C264.73,138.24,264.39,139.37,264.39,140.86
			z"/>
		<path d="M283.89,142.86l2.13,0.25c-0.34,1.19-0.96,2.11-1.87,2.76c-0.91,0.65-2.07,0.98-3.48,0.98c-1.78,0-3.19-0.52-4.23-1.57
			c-1.04-1.04-1.56-2.51-1.56-4.39c0-1.95,0.53-3.46,1.58-4.54c1.05-1.08,2.42-1.62,4.1-1.62c1.63,0,2.96,0.53,3.99,1.58
			c1.03,1.06,1.55,2.54,1.55,4.45c0,0.12,0,0.29-0.01,0.52h-9.07c0.08,1.27,0.45,2.25,1.13,2.93c0.68,0.68,1.53,1.02,2.54,1.02
			c0.76,0,1.4-0.19,1.94-0.57C283.16,144.3,283.58,143.69,283.89,142.86z M277.13,139.68h6.79c-0.09-0.98-0.35-1.71-0.78-2.19
			c-0.66-0.76-1.51-1.14-2.55-1.14c-0.95,0-1.74,0.3-2.39,0.91C277.55,137.87,277.19,138.67,277.13,139.68z"/>
		<path d="M296.55,145.16c-0.76,0.62-1.5,1.06-2.21,1.31c-0.71,0.25-1.46,0.38-2.27,0.38c-1.34,0-2.36-0.31-3.08-0.93
			c-0.72-0.62-1.08-1.42-1.08-2.38c0-0.57,0.14-1.09,0.41-1.56c0.27-0.47,0.62-0.85,1.06-1.13s0.93-0.5,1.48-0.64
			c0.41-0.1,1.02-0.2,1.83-0.29c1.66-0.19,2.89-0.42,3.68-0.68c0.01-0.27,0.01-0.44,0.01-0.51c0-0.8-0.19-1.36-0.58-1.69
			c-0.53-0.44-1.31-0.67-2.35-0.67c-0.97,0-1.69,0.16-2.15,0.49c-0.46,0.32-0.8,0.9-1.02,1.72l-2.02-0.26
			c0.18-0.82,0.49-1.49,0.91-1.99c0.42-0.51,1.03-0.9,1.82-1.17c0.79-0.27,1.71-0.41,2.76-0.41c1.04,0,1.88,0.12,2.53,0.35
			c0.65,0.23,1.13,0.53,1.43,0.88c0.31,0.35,0.52,0.8,0.64,1.34c0.07,0.33,0.1,0.94,0.1,1.81v2.62c0,1.83,0.04,2.98,0.13,3.47
			s0.26,0.95,0.52,1.39h-2.15C296.75,146.19,296.61,145.71,296.55,145.16z M296.38,140.78c-0.75,0.29-1.87,0.54-3.37,0.74
			c-0.85,0.12-1.45,0.25-1.8,0.39c-0.35,0.15-0.62,0.36-0.81,0.64c-0.19,0.28-0.29,0.59-0.29,0.93c0,0.52,0.21,0.96,0.62,1.31
			c0.42,0.35,1.03,0.52,1.83,0.52c0.79,0,1.5-0.17,2.12-0.5c0.62-0.33,1.07-0.78,1.36-1.36c0.22-0.44,0.33-1.1,0.33-1.96V140.78z"/>
		<path d="M307.88,138.76c0-0.76,0.29-1.42,0.85-1.95c0.57-0.54,1.25-0.81,2.04-0.81c0.8,0,1.49,0.27,2.06,0.81
			c0.57,0.54,0.85,1.19,0.85,1.95s-0.28,1.42-0.85,1.96s-1.25,0.81-2.06,0.81c-0.79,0-1.48-0.27-2.04-0.81
			S307.88,139.52,307.88,138.76z"/>
		<path d="M323.55,146.59v-16h2.22v16H323.55z"/>
		<path d="M328.34,146.59V145l7.74-8.47c-0.88,0.04-1.65,0.07-2.32,0.07h-4.96V135h9.94v1.3l-6.59,7.36l-1.27,1.34
			c0.92-0.07,1.79-0.1,2.6-0.1h5.62v1.69H328.34z"/>
		<path d="M348.91,151.04v-5.68c-0.32,0.43-0.77,0.79-1.35,1.07c-0.58,0.28-1.19,0.43-1.84,0.43c-1.44,0-2.69-0.55-3.73-1.65
			c-1.04-1.1-1.56-2.6-1.56-4.52c0-1.16,0.21-2.21,0.64-3.13s1.04-1.62,1.84-2.1c0.81-0.48,1.69-0.71,2.65-0.71
			c1.5,0,2.69,0.6,3.55,1.81V135h1.86v16.04H348.91z M342.55,140.77c0,1.49,0.33,2.61,0.99,3.36c0.66,0.75,1.44,1.12,2.36,1.12
			c0.88,0,1.63-0.35,2.27-1.06c0.63-0.71,0.95-1.79,0.95-3.24c0-1.54-0.33-2.7-1-3.48s-1.45-1.17-2.35-1.17
			c-0.89,0-1.65,0.36-2.27,1.09C342.86,138.1,342.55,139.23,342.55,140.77z"/>
		<path d="M362.17,146.59v-1.7c-0.95,1.31-2.23,1.96-3.86,1.96c-0.72,0-1.39-0.13-2.01-0.39c-0.62-0.26-1.08-0.59-1.39-0.99
			c-0.3-0.4-0.51-0.88-0.64-1.46c-0.08-0.39-0.13-1-0.13-1.83V135h2.06v6.43c0,1.03,0.04,1.72,0.13,2.07
			c0.13,0.52,0.4,0.92,0.82,1.22s0.94,0.44,1.56,0.44c0.62,0,1.2-0.15,1.74-0.45c0.54-0.3,0.93-0.71,1.15-1.23
			c0.23-0.52,0.34-1.28,0.34-2.27V135h2.06v11.59H362.17z"/>
		<path d="M367.26,132.85v-2.26h2.06v2.26H367.26z M367.26,146.59V135h2.06v11.59H367.26z"/>
		<path d="M380.78,142.86l2.13,0.25c-0.34,1.19-0.96,2.11-1.87,2.76c-0.91,0.65-2.07,0.98-3.48,0.98c-1.78,0-3.19-0.52-4.23-1.57
			c-1.04-1.04-1.56-2.51-1.56-4.39c0-1.95,0.53-3.46,1.58-4.54s2.42-1.62,4.1-1.62c1.63,0,2.96,0.53,3.99,1.58s1.55,2.54,1.55,4.45
			c0,0.12,0,0.29-0.01,0.52h-9.07c0.08,1.27,0.46,2.25,1.13,2.93c0.68,0.68,1.53,1.02,2.54,1.02c0.76,0,1.4-0.19,1.94-0.57
			C380.05,144.3,380.47,143.69,380.78,142.86z M374.01,139.68h6.79c-0.09-0.98-0.35-1.71-0.78-2.19c-0.66-0.76-1.51-1.14-2.55-1.14
			c-0.95,0-1.74,0.3-2.39,0.91C374.44,137.87,374.08,138.67,374.01,139.68z"/>
		<path d="M385.48,146.59V135h1.86v1.76c0.47-0.82,0.91-1.36,1.31-1.63c0.4-0.26,0.84-0.39,1.32-0.39c0.69,0,1.4,0.21,2.12,0.63
			l-0.71,1.82c-0.5-0.28-1.01-0.43-1.51-0.43c-0.45,0-0.86,0.13-1.21,0.39c-0.36,0.26-0.61,0.62-0.77,1.08
			c-0.23,0.7-0.34,1.46-0.34,2.29v6.07H385.48z"/>
		<path d="M401.21,146.59v-1.46c-0.77,1.15-1.91,1.73-3.4,1.73c-0.97,0-1.86-0.25-2.67-0.76c-0.81-0.51-1.44-1.22-1.89-2.13
			c-0.45-0.91-0.67-1.96-0.67-3.15c0-1.16,0.2-2.21,0.61-3.15c0.4-0.94,1.01-1.66,1.82-2.17c0.81-0.5,1.71-0.75,2.71-0.75
			c0.73,0,1.39,0.15,1.96,0.44c0.57,0.29,1.04,0.68,1.4,1.15v-5.74h2.05v16H401.21z M394.69,140.81c0,1.48,0.33,2.59,0.98,3.33
			c0.66,0.74,1.43,1.1,2.33,1.1c0.9,0,1.67-0.35,2.3-1.05s0.94-1.77,0.94-3.21c0-1.59-0.32-2.75-0.96-3.49
			c-0.64-0.74-1.43-1.11-2.37-1.11c-0.92,0-1.68,0.36-2.3,1.07S394.69,139.27,394.69,140.81z"/>
		<path d="M414.3,145.16c-0.76,0.62-1.5,1.06-2.21,1.31c-0.71,0.25-1.46,0.38-2.27,0.38c-1.34,0-2.36-0.31-3.08-0.93
			c-0.72-0.62-1.08-1.42-1.08-2.38c0-0.57,0.13-1.09,0.41-1.56s0.63-0.85,1.07-1.13s0.93-0.5,1.48-0.64c0.4-0.1,1.02-0.2,1.83-0.29
			c1.67-0.19,2.89-0.42,3.68-0.68c0.01-0.27,0.01-0.44,0.01-0.51c0-0.8-0.19-1.36-0.58-1.69c-0.53-0.44-1.31-0.67-2.35-0.67
			c-0.97,0-1.69,0.16-2.15,0.49c-0.46,0.32-0.8,0.9-1.03,1.72l-2.02-0.26c0.18-0.82,0.48-1.49,0.9-1.99
			c0.42-0.51,1.03-0.9,1.82-1.17c0.79-0.27,1.71-0.41,2.76-0.41c1.04,0,1.88,0.12,2.53,0.35c0.65,0.23,1.13,0.53,1.43,0.88
			c0.3,0.35,0.52,0.8,0.64,1.34c0.07,0.33,0.1,0.94,0.1,1.81v2.62c0,1.83,0.04,2.98,0.13,3.47c0.09,0.48,0.26,0.95,0.52,1.39h-2.15
			C414.49,146.19,414.36,145.71,414.3,145.16z M414.13,140.78c-0.75,0.29-1.87,0.54-3.37,0.74c-0.85,0.12-1.45,0.25-1.8,0.39
			s-0.62,0.36-0.81,0.64c-0.19,0.28-0.29,0.59-0.29,0.93c0,0.52,0.21,0.96,0.62,1.31c0.42,0.35,1.03,0.52,1.83,0.52
			c0.79,0,1.5-0.17,2.12-0.5c0.62-0.33,1.07-0.78,1.36-1.36c0.22-0.44,0.33-1.1,0.33-1.96V140.78z"/>
		<path d="M430.98,146.59l-6.51-16h2.41l4.36,11.63c0.35,0.93,0.65,1.8,0.88,2.62c0.26-0.87,0.56-1.75,0.9-2.62l4.54-11.63h2.27
			l-6.58,16H430.98z"/>
		<path d="M448.6,142.86l2.13,0.25c-0.34,1.19-0.96,2.11-1.87,2.76c-0.91,0.65-2.07,0.98-3.48,0.98c-1.78,0-3.19-0.52-4.23-1.57
			c-1.04-1.04-1.56-2.51-1.56-4.39c0-1.95,0.53-3.46,1.58-4.54s2.42-1.62,4.1-1.62c1.63,0,2.96,0.53,3.99,1.58s1.55,2.54,1.55,4.45
			c0,0.12,0,0.29-0.01,0.52h-9.07c0.08,1.27,0.46,2.25,1.13,2.93c0.68,0.68,1.53,1.02,2.54,1.02c0.76,0,1.4-0.19,1.94-0.57
			C447.86,144.3,448.29,143.69,448.6,142.86z M441.83,139.68h6.79c-0.09-0.98-0.35-1.71-0.78-2.19c-0.66-0.76-1.51-1.14-2.55-1.14
			c-0.95,0-1.74,0.3-2.39,0.91C442.26,137.87,441.9,138.67,441.83,139.68z"/>
		<path d="M453.3,146.59V135h1.86v1.76c0.47-0.82,0.91-1.36,1.31-1.63c0.4-0.26,0.84-0.39,1.32-0.39c0.69,0,1.4,0.21,2.12,0.63
			l-0.71,1.82c-0.5-0.28-1.01-0.43-1.51-0.43c-0.45,0-0.86,0.13-1.21,0.39c-0.36,0.26-0.61,0.62-0.77,1.08
			c-0.23,0.7-0.34,1.46-0.34,2.29v6.07H453.3z"/>
		<path d="M469.02,146.59v-1.46c-0.77,1.15-1.91,1.73-3.4,1.73c-0.97,0-1.86-0.25-2.67-0.76c-0.81-0.51-1.44-1.22-1.89-2.13
			c-0.45-0.91-0.67-1.96-0.67-3.15c0-1.16,0.2-2.21,0.61-3.15c0.4-0.94,1.01-1.66,1.82-2.17c0.81-0.5,1.71-0.75,2.71-0.75
			c0.73,0,1.39,0.15,1.96,0.44c0.57,0.29,1.04,0.68,1.4,1.15v-5.74h2.05v16H469.02z M462.51,140.81c0,1.48,0.33,2.59,0.98,3.33
			c0.66,0.74,1.43,1.1,2.33,1.1c0.9,0,1.67-0.35,2.3-1.05s0.94-1.77,0.94-3.21c0-1.59-0.32-2.75-0.96-3.49
			c-0.64-0.74-1.43-1.11-2.37-1.11c-0.92,0-1.68,0.36-2.3,1.07S462.51,139.27,462.51,140.81z"/>
		<path d="M482.5,142.86l2.13,0.25c-0.34,1.19-0.96,2.11-1.87,2.76c-0.91,0.65-2.07,0.98-3.48,0.98c-1.78,0-3.19-0.52-4.23-1.57
			c-1.04-1.04-1.56-2.51-1.56-4.39c0-1.95,0.53-3.46,1.58-4.54c1.05-1.08,2.42-1.62,4.1-1.62c1.63,0,2.96,0.53,3.99,1.58
			c1.03,1.06,1.55,2.54,1.55,4.45c0,0.12,0,0.29-0.01,0.52h-9.07c0.08,1.27,0.45,2.25,1.13,2.93s1.53,1.02,2.54,1.02
			c0.76,0,1.4-0.19,1.94-0.57C481.77,144.3,482.19,143.69,482.5,142.86z M475.73,139.68h6.79c-0.09-0.98-0.35-1.71-0.78-2.19
			c-0.66-0.76-1.51-1.14-2.55-1.14c-0.95,0-1.74,0.3-2.39,0.91S475.8,138.67,475.73,139.68z"/>
		<path d="M493.98,146.59v-16h2.28l8.82,12.56v-12.56h2.13v16h-2.28l-8.82-12.57v12.57H493.98z"/>
		<path d="M509.91,140.8c0-2.15,0.63-3.74,1.88-4.77c1.05-0.86,2.32-1.29,3.83-1.29c1.67,0,3.04,0.52,4.1,1.57
			c1.06,1.04,1.59,2.49,1.59,4.33c0,1.49-0.24,2.67-0.71,3.52s-1.15,1.52-2.05,1.99c-0.9,0.47-1.88,0.71-2.94,0.71
			c-1.7,0-3.08-0.52-4.13-1.56S509.91,142.76,509.91,140.8z M512.03,140.8c0,1.48,0.34,2.6,1.02,3.33s1.54,1.11,2.57,1.11
			c1.02,0,1.87-0.37,2.55-1.11s1.02-1.87,1.02-3.4c0-1.43-0.34-2.52-1.03-3.26c-0.68-0.74-1.53-1.11-2.55-1.11
			c-1.03,0-1.89,0.37-2.57,1.1S512.03,139.31,512.03,140.8z M514.47,133.56l1.52-3.06h2.7l-2.52,3.06H514.47z"/>
		<path d="M523.7,146.59V135h1.86v1.76c0.47-0.82,0.91-1.36,1.31-1.63c0.4-0.26,0.84-0.39,1.32-0.39c0.69,0,1.4,0.21,2.12,0.63
			l-0.71,1.82c-0.5-0.28-1.01-0.43-1.51-0.43c-0.45,0-0.86,0.13-1.21,0.39c-0.36,0.26-0.62,0.62-0.77,1.08
			c-0.23,0.7-0.34,1.46-0.34,2.29v6.07H523.7z"/>
		<path d="M539.43,146.59v-1.46c-0.77,1.15-1.91,1.73-3.4,1.73c-0.97,0-1.86-0.25-2.67-0.76c-0.81-0.51-1.44-1.22-1.89-2.13
			c-0.45-0.91-0.67-1.96-0.67-3.15c0-1.16,0.2-2.21,0.61-3.15c0.4-0.94,1.01-1.66,1.82-2.17c0.81-0.5,1.71-0.75,2.71-0.75
			c0.73,0,1.39,0.15,1.96,0.44c0.57,0.29,1.04,0.68,1.4,1.15v-5.74h2.05v16H539.43z M532.91,140.81c0,1.48,0.33,2.59,0.98,3.33
			c0.66,0.74,1.43,1.1,2.33,1.1c0.9,0,1.67-0.35,2.3-1.05s0.95-1.77,0.95-3.21c0-1.59-0.32-2.75-0.96-3.49
			c-0.64-0.74-1.43-1.11-2.37-1.11c-0.92,0-1.68,0.36-2.3,1.07C533.22,138.15,532.91,139.27,532.91,140.81z"/>
		<path d="M544.6,132.85v-2.26h2.06v2.26H544.6z M544.6,146.59V135h2.06v11.59H544.6z"/>
		<path d="M557.73,142.35l2.03,0.25c-0.22,1.33-0.79,2.37-1.7,3.13c-0.91,0.75-2.03,1.13-3.36,1.13c-1.66,0-3-0.52-4.01-1.56
			s-1.52-2.52-1.52-4.46c0-1.25,0.22-2.35,0.65-3.29c0.44-0.94,1.1-1.64,1.99-2.11s1.86-0.7,2.9-0.7c1.32,0,2.4,0.32,3.24,0.96
			c0.84,0.64,1.38,1.54,1.62,2.71l-2,0.29c-0.19-0.78-0.53-1.36-1.01-1.76c-0.48-0.39-1.07-0.59-1.76-0.59
			c-1.04,0-1.88,0.35-2.53,1.06s-0.97,1.83-0.97,3.37c0,1.56,0.31,2.69,0.94,3.39c0.63,0.71,1.44,1.06,2.45,1.06
			c0.81,0,1.49-0.24,2.03-0.71S557.59,143.33,557.73,142.35z"/>
		<path d="M569.46,145.16c-0.76,0.62-1.5,1.06-2.2,1.31c-0.71,0.25-1.46,0.38-2.27,0.38c-1.34,0-2.36-0.31-3.08-0.93
			s-1.08-1.42-1.08-2.38c0-0.57,0.14-1.09,0.41-1.56c0.27-0.47,0.63-0.85,1.07-1.13s0.93-0.5,1.48-0.64c0.4-0.1,1.02-0.2,1.83-0.29
			c1.66-0.19,2.89-0.42,3.68-0.68c0.01-0.27,0.01-0.44,0.01-0.51c0-0.8-0.19-1.36-0.58-1.69c-0.53-0.44-1.31-0.67-2.35-0.67
			c-0.97,0-1.69,0.16-2.15,0.49s-0.8,0.9-1.02,1.72l-2.02-0.26c0.18-0.82,0.48-1.49,0.9-1.99c0.42-0.51,1.03-0.9,1.82-1.17
			c0.79-0.27,1.71-0.41,2.76-0.41c1.04,0,1.88,0.12,2.53,0.35c0.65,0.23,1.13,0.53,1.43,0.88c0.3,0.35,0.52,0.8,0.64,1.34
			c0.07,0.33,0.1,0.94,0.1,1.81v2.62c0,1.83,0.04,2.98,0.13,3.47s0.26,0.95,0.52,1.39h-2.15
			C569.66,146.19,569.52,145.71,569.46,145.16z M569.29,140.78c-0.75,0.29-1.87,0.54-3.37,0.74c-0.85,0.12-1.45,0.25-1.8,0.39
			c-0.35,0.15-0.62,0.36-0.81,0.64c-0.19,0.28-0.29,0.59-0.29,0.93c0,0.52,0.21,0.96,0.62,1.31c0.42,0.35,1.03,0.52,1.83,0.52
			c0.79,0,1.5-0.17,2.12-0.5c0.62-0.33,1.07-0.78,1.36-1.36c0.22-0.44,0.33-1.1,0.33-1.96V140.78z"/>
	</g>
	<g class="st2">
		<path d="M259.01,177.78v-1.88l6.82-0.01v5.94c-1.05,0.83-2.13,1.45-3.24,1.87c-1.11,0.42-2.26,0.63-3.43,0.63
			c-1.58,0-3.02-0.34-4.31-1.01c-1.29-0.67-2.27-1.65-2.93-2.92s-0.99-2.7-0.99-4.27c0-1.56,0.33-3.01,0.98-4.36
			c0.66-1.35,1.6-2.35,2.83-3.01c1.23-0.66,2.65-0.98,4.25-0.98c1.16,0,2.22,0.19,3.16,0.56c0.94,0.38,1.68,0.9,2.21,1.57
			c0.53,0.67,0.94,1.54,1.22,2.62l-1.92,0.52c-0.24-0.81-0.54-1.46-0.9-1.92c-0.36-0.47-0.87-0.84-1.54-1.12s-1.41-0.42-2.22-0.42
			c-0.97,0-1.82,0.15-2.53,0.44c-0.71,0.29-1.28,0.68-1.72,1.16c-0.44,0.48-0.77,1.01-1.02,1.58c-0.41,0.99-0.61,2.06-0.61,3.22
			c0,1.43,0.25,2.62,0.74,3.58c0.49,0.96,1.21,1.67,2.16,2.14s1.95,0.7,3.01,0.7c0.92,0,1.82-0.18,2.7-0.53
			c0.88-0.35,1.55-0.73,2-1.13v-2.98H259.01z"/>
		<path d="M268.7,184.05v-11.59h1.78v1.76c0.45-0.82,0.87-1.36,1.26-1.63c0.38-0.26,0.81-0.39,1.27-0.39c0.67,0,1.34,0.21,2.03,0.63
			l-0.68,1.82c-0.48-0.28-0.97-0.43-1.45-0.43c-0.43,0-0.82,0.13-1.16,0.39s-0.59,0.62-0.74,1.08c-0.22,0.7-0.33,1.46-0.33,2.29
			v6.07H268.7z"/>
		<path d="M283.86,184.05v-1.7c-0.91,1.31-2.14,1.97-3.7,1.97c-0.69,0-1.33-0.13-1.93-0.39c-0.6-0.26-1.04-0.59-1.33-0.99
			c-0.29-0.4-0.49-0.88-0.61-1.46c-0.08-0.39-0.12-1-0.12-1.83v-7.18h1.98v6.43c0,1.03,0.04,1.72,0.12,2.07
			c0.12,0.52,0.39,0.92,0.79,1.22s0.9,0.44,1.49,0.44c0.59,0,1.15-0.15,1.67-0.45c0.52-0.3,0.89-0.71,1.1-1.23
			c0.22-0.52,0.32-1.28,0.32-2.27v-6.21h1.98v11.59H283.86z"/>
		<path d="M288.72,188.5v-16.04h1.8v1.51c0.42-0.59,0.9-1.03,1.44-1.33c0.53-0.29,1.18-0.44,1.94-0.44c1,0,1.88,0.25,2.64,0.76
			s1.34,1.23,1.72,2.16c0.39,0.93,0.58,1.95,0.58,3.05c0,1.19-0.21,2.25-0.64,3.2c-0.43,0.95-1.05,1.68-1.87,2.18
			c-0.82,0.51-1.68,0.76-2.58,0.76c-0.66,0-1.25-0.14-1.77-0.42s-0.95-0.63-1.29-1.05v5.64H288.72z M290.51,178.32
			c0,1.49,0.3,2.59,0.91,3.31c0.61,0.71,1.34,1.07,2.21,1.07c0.88,0,1.63-0.37,2.26-1.11c0.63-0.74,0.94-1.88,0.94-3.43
			c0-1.48-0.31-2.58-0.92-3.32c-0.61-0.73-1.34-1.1-2.19-1.1c-0.84,0-1.59,0.39-2.23,1.17
			C290.84,175.69,290.51,176.83,290.51,178.32z"/>
		<path d="M300.5,178.26c0-2.15,0.6-3.74,1.8-4.77c1-0.86,2.23-1.29,3.67-1.29c1.6,0,2.92,0.52,3.93,1.57
			c1.02,1.04,1.53,2.49,1.53,4.33c0,1.49-0.23,2.67-0.67,3.52c-0.45,0.86-1.11,1.52-1.97,1.99c-0.86,0.47-1.8,0.71-2.82,0.71
			c-1.63,0-2.95-0.52-3.96-1.56C301,181.71,300.5,180.22,300.5,178.26z M302.53,178.26c0,1.48,0.33,2.6,0.98,3.33
			s1.47,1.11,2.46,1.11c0.98,0,1.8-0.37,2.45-1.11c0.65-0.74,0.98-1.87,0.98-3.39c0-1.43-0.33-2.52-0.98-3.26
			c-0.66-0.74-1.47-1.11-2.45-1.11c-0.99,0-1.81,0.37-2.46,1.1C302.86,175.66,302.53,176.77,302.53,178.26z"/>
		<path d="M320.25,184.05v-16h6.07c1.07,0,1.89,0.05,2.45,0.15c0.79,0.13,1.45,0.38,1.99,0.75c0.53,0.37,0.96,0.88,1.29,1.54
			c0.33,0.66,0.49,1.39,0.49,2.18c0,1.36-0.44,2.51-1.31,3.46c-0.87,0.94-2.45,1.41-4.72,1.41h-4.13v6.51H320.25z M322.38,175.66
			h4.16c1.38,0,2.35-0.25,2.93-0.76s0.87-1.23,0.87-2.15c0-0.67-0.17-1.24-0.51-1.72c-0.34-0.48-0.79-0.79-1.35-0.94
			c-0.36-0.09-1.02-0.14-1.99-0.14h-4.12V175.66z"/>
		<path d="M342.62,182.62c-0.73,0.62-1.44,1.06-2.11,1.31c-0.68,0.25-1.4,0.38-2.18,0.38c-1.28,0-2.27-0.31-2.96-0.93
			c-0.69-0.62-1.03-1.42-1.03-2.39c0-0.57,0.13-1.09,0.39-1.56c0.26-0.47,0.6-0.85,1.02-1.13c0.42-0.28,0.9-0.5,1.42-0.64
			c0.39-0.1,0.97-0.2,1.76-0.29c1.6-0.19,2.77-0.42,3.53-0.68c0.01-0.27,0.01-0.44,0.01-0.51c0-0.8-0.19-1.36-0.56-1.69
			c-0.5-0.44-1.26-0.67-2.25-0.67c-0.93,0-1.62,0.16-2.06,0.49s-0.77,0.9-0.98,1.72l-1.93-0.26c0.18-0.82,0.46-1.49,0.87-1.99
			s0.98-0.9,1.75-1.17c0.76-0.27,1.64-0.41,2.65-0.41c1,0,1.8,0.12,2.43,0.35c0.62,0.23,1.08,0.53,1.37,0.88s0.5,0.8,0.62,1.34
			c0.07,0.33,0.1,0.94,0.1,1.81v2.62c0,1.83,0.04,2.98,0.13,3.47s0.25,0.95,0.5,1.39h-2.06
			C342.81,183.65,342.67,183.17,342.62,182.62z M342.45,178.24c-0.72,0.29-1.79,0.54-3.23,0.74c-0.81,0.12-1.39,0.25-1.72,0.39
			c-0.34,0.15-0.6,0.36-0.78,0.64c-0.18,0.28-0.28,0.59-0.28,0.93c0,0.52,0.2,0.96,0.6,1.31c0.4,0.35,0.98,0.52,1.75,0.52
			c0.76,0,1.44-0.17,2.03-0.5s1.03-0.78,1.31-1.36c0.21-0.44,0.32-1.1,0.32-1.96V178.24z"/>
		<path d="M347.49,184.05v-11.59h1.78v1.76c0.45-0.82,0.87-1.36,1.26-1.63c0.38-0.26,0.81-0.39,1.27-0.39
			c0.67,0,1.34,0.21,2.03,0.63l-0.68,1.82c-0.48-0.28-0.97-0.43-1.45-0.43c-0.43,0-0.82,0.13-1.17,0.39
			c-0.34,0.26-0.59,0.62-0.74,1.08c-0.22,0.7-0.33,1.46-0.33,2.29v6.07H347.49z"/>
		<path d="M354.96,184.05v-16h1.98v16H354.96z"/>
		<path d="M367.62,182.62c-0.73,0.62-1.44,1.06-2.12,1.31c-0.68,0.25-1.4,0.38-2.18,0.38c-1.28,0-2.27-0.31-2.96-0.93
			c-0.69-0.62-1.03-1.42-1.03-2.39c0-0.57,0.13-1.09,0.39-1.56c0.26-0.47,0.6-0.85,1.02-1.13c0.42-0.28,0.89-0.5,1.42-0.64
			c0.39-0.1,0.97-0.2,1.76-0.29c1.6-0.19,2.77-0.42,3.53-0.68c0.01-0.27,0.01-0.44,0.01-0.51c0-0.8-0.19-1.36-0.56-1.69
			c-0.5-0.44-1.26-0.67-2.25-0.67c-0.93,0-1.62,0.16-2.06,0.49c-0.44,0.32-0.77,0.9-0.98,1.72l-1.93-0.26
			c0.18-0.82,0.46-1.49,0.87-1.99c0.4-0.51,0.98-0.9,1.75-1.17c0.76-0.27,1.64-0.41,2.65-0.41c1,0,1.81,0.12,2.43,0.35
			c0.62,0.23,1.08,0.53,1.37,0.88s0.5,0.8,0.62,1.34c0.07,0.33,0.1,0.94,0.1,1.81v2.62c0,1.83,0.04,2.98,0.13,3.47
			s0.25,0.95,0.5,1.39h-2.07C367.81,183.65,367.68,183.17,367.62,182.62z M367.45,178.24c-0.72,0.29-1.79,0.54-3.23,0.74
			c-0.81,0.12-1.39,0.25-1.72,0.39s-0.6,0.36-0.78,0.64c-0.18,0.28-0.28,0.59-0.28,0.93c0,0.52,0.2,0.96,0.6,1.31
			c0.4,0.35,0.98,0.52,1.75,0.52c0.76,0,1.44-0.17,2.03-0.5c0.59-0.33,1.03-0.78,1.31-1.36c0.21-0.44,0.32-1.1,0.32-1.96V178.24z"/>
		<path d="M372.52,184.05v-11.59h1.77v1.63c0.37-0.57,0.85-1.02,1.46-1.37c0.61-0.35,1.3-0.52,2.08-0.52c0.86,0,1.57,0.18,2.12,0.54
			c0.55,0.36,0.94,0.85,1.17,1.5c0.92-1.35,2.12-2.03,3.6-2.03c1.16,0,2.05,0.32,2.67,0.96c0.62,0.64,0.93,1.62,0.93,2.94v7.96
			h-1.97v-7.3c0-0.79-0.06-1.35-0.19-1.7c-0.13-0.35-0.36-0.62-0.7-0.83c-0.34-0.21-0.73-0.32-1.19-0.32c-0.82,0-1.5,0.27-2.04,0.81
			c-0.54,0.54-0.81,1.41-0.81,2.6v6.74h-1.98v-7.53c0-0.87-0.16-1.53-0.48-1.96s-0.85-0.65-1.58-0.65c-0.56,0-1.07,0.15-1.54,0.44
			c-0.47,0.29-0.82,0.72-1.03,1.28c-0.21,0.56-0.32,1.37-0.32,2.42v6.01H372.52z"/>
		<path d="M399.24,180.32l2.04,0.25c-0.32,1.19-0.92,2.11-1.79,2.76c-0.87,0.66-1.99,0.98-3.34,0.98c-1.71,0-3.06-0.52-4.06-1.57
			c-1-1.04-1.5-2.51-1.5-4.39c0-1.95,0.51-3.46,1.52-4.54c1.01-1.08,2.32-1.62,3.93-1.62c1.56,0,2.83,0.53,3.82,1.58
			s1.48,2.54,1.48,4.45c0,0.12,0,0.29-0.01,0.52h-8.7c0.07,1.27,0.44,2.25,1.09,2.93s1.46,1.02,2.44,1.02
			c0.73,0,1.34-0.19,1.86-0.57C398.54,181.75,398.94,181.15,399.24,180.32z M392.75,177.14h6.51c-0.09-0.98-0.34-1.71-0.75-2.19
			c-0.63-0.76-1.45-1.14-2.45-1.14c-0.91,0-1.67,0.3-2.29,0.91C393.16,175.32,392.82,176.13,392.75,177.14z"/>
		<path d="M403.77,184.05v-11.59h1.78v1.65c0.86-1.27,2.09-1.91,3.71-1.91c0.7,0,1.35,0.13,1.94,0.38c0.59,0.25,1.03,0.58,1.32,0.99
			c0.29,0.41,0.5,0.89,0.62,1.45c0.07,0.36,0.11,1,0.11,1.91v7.13h-1.98V177c0-0.8-0.08-1.4-0.23-1.8c-0.15-0.4-0.43-0.71-0.82-0.95
			c-0.39-0.24-0.85-0.35-1.38-0.35c-0.84,0-1.57,0.27-2.18,0.8s-0.92,1.54-0.92,3.02v6.33H403.77z"/>
		<path d="M420.6,182.3l0.29,1.74c-0.56,0.12-1.05,0.17-1.49,0.17c-0.72,0-1.27-0.11-1.67-0.34c-0.39-0.23-0.67-0.52-0.83-0.89
			c-0.16-0.37-0.24-1.14-0.24-2.32v-6.67h-1.45v-1.53h1.45v-2.87l1.97-1.18v4.05h1.99v1.53h-1.99v6.78c0,0.56,0.04,0.92,0.1,1.08
			c0.07,0.16,0.18,0.29,0.34,0.38c0.16,0.09,0.38,0.14,0.67,0.14C419.95,182.37,420.24,182.35,420.6,182.3z"/>
		<path d="M430.14,182.62c-0.73,0.62-1.44,1.06-2.11,1.31c-0.68,0.25-1.4,0.38-2.18,0.38c-1.28,0-2.27-0.31-2.95-0.93
			s-1.03-1.42-1.03-2.39c0-0.57,0.13-1.09,0.39-1.56c0.26-0.47,0.6-0.85,1.02-1.13c0.42-0.28,0.9-0.5,1.42-0.64
			c0.39-0.1,0.97-0.2,1.76-0.29c1.6-0.19,2.77-0.42,3.53-0.68c0.01-0.27,0.01-0.44,0.01-0.51c0-0.8-0.19-1.36-0.56-1.69
			c-0.51-0.44-1.26-0.67-2.25-0.67c-0.93,0-1.62,0.16-2.06,0.49c-0.44,0.32-0.77,0.9-0.98,1.72l-1.93-0.26
			c0.18-0.82,0.46-1.49,0.87-1.99c0.4-0.51,0.99-0.9,1.75-1.17c0.76-0.27,1.64-0.41,2.65-0.41c1,0,1.8,0.12,2.43,0.35
			c0.62,0.23,1.08,0.53,1.37,0.88s0.5,0.8,0.62,1.34c0.07,0.33,0.1,0.94,0.1,1.81v2.62c0,1.83,0.04,2.98,0.12,3.47
			c0.08,0.48,0.25,0.95,0.5,1.39h-2.06C430.33,183.65,430.2,183.17,430.14,182.62z M429.98,178.24c-0.72,0.29-1.79,0.54-3.23,0.74
			c-0.81,0.12-1.39,0.25-1.72,0.39s-0.6,0.36-0.78,0.64c-0.18,0.28-0.27,0.59-0.27,0.93c0,0.52,0.2,0.96,0.6,1.31
			c0.4,0.35,0.98,0.52,1.75,0.52c0.76,0,1.44-0.17,2.03-0.5c0.59-0.33,1.03-0.78,1.31-1.36c0.21-0.44,0.32-1.1,0.32-1.96V178.24z"/>
		<path d="M435.02,184.05v-11.59h1.78v1.76c0.45-0.82,0.87-1.36,1.26-1.63c0.38-0.26,0.81-0.39,1.27-0.39
			c0.67,0,1.34,0.21,2.03,0.63l-0.68,1.82c-0.48-0.28-0.97-0.43-1.45-0.43c-0.43,0-0.82,0.13-1.17,0.39s-0.59,0.62-0.74,1.08
			c-0.22,0.7-0.33,1.46-0.33,2.29v6.07H435.02z"/>
		<path d="M442.55,170.31v-2.26h1.98v2.26H442.55z M442.55,184.05v-11.59h1.98v11.59H442.55z"/>
		<path d="M446.8,178.26c0-2.15,0.6-3.74,1.8-4.77c1-0.86,2.23-1.29,3.67-1.29c1.6,0,2.92,0.52,3.93,1.57
			c1.02,1.04,1.53,2.49,1.53,4.33c0,1.49-0.23,2.67-0.68,3.52c-0.45,0.86-1.11,1.52-1.97,1.99c-0.86,0.47-1.8,0.71-2.82,0.71
			c-1.63,0-2.95-0.52-3.96-1.56C447.3,181.71,446.8,180.22,446.8,178.26z M448.83,178.26c0,1.48,0.33,2.6,0.98,3.33
			c0.65,0.74,1.47,1.11,2.46,1.11c0.98,0,1.8-0.37,2.45-1.11c0.65-0.74,0.98-1.87,0.98-3.39c0-1.43-0.33-2.52-0.98-3.26
			c-0.66-0.74-1.47-1.11-2.44-1.11c-0.99,0-1.81,0.37-2.46,1.1C449.15,175.66,448.83,176.77,448.83,178.26z"/>
		<path d="M466.59,184.05v-16h11.64v1.89h-9.51v4.9h8.91v1.88h-8.91v5.45h9.89v1.89H466.59z"/>
		<path d="M488.95,184.05v-1.7c-0.91,1.31-2.14,1.97-3.7,1.97c-0.69,0-1.33-0.13-1.93-0.39c-0.6-0.26-1.04-0.59-1.33-0.99
			c-0.29-0.4-0.49-0.88-0.61-1.46c-0.08-0.39-0.12-1-0.12-1.83v-7.18h1.98v6.43c0,1.03,0.04,1.72,0.12,2.07
			c0.12,0.52,0.39,0.92,0.79,1.22s0.9,0.44,1.49,0.44c0.59,0,1.15-0.15,1.67-0.45c0.52-0.3,0.89-0.71,1.1-1.23
			c0.22-0.52,0.32-1.28,0.32-2.27v-6.21h1.98v11.59H488.95z"/>
		<path d="M493.79,184.05v-11.59h1.78v1.76c0.45-0.82,0.87-1.36,1.26-1.63c0.38-0.26,0.81-0.39,1.27-0.39
			c0.67,0,1.34,0.21,2.03,0.63l-0.68,1.82c-0.48-0.28-0.97-0.43-1.45-0.43c-0.43,0-0.82,0.13-1.17,0.39s-0.59,0.62-0.74,1.08
			c-0.22,0.7-0.33,1.46-0.33,2.29v6.07H493.79z"/>
		<path d="M500.57,178.26c0-2.15,0.6-3.74,1.8-4.77c1-0.86,2.23-1.29,3.67-1.29c1.6,0,2.92,0.52,3.93,1.57
			c1.02,1.04,1.53,2.49,1.53,4.33c0,1.49-0.23,2.67-0.68,3.52c-0.45,0.86-1.11,1.52-1.97,1.99c-0.86,0.47-1.8,0.71-2.82,0.71
			c-1.63,0-2.95-0.52-3.96-1.56C501.07,181.71,500.57,180.22,500.57,178.26z M502.6,178.26c0,1.48,0.33,2.6,0.98,3.33
			c0.65,0.74,1.47,1.11,2.46,1.11c0.98,0,1.8-0.37,2.45-1.11c0.65-0.74,0.98-1.87,0.98-3.39c0-1.43-0.33-2.52-0.98-3.26
			c-0.66-0.74-1.47-1.11-2.44-1.11c-0.99,0-1.81,0.37-2.46,1.1C502.93,175.66,502.6,176.77,502.6,178.26z"/>
		<path d="M513.82,188.5v-16.04h1.8v1.51c0.42-0.59,0.9-1.03,1.44-1.33c0.53-0.29,1.18-0.44,1.94-0.44c1,0,1.88,0.25,2.64,0.76
			s1.34,1.23,1.72,2.16c0.39,0.93,0.58,1.95,0.58,3.05c0,1.19-0.21,2.25-0.64,3.2s-1.05,1.68-1.87,2.18s-1.68,0.76-2.58,0.76
			c-0.66,0-1.25-0.14-1.77-0.42s-0.96-0.63-1.29-1.05v5.64H513.82z M515.61,178.32c0,1.49,0.3,2.59,0.91,3.31s1.34,1.07,2.21,1.07
			c0.88,0,1.63-0.37,2.26-1.11c0.63-0.74,0.94-1.88,0.94-3.43c0-1.48-0.3-2.58-0.92-3.32c-0.61-0.73-1.34-1.1-2.19-1.1
			c-0.84,0-1.59,0.39-2.24,1.17S515.61,176.83,515.61,178.32z"/>
		<path d="M534.31,180.32l2.04,0.25c-0.32,1.19-0.92,2.11-1.79,2.76c-0.87,0.66-1.98,0.98-3.34,0.98c-1.71,0-3.06-0.52-4.06-1.57
			c-1-1.04-1.5-2.51-1.5-4.39c0-1.95,0.5-3.46,1.52-4.54s2.32-1.62,3.93-1.62c1.56,0,2.83,0.53,3.82,1.58
			c0.99,1.06,1.48,2.54,1.48,4.45c0,0.12,0,0.29-0.01,0.52h-8.7c0.07,1.27,0.44,2.25,1.09,2.93c0.65,0.68,1.46,1.02,2.44,1.02
			c0.72,0,1.34-0.19,1.86-0.57C533.61,181.75,534.01,181.15,534.31,180.32z M527.82,177.14h6.51c-0.09-0.98-0.34-1.71-0.75-2.19
			c-0.63-0.76-1.45-1.14-2.45-1.14c-0.91,0-1.67,0.3-2.29,0.91C528.23,175.32,527.89,176.13,527.82,177.14z"/>
		<path d="M538.1,178.26c0-2.15,0.6-3.74,1.8-4.77c1-0.86,2.23-1.29,3.67-1.29c1.6,0,2.91,0.52,3.93,1.57
			c1.02,1.04,1.53,2.49,1.53,4.33c0,1.49-0.22,2.67-0.68,3.52c-0.45,0.86-1.11,1.52-1.97,1.99c-0.86,0.47-1.8,0.71-2.82,0.71
			c-1.63,0-2.95-0.52-3.96-1.56C538.61,181.71,538.1,180.22,538.1,178.26z M540.14,178.26c0,1.48,0.33,2.6,0.98,3.33
			c0.65,0.74,1.47,1.11,2.46,1.11c0.98,0,1.8-0.37,2.45-1.11c0.65-0.74,0.98-1.87,0.98-3.39c0-1.43-0.33-2.52-0.98-3.26
			c-0.66-0.74-1.47-1.11-2.44-1.11c-0.99,0-1.81,0.37-2.46,1.1C540.46,175.66,540.14,176.77,540.14,178.26z"/>
	</g>
	<g class="st2">
		<path d="M256.65,293.46l-6.79-19.81h3.89l3.53,11.43l1.32,4.25c0.06-0.21,0.44-1.57,1.15-4.08l3.53-11.6h3.87l3.32,11.49
			l1.11,3.79l1.27-3.82l3.8-11.45h3.66l-6.94,19.81h-3.91l-3.53-11.86l-0.86-3.38l-4.49,15.24H256.65z"/>
		<path d="M287.56,293.46l-6.79-19.81h3.89l3.53,11.43l1.32,4.25c0.06-0.21,0.44-1.57,1.15-4.08l3.53-11.6h3.87l3.32,11.49
			l1.11,3.79l1.27-3.82l3.8-11.45h3.66l-6.94,19.81h-3.91l-3.53-11.86l-0.86-3.38l-4.49,15.24H287.56z"/>
		<path d="M318.46,293.46l-6.79-19.81h3.89l3.53,11.43l1.32,4.25c0.05-0.21,0.44-1.57,1.15-4.08l3.53-11.6h3.87l3.32,11.49
			l1.11,3.79l1.27-3.82l3.8-11.45h3.66l-6.94,19.81h-3.91l-3.53-11.86l-0.86-3.38l-4.49,15.24H318.46z"/>
		<path d="M343.97,293.46v-3.82h4.28v3.82H343.97z"/>
		<path d="M354.1,295.1l3.66,0.48c0.15,1.01,0.58,1.74,1.27,2.2c0.93,0.62,2.21,0.93,3.82,0.93c1.74,0,3.09-0.31,4.03-0.93
			c0.95-0.62,1.59-1.49,1.92-2.61c0.2-0.68,0.29-2.12,0.27-4.31c-1.64,1.73-3.69,2.59-6.14,2.59c-3.05,0-5.41-0.98-7.08-2.95
			s-2.51-4.32-2.51-7.07c0-1.89,0.38-3.63,1.15-5.23c0.77-1.6,1.88-2.83,3.33-3.7c1.46-0.87,3.17-1.31,5.13-1.31
			c2.62,0,4.78,0.94,6.48,2.83v-2.39h3.47v17.12c0,3.08-0.35,5.27-1.06,6.56c-0.7,1.29-1.82,2.3-3.34,3.05s-3.4,1.12-5.63,1.12
			c-2.65,0-4.79-0.53-6.41-1.59C354.83,298.84,354.05,297.24,354.1,295.1z M357.22,283.2c0,2.6,0.58,4.49,1.73,5.69
			c1.16,1.19,2.6,1.79,4.35,1.79c1.73,0,3.18-0.59,4.35-1.78s1.75-3.05,1.75-5.59c0-2.42-0.6-4.25-1.81-5.48s-2.66-1.85-4.36-1.85
			c-1.67,0-3.09,0.61-4.26,1.82C357.8,279.01,357.22,280.81,357.22,283.2z"/>
		<path d="M393.13,293.46v-2.91c-1.73,2.24-4.07,3.36-7.04,3.36c-1.31,0-2.53-0.22-3.67-0.67c-1.14-0.45-1.98-1.01-2.53-1.69
			s-0.94-1.51-1.16-2.49c-0.15-0.66-0.23-1.7-0.23-3.13v-12.27h3.76v10.98c0,1.75,0.08,2.93,0.23,3.54c0.24,0.88,0.74,1.58,1.5,2.08
			s1.71,0.75,2.84,0.75c1.13,0,2.19-0.26,3.18-0.77c0.99-0.52,1.69-1.22,2.1-2.11c0.41-0.89,0.62-2.18,0.62-3.87v-10.61h3.76v19.81
			H393.13z"/>
		<path d="M417.58,287.08l3.89,0.43c-0.61,2.03-1.75,3.6-3.41,4.72s-3.78,1.68-6.35,1.68c-3.25,0-5.82-0.89-7.72-2.68
			c-1.9-1.78-2.85-4.29-2.85-7.51c0-3.33,0.96-5.92,2.88-7.76c1.92-1.84,4.42-2.76,7.48-2.76c2.97,0,5.39,0.9,7.27,2.7
			c1.88,1.8,2.82,4.34,2.82,7.61c0,0.2-0.01,0.5-0.02,0.89h-16.55c0.14,2.18,0.83,3.84,2.07,5c1.24,1.16,2.79,1.73,4.64,1.73
			c1.38,0,2.55-0.32,3.53-0.97S417.01,288.5,417.58,287.08z M405.23,281.65h12.39c-0.17-1.67-0.64-2.92-1.42-3.75
			c-1.2-1.29-2.75-1.94-4.66-1.94c-1.73,0-3.18,0.52-4.36,1.55C406,278.54,405.35,279.92,405.23,281.65z"/>
		<path d="M426.19,293.46v-19.81h3.38v2.82c1.63-2.18,3.98-3.26,7.06-3.26c1.34,0,2.57,0.21,3.69,0.64
			c1.12,0.43,1.96,0.99,2.52,1.69c0.56,0.7,0.95,1.52,1.17,2.48c0.14,0.62,0.21,1.71,0.21,3.26v12.18h-3.76v-12.05
			c0-1.37-0.15-2.39-0.44-3.07s-0.81-1.22-1.56-1.62s-1.62-0.61-2.62-0.61c-1.6,0-2.98,0.45-4.15,1.36
			c-1.16,0.91-1.75,2.63-1.75,5.17v10.82H426.19z"/>
		<path d="M449.29,295.1l3.66,0.48c0.15,1.01,0.58,1.74,1.28,2.2c0.93,0.62,2.21,0.93,3.82,0.93c1.74,0,3.08-0.31,4.03-0.93
			c0.95-0.62,1.59-1.49,1.92-2.61c0.2-0.68,0.29-2.12,0.27-4.31c-1.64,1.73-3.69,2.59-6.14,2.59c-3.05,0-5.41-0.98-7.08-2.95
			c-1.67-1.96-2.51-4.32-2.51-7.07c0-1.89,0.38-3.63,1.15-5.23c0.77-1.6,1.88-2.83,3.33-3.7c1.46-0.87,3.16-1.31,5.13-1.31
			c2.62,0,4.78,0.94,6.48,2.83v-2.39h3.47v17.12c0,3.08-0.35,5.27-1.05,6.56c-0.7,1.29-1.82,2.3-3.34,3.05s-3.4,1.12-5.63,1.12
			c-2.65,0-4.78-0.53-6.41-1.59S449.24,297.24,449.29,295.1z M452.41,283.2c0,2.6,0.58,4.49,1.73,5.69s2.6,1.79,4.35,1.79
			c1.73,0,3.18-0.59,4.35-1.78s1.76-3.05,1.76-5.59c0-2.42-0.6-4.25-1.81-5.48c-1.21-1.23-2.66-1.85-4.36-1.85
			c-1.67,0-3.09,0.61-4.26,1.82C452.99,279.01,452.41,280.81,452.41,283.2z"/>
		<path d="M473.7,293.46v-27.34h3.76v27.34H473.7z"/>
		<path d="M484.35,293.46v-3.82h4.28v3.82H484.35z"/>
		<path d="M510.37,287.08l3.89,0.43c-0.61,2.03-1.75,3.6-3.41,4.72s-3.78,1.68-6.35,1.68c-3.25,0-5.82-0.89-7.72-2.68
			c-1.9-1.78-2.85-4.29-2.85-7.51c0-3.33,0.96-5.92,2.88-7.76c1.92-1.84,4.42-2.76,7.48-2.76c2.97,0,5.39,0.9,7.27,2.7
			c1.88,1.8,2.82,4.34,2.82,7.61c0,0.2-0.01,0.5-0.02,0.89h-16.55c0.14,2.18,0.83,3.84,2.07,5c1.24,1.16,2.79,1.73,4.64,1.73
			c1.38,0,2.55-0.32,3.53-0.97S509.79,288.5,510.37,287.08z M498.02,281.65h12.39c-0.17-1.67-0.64-2.92-1.42-3.75
			c-1.2-1.29-2.75-1.94-4.66-1.94c-1.73,0-3.18,0.52-4.36,1.55C498.79,278.54,498.14,279.92,498.02,281.65z"/>
		<path d="M533.52,293.46v-2.91c-1.73,2.24-4.07,3.36-7.04,3.36c-1.31,0-2.53-0.22-3.67-0.67c-1.13-0.45-1.98-1.01-2.53-1.69
			s-0.94-1.51-1.16-2.49c-0.15-0.66-0.23-1.7-0.23-3.13v-12.27h3.76v10.98c0,1.75,0.08,2.93,0.23,3.54c0.24,0.88,0.74,1.58,1.5,2.08
			s1.71,0.75,2.84,0.75s2.19-0.26,3.18-0.77c0.99-0.52,1.69-1.22,2.1-2.11c0.41-0.89,0.62-2.18,0.62-3.87v-10.61h3.76v19.81H533.52z
			"/>
	</g>
</g>
</svg>
