<?xml version="1.0" standalone="no"?>
<!DOCTYPE svg PUBLIC "-//W3C//DTD SVG 20010904//EN"
 "http://www.w3.org/TR/2001/REC-SVG-20010904/DTD/svg10.dtd">
<svg version="1.0" xmlns="http://www.w3.org/2000/svg"
 width="625.000000pt" height="625.000000pt" viewBox="0 0 625.000000 625.000000"
 preserveAspectRatio="xMidYMid meet">
<metadata>
Created by potrace 1.11, written by Peter Selinger 2001-2013
</metadata>
<g transform="translate(0.000000,625.000000) scale(0.100000,-0.100000)"
fill="#000000" stroke="none">
<path d="M0 5405 c0 -576 3 -845 10 -845 7 0 7 -6 0 -19 -7 -14 -10 -741 -10
-2280 l0 -2261 859 0 858 0 28 78 c15 42 35 88 44 102 9 14 27 50 40 80 47
112 77 129 118 65 30 -46 153 -131 220 -152 44 -14 59 -15 86 -5 19 7 47 12
63 12 46 0 284 -38 339 -54 28 -8 79 -18 115 -21 46 -5 74 -15 97 -33 66 -49
148 -65 369 -69 l201 -4 96 90 97 91 103 0 c71 0 129 6 182 20 62 16 85 18
114 9 32 -9 42 -7 101 25 36 19 81 50 101 69 28 26 47 35 88 40 28 3 107 24
175 46 300 98 427 116 617 87 174 -26 197 -24 265 29 31 25 62 45 67 45 5 0
37 -7 71 -17 l63 -16 109 38 c60 21 119 45 132 53 12 8 40 14 61 14 70 -1 275
-43 324 -66 l47 -23 0 253 c0 235 -1 254 -17 254 -17 1 -17 1 0 14 16 12 17
96 17 1507 l0 1495 -72 11 -73 11 -56 -58 c-45 -46 -70 -62 -120 -79 -80 -26
-123 -52 -146 -88 -16 -24 -19 -59 -23 -308 l-5 -282 -28 -37 c-16 -20 -51
-55 -79 -76 -42 -33 -57 -40 -96 -40 -42 0 -50 -5 -107 -59 -65 -62 -83 -70
-210 -91 -38 -6 -117 -27 -176 -46 -58 -19 -123 -34 -144 -34 -85 0 -125 -35
-273 -233 -28 -38 -124 -152 -214 -254 -90 -102 -171 -199 -181 -216 -15 -27
-18 -48 -14 -132 5 -113 28 -188 77 -261 40 -57 50 -113 23 -135 -10 -9 -48
-26 -85 -38 -96 -32 -142 -68 -166 -133 -15 -41 -26 -55 -48 -63 -47 -16 -51
-22 -57 -80 -4 -42 -14 -67 -41 -104 -53 -71 -58 -75 -94 -54 -27 15 -36 16
-79 5 -85 -23 -248 -107 -292 -151 -38 -38 -41 -45 -41 -94 0 -61 -4 -68 -50
-96 -48 -29 -71 -26 -106 10 -47 50 -58 52 -112 25 -34 -17 -83 -29 -172 -40
-244 -30 -254 -30 -312 -8 -29 11 -95 30 -146 42 -135 32 -198 19 -244 -50
-23 -35 -25 -35 -113 -41 -50 -4 -112 -14 -139 -23 -27 -9 -70 -16 -95 -16
-42 0 -49 -4 -101 -58 l-55 -58 -53 43 c-29 24 -61 43 -72 43 -10 0 -30 15
-43 32 -46 61 -48 70 -25 116 21 40 21 42 4 86 -26 68 -91 129 -165 157 -53
19 -72 33 -133 101 -67 74 -73 78 -113 78 -23 0 -60 -6 -82 -14 -125 -44 -424
23 -493 111 l-21 28 -61 -23 c-34 -12 -63 -20 -65 -18 -3 2 7 39 21 83 14 43
27 90 30 104 4 16 19 35 39 46 29 18 35 28 48 92 13 60 14 73 2 82 -18 15 -8
92 24 184 13 39 26 95 29 125 l6 55 -96 64 -96 65 6 35 c3 20 14 65 24 101 10
36 22 93 25 127 7 62 7 63 43 73 21 5 42 10 48 10 27 0 68 67 124 204 33 81
77 182 96 224 20 43 40 95 44 117 17 89 53 224 76 285 37 101 47 173 41 298
-6 102 -9 116 -32 144 -29 34 -24 52 12 43 32 -8 91 28 99 61 3 13 -1 45 -10
71 -20 58 -21 122 -1 149 13 20 12 23 -26 54 -23 18 -47 48 -55 66 -9 22 -21
34 -33 34 -32 0 -51 11 -51 29 0 30 22 41 81 41 64 0 98 20 119 70 14 34 52
41 86 15 23 -17 69 -19 111 -5 28 10 53 45 53 74 0 38 83 70 233 90 36 5 38 3
77 -54 44 -65 74 -80 161 -80 33 0 57 -7 84 -26 34 -23 45 -25 95 -19 47 5 75
1 176 -29 67 -19 138 -46 159 -60 23 -16 52 -26 74 -26 20 0 63 -7 96 -15 33
-8 86 -14 118 -15 36 0 75 -8 102 -20 41 -19 57 -20 230 -14 211 8 207 9 251
-78 29 -57 42 -59 167 -27 94 24 121 21 178 -21 34 -25 52 -30 96 -30 30 0 68
-7 84 -16 49 -25 80 -15 114 36 17 25 79 168 139 318 107 268 109 272 137 272
26 0 29 4 29 30 0 34 -20 79 -44 99 -23 19 -20 47 8 68 23 17 24 21 14 68 -14
65 9 128 43 123 17 -2 27 -16 41 -58 21 -63 65 -130 84 -130 18 0 34 32 34 69
0 17 -25 87 -56 156 -47 108 -55 132 -49 165 5 28 1 48 -14 78 -20 39 -20 40
-1 78 21 40 26 99 11 123 -5 7 -24 21 -44 30 -19 9 -62 41 -95 72 -45 42 -65
70 -79 109 -12 34 -29 61 -50 77 -42 33 -43 68 -3 118 28 35 41 85 22 85 -5 0
-31 27 -57 60 l-48 60 -1249 0 c-1172 0 -1250 -1 -1275 -17 -26 -17 -27 -17
-20 0 6 16 -30 17 -658 17 l-665 0 0 -845z m1294 784 c-12 -13 -20 -16 -22 -9
-3 7 2 16 9 21 25 16 32 9 13 -12z m-45 -45 c-6 -8 -18 -14 -27 -14 -13 0 -12
3 3 20 20 22 43 17 24 -6z m-52 -49 c-4 -8 -14 -15 -23 -15 -16 0 -16 2 1 20
20 22 31 20 22 -5z m-56 -58 c-16 -16 -26 0 -10 19 9 11 15 12 17 4 2 -6 -1
-17 -7 -23z m-45 -45 c-8 -9 -19 -13 -22 -9 -10 9 16 38 28 31 6 -4 4 -13 -6
-22z m-51 -52 c-10 -11 -20 -18 -23 -15 -3 3 3 14 13 25 10 11 20 18 23 15 3
-3 -3 -14 -13 -25z m-35 -39 c0 -13 -26 -32 -33 -24 -8 7 11 33 24 33 5 0 9
-4 9 -9z m-55 -61 c-10 -11 -20 -18 -23 -15 -7 6 18 35 31 35 5 0 2 -9 -8 -20z
m-35 -39 c0 -13 -29 -35 -37 -28 -7 8 15 37 28 37 5 0 9 -4 9 -9z m-64 -79
c-14 -14 -16 -14 -16 -1 0 20 23 44 29 28 2 -6 -4 -18 -13 -27z m-36 -42 c-11
-20 -30 -28 -30 -12 0 11 22 32 32 32 5 0 4 -9 -2 -20z m-46 -54 c-6 -16 -24
-23 -24 -8 0 10 22 33 27 28 2 -2 1 -11 -3 -20z m-44 -56 c-11 -20 -30 -28
-30 -12 0 11 22 32 32 32 5 0 4 -9 -2 -20z m-40 -50 c-11 -20 -30 -28 -30 -12
0 11 22 32 32 32 5 0 4 -9 -2 -20z m-54 -68 c-14 -14 -16 -14 -16 -1 0 20 23
44 29 28 2 -6 -4 -18 -13 -27z m-26 -30 c0 -10 -22 -32 -32 -32 -5 0 -3 9 4
20 13 20 28 27 28 12z m-52 -72 c-13 -20 -28 -27 -28 -12 0 10 22 32 32 32 5
0 3 -9 -4 -20z m-48 -66 c-18 -21 -24 -10 -9 18 8 14 14 18 17 10 2 -7 -2 -19
-8 -28z m-36 -48 c-6 -16 -24 -23 -24 -8 0 10 22 33 27 28 2 -2 1 -11 -3 -20z
m-44 -62 c-18 -21 -24 -10 -9 18 8 14 14 18 17 10 2 -7 -2 -19 -8 -28z m-41
-56 c-8 -14 -14 -18 -17 -10 -4 13 17 46 25 38 3 -2 -1 -15 -8 -28z m-29 -35
c0 -14 -19 -38 -25 -32 -8 8 5 39 16 39 5 0 9 -3 9 -7z m-40 -62 c0 -5 -7 -14
-15 -21 -16 -14 -18 -10 -9 14 6 17 24 22 24 7z m-54 -79 c-14 -14 -16 -14
-16 -1 0 20 23 44 29 28 2 -6 -4 -18 -13 -27z m-40 -60 c-14 -14 -16 -14 -16
-1 0 20 23 44 29 28 2 -6 -4 -18 -13 -27z m-35 -55 c-16 -16 -26 0 -10 19 9
11 15 12 17 4 2 -6 -1 -17 -7 -23z m-31 -47 c-6 -11 -15 -20 -21 -20 -6 0 -6
7 1 20 6 11 15 20 21 20 6 0 6 -7 -1 -20z m-40 -60 c-6 -11 -15 -20 -21 -20
-6 0 -6 7 1 20 6 11 15 20 21 20 6 0 6 -7 -1 -20z m-30 -49 c0 -5 -7 -14 -15
-21 -16 -14 -18 -10 -9 14 6 17 24 22 24 7z m-40 -58 c0 -14 -19 -38 -25 -32
-8 8 5 39 16 39 5 0 9 -3 9 -7z m5985 -2113 c7 0 27 -12 44 -26 39 -32 41 -70
6 -86 -21 -9 -36 -7 -94 16 -93 36 -101 60 -31 90 19 8 41 13 48 11 8 -3 20
-5 27 -5z m-437 -145 c17 -14 55 -36 86 -50 50 -22 56 -28 56 -55 0 -77 -76
-159 -155 -168 -43 -4 -48 -2 -99 46 -44 42 -61 51 -102 57 -92 12 -104 35
-47 94 40 42 157 99 205 100 15 1 40 -10 56 -24z m-597 -401 c12 -14 9 -20
-21 -46 -42 -34 -98 -53 -134 -44 -53 13 -29 45 61 82 69 28 77 29 94 8z
m1199 -904 c0 -5 -12 -10 -26 -10 -14 0 -23 4 -19 10 3 6 15 10 26 10 10 0 19
-4 19 -10z m-280 -10 c0 -5 -12 -10 -27 -9 l-28 1 25 8 c14 4 26 8 28 9 1 1 2
-3 2 -9z m70 0 c0 -5 -12 -10 -26 -10 -14 0 -23 4 -19 10 3 6 15 10 26 10 10
0 19 -4 19 -10z m70 0 c0 -5 -9 -10 -20 -10 -11 0 -20 5 -20 10 0 6 9 10 20
10 11 0 20 -4 20 -10z m63 3 c-7 -2 -21 -2 -30 0 -10 3 -4 5 12 5 17 0 24 -2
18 -5z m-343 -13 c0 -5 -12 -10 -26 -10 -14 0 -23 4 -19 10 3 6 15 10 26 10
10 0 19 -4 19 -10z m70 0 c0 -5 -9 -10 -19 -10 -11 0 -23 5 -26 10 -4 6 5 10
19 10 14 0 26 -4 26 -10z m-210 -10 c0 -5 -12 -10 -26 -10 -14 0 -23 4 -19 10
3 6 15 10 26 10 10 0 19 -4 19 -10z m65 0 c-3 -5 -12 -10 -20 -10 -8 0 -17 5
-20 10 -4 6 5 10 20 10 15 0 24 -4 20 -10z m-205 -10 c0 -5 -12 -10 -26 -10
-14 0 -23 4 -19 10 3 6 15 10 26 10 10 0 19 -4 19 -10z m57 -1 c-14 -8 -22 -8
-30 0 -8 8 -3 11 19 11 25 -1 27 -2 11 -11z m-197 -9 c0 -5 -12 -10 -27 -10
-22 0 -25 2 -13 10 20 13 40 13 40 0z m65 0 c-3 -5 -13 -10 -21 -10 -8 0 -14
5 -14 10 0 6 9 10 21 10 11 0 17 -4 14 -10z m-201 -9 c3 -5 -5 -11 -19 -13
-28 -6 -35 8 -7 15 9 3 18 5 19 6 1 0 4 -3 7 -8z m66 -1 c0 -5 -9 -10 -20 -10
-11 0 -20 5 -20 10 0 6 9 10 20 10 11 0 20 -4 20 -10z m-140 -10 c0 -5 -9 -10
-20 -10 -11 0 -20 5 -20 10 0 6 9 10 20 10 11 0 20 -4 20 -10z m-136 -9 c3 -5
-5 -11 -19 -13 -28 -6 -35 8 -7 15 9 3 18 5 19 6 1 0 4 -3 7 -8z m71 -1 c-3
-5 -15 -10 -26 -10 -10 0 -19 5 -19 10 0 6 12 10 26 10 14 0 23 -4 19 -10z
m-140 -10 c4 -6 -5 -10 -20 -10 -15 0 -24 4 -20 10 3 6 12 10 20 10 8 0 17 -4
20 -10z m-70 -10 c-3 -5 -15 -10 -26 -10 -10 0 -19 5 -19 10 0 6 12 10 26 10
14 0 23 -4 19 -10z m-151 -21 c-27 -11 -34 -10 -34 0 0 11 31 20 44 13 5 -3 1
-9 -10 -13z m81 11 c-3 -5 -15 -10 -26 -10 -10 0 -19 5 -19 10 0 6 12 10 26
10 14 0 23 -4 19 -10z m-135 -10 c0 -5 -12 -10 -27 -10 -22 0 -25 2 -13 10 20
13 40 13 40 0z m-70 -10 c0 -5 -12 -10 -26 -10 -14 0 -23 4 -19 10 3 6 15 10
26 10 10 0 19 -4 19 -10z m-70 -10 c0 -5 -11 -10 -25 -10 -14 0 -25 5 -25 10
0 6 11 10 25 10 14 0 25 -4 25 -10z m-75 -10 c-3 -5 -15 -10 -26 -10 -10 0
-19 5 -19 10 0 6 12 10 26 10 14 0 23 -4 19 -10z m-70 -10 c-3 -5 -15 -10 -26
-10 -10 0 -19 5 -19 10 0 6 12 10 26 10 14 0 23 -4 19 -10z m-75 -10 c-20 -13
-40 -13 -40 0 0 6 12 10 28 10 21 0 24 -2 12 -10z m-130 -9 c0 -13 -30 -22
-43 -14 -7 4 -2 10 13 14 14 4 26 7 28 8 1 1 2 -3 2 -8z m57 -2 c-14 -8 -22
-8 -30 0 -8 8 -3 11 19 11 25 -1 27 -2 11 -11z m-127 -8 c0 -12 -39 -21 -45
-11 -3 5 5 11 17 13 13 2 24 5 26 6 1 0 2 -3 2 -8z m-70 -10 c0 -5 -9 -11 -20
-14 -11 -3 -20 -1 -20 3 0 5 8 11 18 13 9 3 18 5 20 6 1 0 2 -3 2 -8z m-76
-22 c-27 -11 -34 -10 -34 0 0 11 31 20 44 13 5 -3 1 -9 -10 -13z m-70 -10
c-27 -11 -34 -10 -34 0 0 11 31 20 44 13 5 -3 1 -9 -10 -13z m-69 -9 c-27 -12
-35 -12 -35 0 0 6 12 10 28 9 24 0 25 -1 7 -9z m-65 -10 c-20 -13 -40 -13 -40
0 0 6 12 10 28 10 21 0 24 -2 12 -10z m-70 -10 c-20 -13 -40 -13 -40 0 0 6 12
10 28 10 21 0 24 -2 12 -10z m-65 -10 c-3 -5 -15 -10 -26 -10 -10 0 -19 5 -19
10 0 6 12 10 26 10 14 0 23 -4 19 -10z m-70 -10 c-3 -5 -15 -10 -26 -10 -11 0
-17 5 -14 10 3 6 15 10 26 10 11 0 17 -4 14 -10z m-65 -10 c0 -5 -12 -10 -26
-10 -14 0 -23 4 -19 10 3 6 15 10 26 10 10 0 19 -4 19 -10z m-70 -10 c0 -5
-12 -10 -27 -10 -22 0 -25 2 -13 10 20 13 40 13 40 0z m-70 -9 c0 -12 -39 -21
-45 -11 -3 5 3 11 12 13 29 8 33 7 33 -2z m-80 -21 c-19 -12 -30 -12 -30 -1 0
10 31 20 40 14 2 -2 -2 -8 -10 -13z m-60 -10 c-20 -13 -40 -13 -40 0 0 6 12
10 28 10 21 0 24 -2 12 -10z m-65 -10 c-3 -5 -15 -10 -26 -10 -10 0 -19 5 -19
10 0 6 12 10 26 10 14 0 23 -4 19 -10z m-65 -10 c0 -5 -12 -10 -26 -10 -14 0
-23 4 -19 10 3 6 15 10 26 10 10 0 19 -4 19 -10z m-86 -21 c-27 -11 -34 -10
-34 0 0 11 31 20 44 13 5 -3 1 -9 -10 -13z m-59 -9 c-3 -5 -15 -10 -26 -10
-10 0 -19 5 -19 10 0 6 12 10 26 10 14 0 23 -4 19 -10z m-65 -10 c0 -5 -12
-10 -26 -10 -14 0 -23 4 -19 10 3 6 15 10 26 10 10 0 19 -4 19 -10z m-70 -9
c0 -12 -39 -21 -45 -11 -3 5 3 11 12 13 29 8 33 7 33 -2z m-75 -21 c-3 -5 -13
-10 -21 -10 -8 0 -14 5 -14 10 0 6 9 10 21 10 11 0 17 -4 14 -10z m-65 -10 c0
-5 -9 -10 -20 -10 -11 0 -20 5 -20 10 0 6 9 10 20 10 11 0 20 -4 20 -10z m-66
-9 c3 -5 -5 -11 -19 -13 -26 -5 -35 6 -12 15 19 8 25 8 31 -2z m-2554 -11 c8
-5 12 -12 9 -15 -8 -8 -39 5 -39 16 0 11 11 11 30 -1z m2480 -10 c-20 -13 -40
-13 -40 0 0 6 12 10 28 10 21 0 24 -2 12 -10z m-60 -10 c0 -5 -12 -10 -27 -10
-22 0 -25 2 -13 10 20 13 40 13 40 0z m-2350 -10 c12 -8 11 -10 -7 -10 -12 0
-25 5 -28 10 -8 13 15 13 35 0z m2270 -10 c-19 -12 -40 -13 -40 -1 0 9 40 20
50 13 2 -2 -2 -7 -10 -12z m-2210 -10 c8 -5 12 -12 9 -15 -8 -8 -39 5 -39 16
0 11 11 11 30 -1z m2150 0 c0 -5 -12 -10 -26 -10 -14 0 -23 4 -19 10 3 6 15
10 26 10 10 0 19 -4 19 -10z m-80 -20 c-19 -12 -30 -12 -30 -1 0 10 31 20 40
14 2 -2 -2 -8 -10 -13z m-1990 -12 c0 -6 -7 -7 -16 -4 -9 3 -20 6 -25 6 -6 0
-8 4 -5 9 8 12 46 2 46 -11z m1935 2 c-3 -5 -15 -10 -26 -10 -10 0 -19 5 -19
10 0 6 12 10 26 10 14 0 23 -4 19 -10z m-1866 -16 c2 -2 2 -6 0 -9 -8 -7 -49
7 -49 17 0 8 38 2 49 -8z m1795 7 c3 -5 -5 -11 -19 -13 -26 -5 -35 6 -12 15
19 8 25 8 31 -2z m-80 -22 c-27 -11 -34 -10 -34 0 0 11 31 20 44 13 5 -3 1 -9
-10 -13z m-1660 5 c9 -3 14 -10 11 -14 -6 -10 -45 -1 -45 11 0 10 12 11 34 3z
m1601 -14 c-3 -5 -15 -10 -26 -10 -10 0 -19 5 -19 10 0 6 12 10 26 10 14 0 23
-4 19 -10z m-1525 -10 c0 -5 -6 -10 -14 -10 -8 0 -18 5 -21 10 -3 6 3 10 14
10 12 0 21 -4 21 -10z m1460 0 c0 -5 -12 -10 -27 -10 -22 0 -25 2 -13 10 20
13 40 13 40 0z m-1406 -6 c23 -9 20 -23 -4 -17 -11 3 -20 9 -20 14 0 11 3 11
24 3z m1326 -14 c-19 -12 -40 -13 -40 -1 0 9 40 20 50 13 2 -2 -2 -7 -10 -12z
m-1240 -10 c0 -13 -20 -13 -40 0 -12 8 -9 10 13 10 15 0 27 -4 27 -10z m1180
0 c0 -5 -12 -10 -26 -10 -14 0 -23 4 -19 10 3 6 15 10 26 10 10 0 19 -4 19
-10z m-1110 -10 c0 -5 -9 -10 -19 -10 -11 0 -23 5 -26 10 -4 6 5 10 19 10 14
0 26 -4 26 -10z m1040 0 c0 -5 -12 -10 -27 -10 -22 0 -25 2 -13 10 20 13 40
13 40 0z m-970 -10 c0 -5 -9 -10 -19 -10 -11 0 -23 5 -26 10 -4 6 5 10 19 10
14 0 26 -4 26 -10z m900 1 c0 -5 -9 -11 -20 -14 -22 -6 -28 8 -7 16 19 8 27 8
27 -2z m-830 -11 c0 -5 -9 -10 -19 -10 -11 0 -23 5 -26 10 -4 6 5 10 19 10 14
0 26 -4 26 -10z m65 -10 c-3 -5 -14 -6 -25 -3 -11 3 -18 9 -15 13 3 5 14 6 25
3 11 -3 18 -9 15 -13z m700 10 c4 -6 -6 -10 -22 -10 -22 0 -25 2 -13 10 19 12
27 12 35 0z m-630 -10 c4 -6 -5 -10 -19 -10 -14 0 -26 5 -26 10 0 6 9 10 19
10 11 0 23 -4 26 -10z m560 0 c4 -6 -5 -10 -20 -10 -15 0 -24 4 -20 10 3 6 12
10 20 10 8 0 17 -4 20 -10z m-490 -10 c-3 -5 -12 -10 -20 -10 -8 0 -17 5 -20
10 -4 6 5 10 20 10 15 0 24 -4 20 -10z m70 0 c4 -6 -5 -10 -19 -10 -14 0 -26
5 -26 10 0 6 9 10 19 10 11 0 23 -4 26 -10z m75 -6 c0 -2 -12 -4 -26 -4 -14 0
-23 4 -20 9 6 8 46 4 46 -5z m205 6 c4 -6 -5 -10 -20 -10 -15 0 -24 4 -20 10
3 6 12 10 20 10 8 0 17 -4 20 -10z m70 0 c-3 -5 -15 -10 -26 -10 -10 0 -19 5
-19 10 0 6 12 10 26 10 14 0 23 -4 19 -10z m-212 -7 c-7 -2 -21 -2 -30 0 -10
3 -4 5 12 5 17 0 24 -2 18 -5z m70 0 c-7 -2 -21 -2 -30 0 -10 3 -4 5 12 5 17
0 24 -2 18 -5z"/>
</g>
</svg>
