<?xml version="1.0" encoding="UTF-8" standalone="no"?>
<!-- Generator: Adobe Illustrator 23.0.3, SVG Export Plug-In . SVG Version: 6.00 Build 0)  -->

<svg
   xmlns:dc="http://purl.org/dc/elements/1.1/"
   xmlns:cc="http://creativecommons.org/ns#"
   xmlns:rdf="http://www.w3.org/1999/02/22-rdf-syntax-ns#"
   xmlns:svg="http://www.w3.org/2000/svg"
   xmlns="http://www.w3.org/2000/svg"
   xmlns:sodipodi="http://sodipodi.sourceforge.net/DTD/sodipodi-0.dtd"
   xmlns:inkscape="http://www.inkscape.org/namespaces/inkscape"
   version="1.1"
   id="Capa_12"
   x="0px"
   y="0px"
   viewBox="0 0 2303.1 1080"
   style="enable-background:new 0 0 2303.1 1080;"
   xml:space="preserve"
   sodipodi:docname="memoriade.svg"
   inkscape:version="0.92.4 (unknown)"><metadata
   id="metadata1007"><rdf:RDF><cc:Work
       rdf:about=""><dc:format>image/svg+xml</dc:format><dc:type
         rdf:resource="http://purl.org/dc/dcmitype/StillImage" /></cc:Work></rdf:RDF></metadata><defs
   id="defs1005" /><sodipodi:namedview
   pagecolor="#ffffff"
   bordercolor="#666666"
   borderopacity="1"
   objecttolerance="10"
   gridtolerance="10"
   guidetolerance="10"
   inkscape:pageopacity="0"
   inkscape:pageshadow="2"
   inkscape:window-width="1920"
   inkscape:window-height="983"
   id="namedview1003"
   showgrid="false"
   inkscape:zoom="0.38500797"
   inkscape:cx="1177.8855"
   inkscape:cy="571.01144"
   inkscape:window-x="0"
   inkscape:window-y="34"
   inkscape:window-maximized="1"
   inkscape:current-layer="text1011" />
<style
   type="text/css"
   id="style948">
	.st0{fill:#1D1D1B;}
</style>

<g
   aria-label="COLECCION DE MAPAS"
   style="font-style:normal;font-weight:normal;font-size:239.03622437px;line-height:1.25;font-family:sans-serif;letter-spacing:0px;word-spacing:0px;fill:#000000;fill-opacity:1;stroke:none;stroke-width:1"
   id="text1011"><path
     d="m 346.51614,439.75575 c 23.66459,0 39.68001,-16.25446 39.68001,-39.68001 v -23.90363 h -24.85976 v 23.90363 c 0,9.80048 -5.97591,15.77639 -14.58121,15.77639 -8.60531,0 -14.58121,-5.97591 -14.58121,-15.77639 v -92.74606 c 0,-9.80048 5.9759,-15.77639 14.58121,-15.77639 8.6053,0 14.58121,5.97591 14.58121,15.77639 v 19.60097 h 24.85976 v -19.60097 c 0,-23.42555 -16.01542,-39.68001 -39.68001,-39.68001 -23.66459,0 -39.68001,16.25446 -39.68001,39.68001 v 92.74606 c 0,23.42555 16.01542,39.68001 39.68001,39.68001 z"
     style="font-style:normal;font-variant:normal;font-weight:normal;font-stretch:normal;font-family:Bebas;-inkscape-font-specification:Bebas;fill:#000000;stroke-width:1"
     id="path1038" /><path
     d="m 448.78256,439.75575 c 24.38169,0 40.63616,-16.25446 40.63616,-40.39712 v -91.31184 c 0,-24.14266 -16.25447,-40.39712 -40.63616,-40.39712 -24.3817,0 -40.63616,16.25446 -40.63616,40.39712 v 91.31184 c 0,24.14266 16.25446,40.39712 40.63616,40.39712 z m 0,-23.90362 c -9.32242,0 -15.29832,-5.97591 -15.29832,-16.4935 v -91.31184 c 0,-10.51759 5.9759,-16.4935 15.29832,-16.4935 9.32241,0 15.29832,5.97591 15.29832,16.4935 v 91.31184 c 0,10.51759 -5.97591,16.4935 -15.29832,16.4935 z"
     style="font-style:normal;font-variant:normal;font-weight:normal;font-stretch:normal;font-family:Bebas;-inkscape-font-specification:Bebas;fill:#000000;stroke-width:1"
     id="path1040" /><path
     d="m 514.87606,437.36539 h 70.51569 V 413.46176 H 540.2139 V 270.04003 h -25.33784 z"
     style="font-style:normal;font-variant:normal;font-weight:normal;font-stretch:normal;font-family:Bebas;-inkscape-font-specification:Bebas;fill:#000000;stroke-width:1"
     id="path1042" /><path
     d="m 604.98153,437.36539 h 71.94991 v -23.90363 h -46.61207 v -49.00242 h 37.05062 v -23.90362 h -37.05062 v -46.61207 h 46.61207 v -23.90362 h -71.94991 z"
     style="font-style:normal;font-variant:normal;font-weight:normal;font-stretch:normal;font-family:Bebas;-inkscape-font-specification:Bebas;fill:#000000;stroke-width:1"
     id="path1044" /><path
     d="m 735.88376,439.75575 c 23.66458,0 39.68001,-16.25446 39.68001,-39.68001 V 376.17211 H 750.704 v 23.90363 c 0,9.80048 -5.9759,15.77639 -14.58121,15.77639 -8.6053,0 -14.58121,-5.97591 -14.58121,-15.77639 v -92.74606 c 0,-9.80048 5.97591,-15.77639 14.58121,-15.77639 8.60531,0 14.58121,5.97591 14.58121,15.77639 v 19.60097 h 24.85977 v -19.60097 c 0,-23.42555 -16.01543,-39.68001 -39.68001,-39.68001 -23.66459,0 -39.68002,16.25446 -39.68002,39.68001 v 92.74606 c 0,23.42555 16.01543,39.68001 39.68002,39.68001 z"
     style="font-style:normal;font-variant:normal;font-weight:normal;font-stretch:normal;font-family:Bebas;-inkscape-font-specification:Bebas;fill:#000000;stroke-width:1"
     id="path1046" /><path
     d="m 837.194,439.75575 c 23.66458,0 39.68001,-16.25446 39.68001,-39.68001 v -23.90363 h -24.85977 v 23.90363 c 0,9.80048 -5.9759,15.77639 -14.58121,15.77639 -8.6053,0 -14.58121,-5.97591 -14.58121,-15.77639 v -92.74606 c 0,-9.80048 5.97591,-15.77639 14.58121,-15.77639 8.60531,0 14.58121,5.97591 14.58121,15.77639 v 19.60097 h 24.85977 v -19.60097 c 0,-23.42555 -16.01543,-39.68001 -39.68001,-39.68001 -23.66459,0 -39.68002,16.25446 -39.68002,39.68001 v 92.74606 c 0,23.42555 16.01543,39.68001 39.68002,39.68001 z"
     style="font-style:normal;font-variant:normal;font-weight:normal;font-stretch:normal;font-family:Bebas;-inkscape-font-specification:Bebas;fill:#000000;stroke-width:1"
     id="path1048" /><path
     d="m 900.0419,437.36539 h 25.33784 V 270.04003 H 900.0419 Z"
     style="font-style:normal;font-variant:normal;font-weight:normal;font-stretch:normal;font-family:Bebas;-inkscape-font-specification:Bebas;fill:#000000;stroke-width:1"
     id="path1050" /><path
     d="m 991.74963,439.75575 c 24.38167,0 40.63617,-16.25446 40.63617,-40.39712 v -91.31184 c 0,-24.14266 -16.2545,-40.39712 -40.63617,-40.39712 -24.3817,0 -40.63616,16.25446 -40.63616,40.39712 v 91.31184 c 0,24.14266 16.25446,40.39712 40.63616,40.39712 z m 0,-23.90362 c -9.32241,0 -15.29832,-5.97591 -15.29832,-16.4935 v -91.31184 c 0,-10.51759 5.97591,-16.4935 15.29832,-16.4935 9.32237,0 15.29827,5.97591 15.29827,16.4935 v 91.31184 c 0,10.51759 -5.9759,16.4935 -15.29827,16.4935 z"
     style="font-style:normal;font-variant:normal;font-weight:normal;font-stretch:normal;font-family:Bebas;-inkscape-font-specification:Bebas;fill:#000000;stroke-width:1"
     id="path1052" /><path
     d="m 1057.8431,437.36539 h 24.8598 V 330.27716 l 33.465,107.08823 H 1142.94 V 270.04003 h -24.8598 v 112.34703 l -32.2699,-112.34703 h -27.9672 z"
     style="font-style:normal;font-variant:normal;font-weight:normal;font-stretch:normal;font-family:Bebas;-inkscape-font-specification:Bebas;fill:#000000;stroke-width:1"
     id="path1054" /><path
     d="m 1218.4456,437.36539 h 39.68 c 24.1427,0 39.68,-15.77639 39.68,-39.91905 v -87.48726 c 0,-24.14266 -15.5373,-39.91905 -39.68,-39.91905 h -39.68 z m 25.3378,-23.90363 V 293.94365 h 13.147 c 9.8005,0 15.5374,5.73687 15.5374,15.53736 v 88.4434 c 0,9.80049 -5.7369,15.53735 -15.5374,15.53735 z"
     style="font-style:normal;font-variant:normal;font-weight:normal;font-stretch:normal;font-family:Bebas;-inkscape-font-specification:Bebas;fill:#000000;stroke-width:1"
     id="path1056" /><path
     d="m 1323.024,437.36539 h 71.9499 v -23.90363 h -46.6121 v -49.00242 h 37.0506 v -23.90362 h -37.0506 v -46.61207 h 46.6121 v -23.90362 h -71.9499 z"
     style="font-style:normal;font-variant:normal;font-weight:normal;font-stretch:normal;font-family:Bebas;-inkscape-font-specification:Bebas;fill:#000000;stroke-width:1"
     id="path1058" /><path
     d="m 1542.8999,270.04003 -21.0352,106.84919 -21.9913,-106.84919 h -35.8554 v 167.32536 h 24.8597 V 322.628 l 23.6646,114.73739 h 17.6887 L 1553.8956,322.628 v 114.73739 h 25.3378 V 270.04003 Z"
     style="font-style:normal;font-variant:normal;font-weight:normal;font-stretch:normal;font-family:Bebas;-inkscape-font-specification:Bebas;fill:#000000;stroke-width:1"
     id="path1060" /><path
     d="m 1662.3358,437.36539 h 25.8159 l -27.7282,-167.32536 h -33.9431 l -27.7282,167.32536 h 25.3378 l 5.4979,-37.05062 h 27.2501 z m -29.4014,-61.43231 10.2785,-70.03762 10.2786,70.03762 z"
     style="font-style:normal;font-variant:normal;font-weight:normal;font-stretch:normal;font-family:Bebas;-inkscape-font-specification:Bebas;fill:#000000;stroke-width:1"
     id="path1062" /><path
     d="m 1707.7228,437.36539 h 25.3378 V 369.4791 h 14.3422 c 24.1427,0 39.68,-15.77639 39.68,-39.91905 v -19.60097 c 0,-24.14266 -15.5373,-39.91905 -39.68,-39.91905 h -39.68 z m 25.3378,-91.78991 v -51.63183 h 13.147 c 9.8005,0 15.5374,5.73687 15.5374,15.53736 v 20.55711 c 0,9.80049 -5.7369,15.53736 -15.5374,15.53736 z"
     style="font-style:normal;font-variant:normal;font-weight:normal;font-stretch:normal;font-family:Bebas;-inkscape-font-specification:Bebas;fill:#000000;stroke-width:1"
     id="path1064" /><path
     d="m 1855.1522,437.36539 h 25.8159 l -27.7282,-167.32536 h -33.9431 l -27.7282,167.32536 h 25.3378 l 5.4979,-37.05062 h 27.2501 z m -29.4014,-61.43231 10.2785,-70.03762 10.2786,70.03762 z"
     style="font-style:normal;font-variant:normal;font-weight:normal;font-stretch:normal;font-family:Bebas;-inkscape-font-specification:Bebas;fill:#000000;stroke-width:1"
     id="path1066" /><path
     d="m 1935.6775,439.75575 c 24.1427,0 40.8752,-17.21061 40.8752,-41.11423 0,-18.40579 -7.8882,-30.59664 -32.2699,-54.97833 -17.9277,-17.92772 -23.1865,-25.57688 -23.1865,-36.09447 0,-10.5176 5.0198,-16.01543 13.8641,-16.01543 8.8444,0 13.8641,6.69301 13.8641,19.60097 v 4.78072 l 24.3817,-2.62939 v -4.30266 c 0,-25.0988 -14.3422,-41.35326 -38.4848,-41.35326 -24.1427,0 -38.4848,16.25446 -38.4848,41.11423 0,18.40579 7.171,31.31374 32.2698,54.97833 18.8839,17.92772 23.1866,25.57688 23.1866,36.09447 0,9.80048 -6.215,16.01543 -16.2545,16.01543 -10.0395,0 -16.2545,-7.41013 -16.2545,-19.60097 v -6.21495 l -24.3817,2.6294 v 5.97591 c 0,23.90362 16.7326,41.11423 40.8752,41.11423 z"
     style="font-style:normal;font-variant:normal;font-weight:normal;font-stretch:normal;font-family:Bebas;-inkscape-font-specification:Bebas;fill:#000000;stroke-width:1"
     id="path1068" /></g><g
   aria-label="#MEMORIADE"
   style="font-style:normal;font-weight:normal;font-size:381.88311768px;line-height:1.25;font-family:sans-serif;letter-spacing:0px;word-spacing:0px;fill:#000000;fill-opacity:1;stroke:none;stroke-width:1"
   id="text1015"><path
     d="m 329.47569,772.03528 h 33.60572 l 7.63766,-72.17591 h 31.6963 l -7.25578,72.17591 h 33.60571 l 7.25578,-72.17591 h 21.00357 l 3.43695,-30.16877 h -21.38545 l 8.01954,-79.43169 h 21.00357 l 3.05507,-30.16876 h -21.38546 l 5.34637,-55.37305 h -33.22383 l -5.34637,55.37305 h -31.6963 l 5.34637,-55.37305 h -33.22383 l -5.72825,55.37305 h -21.38545 l -3.05507,30.16876 h 21.38546 l -8.01955,79.43169 h -21.00357 l -2.67318,30.16877 h 21.00357 z m 43.91656,-102.34468 8.01955,-79.43169 h 32.07818 l -7.63766,79.43169 z"
     style="font-style:normal;font-variant:normal;font-weight:normal;font-stretch:normal;font-family:Bebas;-inkscape-font-specification:Bebas;fill:#000000;stroke-width:1"
     id="path1017" /><path
     d="M 631.08578,504.7171 597.48007,675.41885 562.34682,504.7171 h -57.28247 v 267.31818 h 39.71585 v -183.3039 l 37.80642,183.3039 h 28.25936 l 37.80642,-183.3039 v 183.3039 h 40.47961 V 504.7171 Z"
     style="font-style:normal;font-variant:normal;font-weight:normal;font-stretch:normal;font-family:Bebas;-inkscape-font-specification:Bebas;fill:#000000;stroke-width:1"
     id="path1019" /><path
     d="M 733.29918,772.03528 H 848.246 v -38.18831 h -74.46721 v -78.28604 h 59.19189 V 617.37262 H 773.77879 V 542.90541 H 848.246 V 504.7171 H 733.29918 Z"
     style="font-style:normal;font-variant:normal;font-weight:normal;font-stretch:normal;font-family:Bebas;-inkscape-font-specification:Bebas;fill:#000000;stroke-width:1"
     id="path1021" /><path
     d="M 1008.4937,504.7171 974.88802,675.41885 939.75478,504.7171 h -57.28247 v 267.31818 h 39.71584 v -183.3039 l 37.80643,183.3039 h 28.25935 l 37.80647,-183.3039 v 183.3039 H 1066.54 V 504.7171 Z"
     style="font-style:normal;font-variant:normal;font-weight:normal;font-stretch:normal;font-family:Bebas;-inkscape-font-specification:Bebas;fill:#000000;stroke-width:1"
     id="path1023" /><path
     d="m 1172.1903,775.85411 c 38.9521,0 64.9201,-25.96805 64.9201,-64.53825 V 565.43651 c 0,-38.57019 -25.968,-64.53825 -64.9201,-64.53825 -38.9521,0 -64.9201,25.96806 -64.9201,64.53825 v 145.87935 c 0,38.5702 25.968,64.53825 64.9201,64.53825 z m 0,-38.18831 c -14.8934,0 -24.4405,-9.54708 -24.4405,-26.34994 V 565.43651 c 0,-16.80286 9.5471,-26.34993 24.4405,-26.34993 14.8934,0 24.4405,9.54707 24.4405,26.34993 v 145.87935 c 0,16.80286 -9.5471,26.34994 -24.4405,26.34994 z"
     style="font-style:normal;font-variant:normal;font-weight:normal;font-stretch:normal;font-family:Bebas;-inkscape-font-specification:Bebas;fill:#000000;stroke-width:1"
     id="path1025" /><path
     d="m 1410.6763,772.03528 -33.9876,-119.52942 c 17.5666,-10.69272 27.8775,-29.78688 27.8775,-54.60928 v -29.405 c 0,-38.5702 -24.8224,-63.77448 -63.3926,-63.77448 h -63.3926 v 267.31818 h 40.4796 V 661.67106 h 21.0035 l 29.405,110.36422 z m -92.4157,-229.12987 h 21.0035 c 15.6573,0 24.8224,9.16519 24.8224,24.8224 v 30.93253 c 0,15.65721 -9.1651,24.82241 -24.8224,24.82241 h -21.0035 z"
     style="font-style:normal;font-variant:normal;font-weight:normal;font-stretch:normal;font-family:Bebas;-inkscape-font-specification:Bebas;fill:#000000;stroke-width:1"
     id="path1027" /><path
     d="m 1444.109,772.03528 h 40.4796 V 504.7171 h -40.4796 z"
     style="font-style:normal;font-variant:normal;font-weight:normal;font-stretch:normal;font-family:Bebas;-inkscape-font-specification:Bebas;fill:#000000;stroke-width:1"
     id="path1029" /><path
     d="m 1617.7345,772.03528 h 41.2434 L 1614.6794,504.7171 h -54.2274 l -44.2984,267.31818 h 40.4796 l 8.7833,-59.19188 h 43.5347 z m -46.9716,-98.14396 16.4209,-111.89176 16.421,111.89176 z"
     style="font-style:normal;font-variant:normal;font-weight:normal;font-stretch:normal;font-family:Bebas;-inkscape-font-specification:Bebas;fill:#000000;stroke-width:1"
     id="path1031" /><path
     d="m 1690.2445,772.03528 h 63.3926 c 38.5702,0 63.3926,-25.20429 63.3926,-63.77448 V 568.49158 c 0,-38.5702 -24.8224,-63.77448 -63.3926,-63.77448 h -63.3926 z m 40.4796,-38.18831 V 542.90541 h 21.0036 c 15.6572,0 24.8224,9.16519 24.8224,24.8224 v 141.29675 c 0,15.65721 -9.1652,24.82241 -24.8224,24.82241 z"
     style="font-style:normal;font-variant:normal;font-weight:normal;font-stretch:normal;font-family:Bebas;-inkscape-font-specification:Bebas;fill:#000000;stroke-width:1"
     id="path1033" /><path
     d="m 1857.3185,772.03528 h 114.9468 v -38.18831 h -74.4672 v -78.28604 h 59.1919 v -38.18831 h -59.1919 v -74.46721 h 74.4672 V 504.7171 h -114.9468 z"
     style="font-style:normal;font-variant:normal;font-weight:normal;font-stretch:normal;font-family:Bebas;-inkscape-font-specification:Bebas;fill:#000000;stroke-width:1"
     id="path1035" /></g></svg>