<?xml version="1.0" encoding="utf-8"?>
<!-- Generator: Adobe Illustrator 23.0.3, SVG Export Plug-In . SVG Version: 6.00 Build 0)  -->
<svg version="1.1" id="Capa_12" xmlns="http://www.w3.org/2000/svg" xmlns:xlink="http://www.w3.org/1999/xlink" x="0px" y="0px"
	 viewBox="0 0 2303.1 1080" style="enable-background:new 0 0 2303.1 1080;" xml:space="preserve">
<style type="text/css">
	.st0{fill:#1D1D1B;}
</style>
<g>
	<path class="st0" d="M394.61,352.59v22.97c0,27.66-13.83,43.47-40.51,43.47c-26.68,0-40.51-15.81-40.51-43.47v-89.91
		c0-27.66,13.83-43.47,40.51-43.47c26.67,0,40.51,15.81,40.51,43.47v16.8h-25.69v-18.52c0-12.35-5.43-17.04-14.08-17.04
		c-8.65,0-14.08,4.69-14.08,17.04v93.36c0,12.35,5.43,16.8,14.08,16.8c8.64,0,14.08-4.45,14.08-16.8v-24.7H394.61z"/>
	<path class="st0" d="M413.87,285.66c0-27.66,14.57-43.47,41.25-43.47c26.67,0,41.25,15.81,41.25,43.47v89.91
		c0,27.66-14.57,43.47-41.25,43.47c-26.68,0-41.25-15.81-41.25-43.47V285.66z M441.04,377.29c0,12.35,5.43,17.04,14.08,17.04
		c8.64,0,14.08-4.69,14.08-17.04v-93.36c0-12.35-5.43-17.04-14.08-17.04c-8.65,0-14.08,4.69-14.08,17.04V377.29z"/>
	<path class="st0" d="M518.85,244.16h27.17v148.2h44.71v24.7h-71.88V244.16z"/>
	<path class="st0" d="M634.69,317.02h37.3v24.7h-37.3v50.63h46.93v24.7h-74.1v-172.9h74.1v24.7h-46.93V317.02z"/>
	<path class="st0" d="M782.15,352.59v22.97c0,27.66-13.83,43.47-40.51,43.47c-26.68,0-40.51-15.81-40.51-43.47v-89.91
		c0-27.66,13.83-43.47,40.51-43.47c26.67,0,40.51,15.81,40.51,43.47v16.8h-25.69v-18.52c0-12.35-5.43-17.04-14.08-17.04
		c-8.65,0-14.08,4.69-14.08,17.04v93.36c0,12.35,5.43,16.8,14.08,16.8c8.64,0,14.08-4.45,14.08-16.8v-24.7H782.15z"/>
	<path class="st0" d="M882.42,352.59v22.97c0,27.66-13.83,43.47-40.51,43.47c-26.68,0-40.51-15.81-40.51-43.47v-89.91
		c0-27.66,13.83-43.47,40.51-43.47c26.67,0,40.51,15.81,40.51,43.47v16.8h-25.69v-18.52c0-12.35-5.43-17.04-14.08-17.04
		c-8.65,0-14.08,4.69-14.08,17.04v93.36c0,12.35,5.43,16.8,14.08,16.8c8.64,0,14.08-4.45,14.08-16.8v-24.7H882.42z"/>
	<path class="st0" d="M903.91,244.16h27.17v172.9h-27.17V244.16z"/>
	<path class="st0" d="M953.56,285.66c0-27.66,14.57-43.47,41.25-43.47c26.67,0,41.25,15.81,41.25,43.47v89.91
		c0,27.66-14.57,43.47-41.25,43.47c-26.68,0-41.25-15.81-41.25-43.47V285.66z M1023.95,207.6l-25.19,27.42h-18.28l16.8-27.42
		H1023.95z M980.72,377.29c0,12.35,5.43,17.04,14.08,17.04c8.64,0,14.08-4.69,14.08-17.04v-93.36c0-12.35-5.43-17.04-14.08-17.04
		c-8.65,0-14.08,4.69-14.08,17.04V377.29z"/>
	<path class="st0" d="M1082.73,291.83v125.23h-24.45v-172.9h34.08l27.91,103.49V244.16h24.21v172.9h-27.91L1082.73,291.83z"/>
	<path class="st0" d="M1212.16,244.16h42.98c27.17,0,40.51,15.07,40.51,42.73v87.44c0,27.66-13.34,42.73-40.51,42.73h-42.98V244.16z
		 M1239.33,268.86v123.5h15.31c8.65,0,13.83-4.45,13.83-16.8v-89.91c0-12.35-5.19-16.8-13.83-16.8H1239.33z"/>
	<path class="st0" d="M1345.04,317.02h37.3v24.7h-37.3v50.63h46.93v24.7h-74.1v-172.9h74.1v24.7h-46.93V317.02z"/>
	<path class="st0" d="M1514.48,366.92l18.52-122.76h37.79v172.9h-25.69V293.06l-18.77,123.99h-25.69l-20.25-122.26v122.26h-23.71
		v-172.9h37.79L1514.48,366.92z"/>
	<path class="st0" d="M1683.43,417.06h-27.42l-4.69-31.37h-33.34l-4.69,31.37h-24.95l27.66-172.9h39.77L1683.43,417.06z
		 M1621.43,362.22h26.18l-13.09-87.44L1621.43,362.22z"/>
	<path class="st0" d="M1781.48,286.89v22.48c0,27.66-13.34,42.73-40.51,42.73h-12.84v64.96h-27.17v-172.9h40.01
		C1768.15,244.16,1781.48,259.23,1781.48,286.89z M1728.13,268.86v58.54h12.84c8.64,0,13.34-3.95,13.34-16.3v-25.93
		c0-12.35-4.69-16.3-13.34-16.3H1728.13z"/>
	<path class="st0" d="M1884.98,417.06h-27.42l-4.69-31.37h-33.34l-4.69,31.37h-24.95l27.66-172.9h39.77L1884.98,417.06z
		 M1822.98,362.22h26.18l-13.09-87.44L1822.98,362.22z"/>
	<path class="st0" d="M1939.07,242.18c26.43,0,40.01,15.81,40.01,43.47v5.43h-25.69v-7.16c0-12.35-4.94-17.04-13.58-17.04
		s-13.59,4.69-13.59,17.04c0,35.57,53.11,42.24,53.11,91.63c0,27.66-13.83,43.47-40.51,43.47s-40.51-15.81-40.51-43.47v-10.62H1924
		v12.35c0,12.35,5.43,16.8,14.08,16.8c8.64,0,14.08-4.45,14.08-16.8c0-35.57-53.1-42.24-53.1-91.63
		C1899.06,257.99,1912.64,242.18,1939.07,242.18z"/>
	<path class="st0" d="M428.21,701.8l33.59-222.6h68.53v313.52h-46.58V567.88l-34.04,224.84h-46.58L366.4,571.01v221.71h-43V479.19
		h68.53L428.21,701.8z"/>
	<path class="st0" d="M615.43,611.32h67.63v44.79h-67.63v91.82h85.1v44.79H566.16V479.19h134.37v44.79h-85.1V611.32z"/>
	<path class="st0" d="M835.34,701.8l33.59-222.6h68.53v313.52h-46.58V567.88l-34.04,224.84h-46.58l-36.73-221.71v221.71h-43V479.19
		h68.53L835.34,701.8z"/>
	<path class="st0" d="M969.26,554.44c0-50.16,26.43-78.83,74.8-78.83c48.37,0,74.8,28.67,74.8,78.83v163.03
		c0,50.16-26.43,78.83-74.8,78.83c-48.37,0-74.8-28.67-74.8-78.83V554.44z M1018.53,720.61c0,22.39,9.85,30.9,25.53,30.9
		c15.68,0,25.53-8.51,25.53-30.9V551.3c0-22.39-9.85-30.9-25.53-30.9c-15.68,0-25.53,8.51-25.53,30.9V720.61z"/>
	<path class="st0" d="M1253.67,792.72c-2.69-8.06-4.48-12.99-4.48-38.52v-49.27c0-29.11-9.85-39.86-32.25-39.86h-17.02v127.65
		h-49.27V479.19h74.35c51.06,0,73.01,23.74,73.01,72.11v24.63c0,32.25-10.3,53.3-32.25,63.6c24.63,10.3,32.7,34.04,32.7,66.74v48.37
		c0,15.23,0.45,26.43,5.38,38.07H1253.67z M1199.92,523.98v96.3h19.26c18.36,0,29.56-8.06,29.56-33.14v-30.9
		c0-22.4-7.61-32.25-25.08-32.25H1199.92z"/>
	<path class="st0" d="M1330.71,479.19h49.27v313.52h-49.27V479.19z"/>
	<path class="st0" d="M1575.25,792.72h-49.72l-8.51-56.88h-60.46l-8.51,56.88h-45.24l50.16-313.52h72.11L1575.25,792.72z
		 M1462.83,693.29h47.48l-23.74-158.55L1462.83,693.29z"/>
	<path class="st0" d="M1667.52,479.19h77.93c49.27,0,73.45,27.32,73.45,77.49v158.55c0,50.16-24.19,77.49-73.45,77.49h-77.93V479.19
		z M1716.79,523.98v223.95h27.77c15.68,0,25.08-8.06,25.08-30.46V554.44c0-22.39-9.41-30.46-25.08-30.46H1716.79z"/>
	<path class="st0" d="M1899.52,611.32h67.63v44.79h-67.63v91.82h85.1v44.79h-134.37V479.19h134.37v44.79h-85.1V611.32z"/>
</g>
</svg>
