<?xml version="1.0" encoding="UTF-8" standalone="no"?>
<!-- Generator: Adobe Illustrator 23.0.3, SVG Export Plug-In . SVG Version: 6.00 Build 0)  -->

<svg
   xmlns:dc="http://purl.org/dc/elements/1.1/"
   xmlns:cc="http://creativecommons.org/ns#"
   xmlns:rdf="http://www.w3.org/1999/02/22-rdf-syntax-ns#"
   xmlns:svg="http://www.w3.org/2000/svg"
   xmlns="http://www.w3.org/2000/svg"
   xmlns:sodipodi="http://sodipodi.sourceforge.net/DTD/sodipodi-0.dtd"
   xmlns:inkscape="http://www.inkscape.org/namespaces/inkscape"
   version="1.1"
   id="Capa_12"
   x="0px"
   y="0px"
   viewBox="0 0 2303.1 1080"
   style="enable-background:new 0 0 2303.1 1080;"
   xml:space="preserve"
   sodipodi:docname="fortress-white.svg"
   inkscape:version="0.92.4 (unknown)"><metadata
   id="metadata1007"><rdf:RDF><cc:Work
       rdf:about=""><dc:format>image/svg+xml</dc:format><dc:type
         rdf:resource="http://purl.org/dc/dcmitype/StillImage" /><dc:title></dc:title></cc:Work></rdf:RDF></metadata><defs
   id="defs1005" /><sodipodi:namedview
   pagecolor="#ffffff"
   bordercolor="#666666"
   borderopacity="1"
   objecttolerance="10"
   gridtolerance="10"
   guidetolerance="10"
   inkscape:pageopacity="0"
   inkscape:pageshadow="2"
   inkscape:window-width="1920"
   inkscape:window-height="983"
   id="namedview1003"
   showgrid="false"
   inkscape:zoom="0.38500797"
   inkscape:cx="1407.275"
   inkscape:cy="715.10092"
   inkscape:window-x="0"
   inkscape:window-y="34"
   inkscape:window-maximized="1"
   inkscape:current-layer="text2026" />
<style
   type="text/css"
   id="style948">
	.st0{fill:#1D1D1B;}
</style>

<g
   aria-label="COLECCION DE MAPAS"
   style="font-style:normal;font-weight:normal;font-size:239.03622437px;line-height:1.25;font-family:sans-serif;letter-spacing:0px;word-spacing:0px;fill:#000000;fill-opacity:1;stroke:none;stroke-width:0.22118266"
   id="text1011"
   transform="matrix(4.5211502,0,0,4.5211502,231.39642,920.52364)"><g
   aria-label="#LARUTA"
   style="font-style:normal;font-weight:normal;font-size:89.22472382px;line-height:1.25;font-family:sans-serif;letter-spacing:0px;word-spacing:0px;fill:#000000;fill-opacity:1;stroke:none;stroke-width:0.22118264"
   id="text1901"
   transform="translate(0,-10.340793)"><g
     aria-label="#EUROPA
FORTALEZA"
     style="font-style:normal;font-weight:normal;font-size:88.22151947px;line-height:1.25;font-family:sans-serif;letter-spacing:0px;word-spacing:0px;fill:#c83737;fill-opacity:1;stroke:none;stroke-width:0.04892179"
     id="text2026"><g
       id="g2101"
       style="fill:#c9cbc8;stroke-width:0.0547555"
       transform="matrix(0.89345889,0,0,0.89345889,7.3423158,3.8729231)"><g
         id="g2070"
         style="fill:#c9cbc8;stroke-width:0.0547555"><path
           d="m -0.12140064,-136.02396 -1.85265196,11.02769 h -6.1755063 l -0.7939937,5.46973 h 6.3519494 l -1.8526519,11.02769 h -6.1755059 l -1.411545,9.704367 h -10.410139 l 1.499766,-9.704367 h -5.646177 l -1.499766,9.704367 h -10.41014 l 1.499766,-9.704367 h -7.322386 l 1.852652,-11.02769 h 7.145943 l 0.793994,-5.46973 h -7.145943 l 1.76443,-11.02769 h 7.057722 l 1.587987,-10.05726 h 10.410139 l -1.587987,10.05726 h 5.557956 l 1.587987,-10.05726 h 10.4101393 l -1.5879873,10.05726 z m -24.26091736,10.58658 -0.970437,6.35195 h 6.351949 l 0.970437,-6.35195 z"
           style="font-style:normal;font-variant:normal;font-weight:500;font-stretch:normal;font-family:Kievit;-inkscape-font-specification:'Kievit Medium';fill:#c9cbc8;stroke-width:0.0547555"
           id="path2030"
           inkscape:connector-curvature="0" /><path
           d="m 6.7819344,-92.26609 v -58.75553 H 43.65853 v 13.67433 H 23.36758 v 8.82216 h 17.908969 v 12.70389 H 23.36758 v 9.88081 h 20.9085 v 13.67434 z"
           style="font-style:normal;font-variant:normal;font-weight:500;font-stretch:normal;font-family:Kievit;-inkscape-font-specification:'Kievit Medium';fill:#c9cbc8;stroke-width:0.0547555"
           id="path2032"
           inkscape:connector-curvature="0" /><path
           d="m 107.34137,-117.40922 q 0,13.05678 -6.52839,19.673395 -6.440171,6.528393 -18.967627,6.528393 -13.409671,0 -20.202728,-5.910842 -6.704835,-5.999066 -6.704835,-18.526516 v -35.37683 H 71.7881 v 34.22995 q 0,3.08775 0.529329,5.38151 0.529329,2.29376 1.676209,3.79353 1.235101,1.41154 3.175975,2.11731 2.029095,0.70577 5.028626,0.70577 5.469734,0 7.587051,-2.91131 2.117316,-2.99953 2.117316,-8.73393 v -34.58283 h 15.438764 z"
           style="font-style:normal;font-variant:normal;font-weight:500;font-stretch:normal;font-family:Kievit;-inkscape-font-specification:'Kievit Medium';fill:#c9cbc8;stroke-width:0.0547555"
           id="path2034"
           inkscape:connector-curvature="0" /><path
           d="m 152.8947,-92.26609 -9.96903,-16.76209 q -1.05866,-1.67621 -1.76443,-2.64664 -0.70577,-1.05866 -1.32333,-1.58799 -0.61755,-0.52933 -1.14687,-0.70577 -0.52933,-0.17645 -1.23511,-0.17645 h -0.61755 v 21.87894 h -16.85031 v -58.75553 h 22.49649 q 11.29236,0 17.37964,4.4993 6.08728,4.49929 6.08728,13.40967 0,3.61708 -1.05865,6.35195 -0.97044,2.64664 -2.64665,4.58751 -1.58799,1.94088 -3.7053,3.2642 -2.0291,1.2351 -4.05819,1.94087 v 0.17645 q 1.49976,1.05866 3.26419,3.26419 1.85266,2.11732 4.14641,5.99907 l 9.08682,15.26232 z m -3.44064,-39.69968 q 0,-3.35242 -1.85265,-4.94041 -1.76443,-1.67621 -5.99906,-1.67621 h -4.76397 v 13.14501 h 5.29329 q 3.70531,0 5.46974,-1.67621 1.85265,-1.76443 1.85265,-4.85218 z"
           style="font-style:normal;font-variant:normal;font-weight:500;font-stretch:normal;font-family:Kievit;-inkscape-font-specification:'Kievit Medium';fill:#c9cbc8;stroke-width:0.0547555"
           id="path2036"
           inkscape:connector-curvature="0" /><path
           d="m 236.48735,-122.08496 q 0,5.91084 -1.94088,11.46879 -1.85265,5.55796 -5.7344,9.88081 -3.79352,4.322858 -9.61614,6.969504 -5.82262,2.558424 -13.67434,2.558424 -7.85171,0 -13.85078,-2.558424 -5.91084,-2.558424 -9.96903,-6.793054 -3.96997,-4.23464 -5.99906,-9.70437 -2.0291,-5.46973 -2.0291,-11.29235 0,-5.91085 1.94088,-11.38058 2.02909,-5.55796 5.91084,-9.79259 3.96997,-4.23463 9.88081,-6.79306 5.91084,-2.55842 13.76256,-2.55842 7.85171,0 13.67433,2.55842 5.91084,2.47021 9.79259,6.61662 3.96997,4.14641 5.91084,9.61614 1.94088,5.38152 1.94088,11.20414 z m -17.73253,0.52933 q 0,-3.44064 -0.70577,-6.5284 -0.61755,-3.08775 -2.20554,-5.46973 -1.49976,-2.38198 -4.05819,-3.70531 -2.55842,-1.41154 -6.26373,-1.41154 -3.79352,0 -6.52839,1.32332 -2.64664,1.32333 -4.32285,3.61709 -1.67621,2.20553 -2.47021,5.20507 -0.70577,2.99953 -0.70577,6.44017 0,3.44064 0.70577,6.61661 0.794,3.17597 2.38198,5.64618 1.67621,2.38198 4.23464,3.79352 2.64664,1.41155 6.35195,1.41155 3.79352,0 6.35195,-1.32333 2.64664,-1.41154 4.23463,-3.7053 1.58799,-2.38198 2.29376,-5.38151 0.70577,-3.08776 0.70577,-6.52839 z"
           style="font-style:normal;font-variant:normal;font-weight:500;font-stretch:normal;font-family:Kievit;-inkscape-font-specification:'Kievit Medium';fill:#c9cbc8;stroke-width:0.0547555"
           id="path2038"
           inkscape:connector-curvature="0" /><path
           d="m 292.52591,-131.26 q 0,5.20507 -1.85265,8.99859 -1.85265,3.79353 -5.20507,6.35195 -3.35242,2.55843 -8.11638,3.79353 -4.67574,1.2351 -10.41014,1.2351 h -4.32285 v 18.61474 h -16.85031 v -58.75553 h 22.84937 q 5.02863,0 9.35148,1.2351 4.41108,1.14688 7.58705,3.61708 3.2642,2.38198 5.11685,6.08729 1.85265,3.7053 1.85265,8.82215 z m -16.76208,0.17644 q 0,-4.05819 -2.11732,-5.7344 -2.0291,-1.76443 -6.17551,-1.76443 h -4.85218 v 15.35055 h 4.4993 q 4.49929,0 6.52839,-1.85266 2.11732,-1.85265 2.11732,-5.99906 z"
           style="font-style:normal;font-variant:normal;font-weight:500;font-stretch:normal;font-family:Kievit;-inkscape-font-specification:'Kievit Medium';fill:#c9cbc8;stroke-width:0.0547555"
           id="path2040"
           inkscape:connector-curvature="0" /><path
           d="m 307.47121,-92.26609 h -17.02675 l 22.40826,-58.75553 h 16.14454 l 23.29048,58.75553 h -18.35008 l -2.82308,-8.29282 h -20.9085 z m 15.87987,-30.70109 q -0.70577,-1.94087 -1.2351,-3.7053 -0.44111,-1.85265 -0.79399,-3.35242 -0.35289,-1.67621 -0.70577,-3.17598 h -0.17645 q -0.35288,1.58799 -0.70577,3.2642 -0.35289,1.49977 -0.88221,3.35242 -0.52933,1.76443 -1.14688,3.61708 l -3.08776,9.26326 h 11.90991 z"
           style="font-style:normal;font-variant:normal;font-weight:500;font-stretch:normal;font-family:Kievit;-inkscape-font-specification:'Kievit Medium';fill:#c9cbc8;stroke-width:0.0547555"
           id="path2042"
           inkscape:connector-curvature="0" /></g><g
         transform="translate(0,-48.257035)"
         id="g2081"
         style="fill:#c9cbc8;stroke-width:0.0547555"><path
           inkscape:connector-curvature="0"
           d="m -23.235439,-21.139785 v 10.851247 H -6.120464 V 2.4153611 H -23.235439 V 23.941412 h -16.85031 V -34.81412 h 36.0826015 v 13.674335 z"
           style="font-style:normal;font-variant:normal;font-weight:500;font-stretch:normal;font-family:Kievit;-inkscape-font-specification:'Kievit Medium';fill:#c9cbc8;stroke-width:0.0547555"
           id="path2044" /><path
           inkscape:connector-curvature="0"
           d="m 65.471989,-5.8774617 q 0,5.9108418 -1.940874,11.4687975 -1.852652,5.5579562 -5.734398,9.8808102 -3.793526,4.322854 -9.616146,6.9695 -5.82262,2.558424 -13.674336,2.558424 -7.851715,0 -13.850778,-2.558424 Q 14.744615,19.883222 10.686425,15.648589 6.7164568,11.413956 4.6873618,5.9442219 2.6582669,0.47448769 2.6582669,-5.3481326 q 0,-5.9108414 1.9408734,-11.3805764 2.029095,-5.557955 5.9108417,-9.792588 3.969968,-4.234633 9.88081,-6.793057 5.910842,-2.558424 13.762557,-2.558424 7.851716,0 13.674336,2.558424 5.910842,2.470202 9.792589,6.616614 3.969968,4.146411 5.910841,9.616145 1.940874,5.381513 1.940874,11.2041333 z m -17.732526,0.5293291 q 0,-3.4406392 -0.705772,-6.5283924 -0.61755,-3.087753 -2.205538,-5.469734 -1.499766,-2.381981 -4.05819,-3.705304 -2.558424,-1.411544 -6.263728,-1.411544 -3.793525,0 -6.528392,1.323322 -2.646646,1.323323 -4.322854,3.617083 -1.676209,2.205538 -2.470203,5.205069 -0.705772,2.999532 -0.705772,6.4401713 0,3.4406393 0.705772,6.61661395 0.793994,3.17597475 2.381981,5.64617725 1.676209,2.381981 4.234633,3.7935255 2.646646,1.411544 6.351949,1.411544 3.793526,0 6.35195,-1.323323 2.646645,-1.411544 4.234633,-3.7053035 1.587987,-2.381981 2.293759,-5.3815126 0.705772,-3.0877532 0.705772,-6.5283925 z"
           style="font-style:normal;font-variant:normal;font-weight:500;font-stretch:normal;font-family:Kievit;-inkscape-font-specification:'Kievit Medium';fill:#c9cbc8;stroke-width:0.0547555"
           id="path2046" /><path
           inkscape:connector-curvature="0"
           d="M 107.92239,23.941412 97.953363,7.1793232 Q 96.894705,5.5031143 96.188932,4.5326776 95.48316,3.4740194 94.86561,2.9446902 94.248059,2.4153611 93.71873,2.2389181 93.189401,2.062475 92.483629,2.062475 H 91.866078 V 23.941412 H 75.015768 V -34.81412 h 22.496487 q 11.292355,0 17.379635,4.499297 6.08729,4.499298 6.08729,13.409671 0,3.617083 -1.05866,6.35195 -0.97044,2.6466453 -2.64664,4.5875188 -1.58799,1.9408734 -3.70531,3.2641962 -2.02909,1.2351013 -4.05819,1.94087342 v 0.17644304 q 1.49977,1.05865823 3.2642,3.26419624 1.85265,2.1173164 4.14641,5.9990633 l 9.08682,15.262323 z m -3.44063,-39.699684 q 0,-3.352418 -1.85266,-4.940405 -1.76443,-1.676209 -5.99906,-1.676209 h -4.763962 v 13.1450066 h 5.293291 q 3.705301,0 5.469731,-1.6762086 1.85266,-1.764431 1.85266,-4.852184 z"
           style="font-style:normal;font-variant:normal;font-weight:500;font-stretch:normal;font-family:Kievit;-inkscape-font-specification:'Kievit Medium';fill:#c9cbc8;stroke-width:0.0547555"
           id="path2048" /><path
           inkscape:connector-curvature="0"
           d="M 159.30799,-21.139785 V 23.941412 H 142.45768 V -21.139785 H 126.66603 V -34.81412 h 48.43361 v 13.674335 z"
           style="font-style:normal;font-variant:normal;font-weight:500;font-stretch:normal;font-family:Kievit;-inkscape-font-specification:'Kievit Medium';fill:#c9cbc8;stroke-width:0.0547555"
           id="path2050" /><path
           inkscape:connector-curvature="0"
           d="m 189.87122,23.941412 h -17.02676 l 22.40827,-58.755532 h 16.14454 l 23.29048,58.755532 h -18.35008 l -2.82308,-8.292823 h -20.9085 z m 15.87987,-30.7010889 q -0.70577,-1.9408734 -1.2351,-3.7053041 -0.44111,-1.852652 -0.79399,-3.352417 -0.35289,-1.676209 -0.70578,-3.175975 h -0.17644 q -0.35288,1.587987 -0.70577,3.264196 -0.35289,1.499766 -0.88222,3.352418 -0.52932,1.7644302 -1.14688,3.6170821 l -3.08775,9.2632595 h 11.90991 z"
           style="font-style:normal;font-variant:normal;font-weight:500;font-stretch:normal;font-family:Kievit;-inkscape-font-specification:'Kievit Medium';fill:#c9cbc8;stroke-width:0.0547555"
           id="path2052" /><path
           inkscape:connector-curvature="0"
           d="M 242.33476,23.941412 V -34.81412 h 16.93854 v 45.434082 h 20.9085 v 13.32145 z"
           style="font-style:normal;font-variant:normal;font-weight:500;font-stretch:normal;font-family:Kievit;-inkscape-font-specification:'Kievit Medium';fill:#c9cbc8;stroke-width:0.0547555"
           id="path2054" /><path
           inkscape:connector-curvature="0"
           d="M 290.22803,23.941412 V -34.81412 h 36.8766 v 13.674335 h -20.29095 v 8.822152 h 17.90897 V 0.38626617 H 306.81368 V 10.267076 h 20.9085 v 13.674336 z"
           style="font-style:normal;font-variant:normal;font-weight:500;font-stretch:normal;font-family:Kievit;-inkscape-font-specification:'Kievit Medium';fill:#c9cbc8;stroke-width:0.0547555"
           id="path2056" /><path
           inkscape:connector-curvature="0"
           d="M 336.69733,23.941412 V 13.266608 l 22.76116,-34.406393 H 337.49133 V -34.81412 h 42.52277 v 10.586582 l -22.84937,34.494614 h 23.46692 v 13.674336 z"
           style="font-style:normal;font-variant:normal;font-weight:500;font-stretch:normal;font-family:Kievit;-inkscape-font-specification:'Kievit Medium';fill:#c9cbc8;stroke-width:0.0547555"
           id="path2058" /><path
           inkscape:connector-curvature="0"
           d="m 401.55117,23.941412 h -17.02676 l 22.40827,-58.755532 h 16.14454 l 23.29048,58.755532 h -18.35008 l -2.82309,-8.292823 h -20.9085 z m 15.87987,-30.7010889 q -0.70577,-1.9408734 -1.2351,-3.7053041 -0.44111,-1.852652 -0.794,-3.352417 -0.35288,-1.676209 -0.70577,-3.175975 h -0.17644 q -0.35289,1.587987 -0.70577,3.264196 -0.35289,1.499766 -0.88222,3.352418 -0.52933,1.7644302 -1.14688,3.6170821 l -3.08775,9.2632595 h 11.9099 z"
           style="font-style:normal;font-variant:normal;font-weight:500;font-stretch:normal;font-family:Kievit;-inkscape-font-specification:'Kievit Medium';fill:#c9cbc8;stroke-width:0.0547555"
           id="path2060" /></g></g></g></g>

</g></svg>